<?xml version="1.0" encoding="UTF-8" standalone="no"?>
<svg width="330px" height="340px" viewBox="0 0 330 340" version="1.1" xmlns="http://www.w3.org/2000/svg" xmlns:xlink="http://www.w3.org/1999/xlink" xmlns:sketch="http://www.bohemiancoding.com/sketch/ns">
    <title>Untitled 15</title>
    <description>Created with Sketch (http://www.bohemiancoding.com/sketch)</description>
    <defs></defs>
    <g id="Page-1" stroke="none" stroke-width="1" fill="none" fill-rule="evenodd" sketch:type="MSPage">
        <path d="M164.5,328 C248.723429,328 317,259.723429 317,175.5 C317,91.2765715 248.723429,23 164.5,23 C80.2765715,23 12,91.2765715 12,175.5 C12,259.723429 80.2765715,328 164.5,328 Z" id="Oval-1" fill="#000000" sketch:type="MSShapeGroup"></path>
        <g id="Group" sketch:type="MSLayerGroup" transform="translate(19.000000, 33.000000)" fill="#FFFFFF">
            <rect id="Rectangle-1" opacity="0.25" sketch:type="MSShapeGroup" x="0" y="256" width="77" height="72"></rect>
            <rect id="Rectangle-1" opacity="0.35" sketch:type="MSShapeGroup" x="78" y="221" width="77" height="107"></rect>
            <rect id="Rectangle-1" opacity="0.45" sketch:type="MSShapeGroup" x="156" y="180" width="77" height="148"></rect>
            <rect id="Rectangle-1" opacity="0.7" sketch:type="MSShapeGroup" x="234" y="0" width="77" height="328"></rect>
        </g>
        <path d="M112.732,218.016 C112.732,223.264026 111.948008,228.023979 110.38,232.296 C108.811992,236.568021 106.604014,240.215985 103.756,243.24 C100.907986,246.264015 97.5000198,248.599992 93.532,250.248 C89.5639802,251.896008 85.1640242,252.72 80.332,252.72 C75.5639762,252.72 71.1960198,251.896008 67.228,250.248 C63.2599802,248.599992 59.8520142,246.264015 57.004,243.24 C54.1559858,240.215985 51.9400079,236.568021 50.356,232.296 C48.7719921,228.023979 47.98,223.264026 47.98,218.016 C47.98,212.799974 48.7719921,208.056021 50.356,203.784 C51.9400079,199.511979 54.1559858,195.864015 57.004,192.84 C59.8520142,189.815985 63.2599802,187.472008 67.228,185.808 C71.1960198,184.143992 75.5639762,183.312 80.332,183.312 C85.1640242,183.312 89.5639802,184.135992 93.532,185.784 C97.5000198,187.432008 100.907986,189.775985 103.756,192.816 C106.604014,195.856015 108.811992,199.511979 110.38,203.784 C111.948008,208.056021 112.732,212.799974 112.732,218.016 Z M107.644,218.016 C107.644,213.279976 106.988007,209.024019 105.676,205.248 C104.363993,201.471981 102.516012,198.272013 100.132,195.648 C97.7479881,193.023987 94.8760168,191.016007 91.516,189.624 C88.1559832,188.231993 84.4280205,187.536 80.332,187.536 C76.2999798,187.536 72.6120167,188.231993 69.268,189.624 C65.9239833,191.016007 63.0440121,193.023987 60.628,195.648 C58.2119879,198.272013 56.3400066,201.471981 55.012,205.248 C53.6839934,209.024019 53.02,213.279976 53.02,218.016 C53.02,222.784024 53.6839934,227.047981 55.012,230.808 C56.3400066,234.568019 58.2119879,237.759987 60.628,240.384 C63.0440121,243.008013 65.9239833,245.007993 69.268,246.384 C72.6120167,247.760007 76.2999798,248.448 80.332,248.448 C84.4280205,248.448 88.1559832,247.760007 91.516,246.384 C94.8760168,245.007993 97.7479881,243.008013 100.132,240.384 C102.516012,237.759987 104.363993,234.568019 105.676,230.808 C106.988007,227.047981 107.644,222.784024 107.644,218.016 Z M130.052,224.64 L130.052,252 L125.156,252 L125.156,184.08 L142.676,184.08 C150.64404,184.08 156.65198,185.823983 160.7,189.312 C164.74802,192.800017 166.772,197.775968 166.772,204.24 C166.772,207.216015 166.220006,209.951988 165.116,212.448 C164.011994,214.944012 162.42001,217.095991 160.34,218.904 C158.25999,220.712009 155.732015,222.119995 152.756,223.128 C149.779985,224.136005 146.420019,224.64 142.676,224.64 L130.052,224.64 Z M130.052,220.704 L142.676,220.704 C145.684015,220.704 148.371988,220.288004 150.74,219.456 C153.108012,218.623996 155.115992,217.472007 156.764,216 C158.412008,214.527993 159.675996,212.79201 160.556,210.792 C161.436004,208.79199 161.876,206.608012 161.876,204.24 C161.876,199.023974 160.268016,195.008014 157.052,192.192 C153.835984,189.375986 149.044032,187.968 142.676,187.968 L130.052,187.968 L130.052,220.704 Z M216.396,184.08 L216.396,188.16 L180.636,188.16 L180.636,215.616 L210.396,215.616 L210.396,219.6 L180.636,219.6 L180.636,247.92 L216.396,247.92 L216.396,252 L175.692,252 L175.692,184.08 L216.396,184.08 Z M229.828,184.08 C230.276002,184.08 230.627999,184.135999 230.884,184.248 C231.140001,184.360001 231.411999,184.607998 231.7,184.992 L275.668,243.84 C275.572,242.879995 275.524,241.952004 275.524,241.056 L275.524,184.08 L279.844,184.08 L279.844,252 L277.492,252 C276.755996,252 276.164002,251.680003 275.716,251.04 L231.556,192.096 C231.652,193.056005 231.7,193.967996 231.7,194.832 L231.7,252 L227.428,252 L227.428,184.08 L229.828,184.08 Z" id="OPEN" fill="#FFFFFF" sketch:type="MSShapeGroup"></path>
        <path d="M58.996,163.448 L74.596,163.448 L74.596,108.344 C74.596,107.255995 74.6439995,106.104006 74.74,104.888 L59.764,118.184 C59.4439984,118.472001 59.0600022,118.616 58.612,118.616 C58.0679973,118.616 57.6520014,118.424002 57.364,118.04 L55.972,116.12 L75.604,98.792 L79.156,98.792 L79.156,163.448 L93.988,163.448 L93.988,167 L58.996,167 L58.996,163.448 Z M152.02,133.016 C152.02,138.96803 151.380006,144.119978 150.1,148.472 C148.819994,152.824022 147.076011,156.423986 144.868,159.272 C142.659989,162.120014 140.076015,164.239993 137.116,165.632 C134.155985,167.024007 130.996017,167.72 127.636,167.72 C124.275983,167.72 121.124015,167.024007 118.18,165.632 C115.235985,164.239993 112.660011,162.120014 110.452,159.272 C108.243989,156.423986 106.508006,152.824022 105.244,148.472 C103.979994,144.119978 103.348,138.96803 103.348,133.016 C103.348,127.06397 103.979994,121.912022 105.244,117.56 C106.508006,113.207978 108.243989,109.608014 110.452,106.76 C112.660011,103.911986 115.235985,101.792007 118.18,100.4 C121.124015,99.007993 124.275983,98.312 127.636,98.312 C130.996017,98.312 134.155985,99.007993 137.116,100.4 C140.076015,101.792007 142.659989,103.911986 144.868,106.76 C147.076011,109.608014 148.819994,113.207978 150.1,117.56 C151.380006,121.912022 152.02,127.06397 152.02,133.016 Z M147.22,133.016 C147.22,127.511972 146.692005,122.80802 145.636,118.904 C144.579995,114.99998 143.164009,111.808012 141.388,109.328 C139.611991,106.847988 137.532012,105.032006 135.148,103.88 C132.763988,102.727994 130.260013,102.152 127.636,102.152 C125.011987,102.152 122.516012,102.727994 120.148,103.88 C117.779988,105.032006 115.700009,106.847988 113.908,109.328 C112.115991,111.808012 110.692005,114.99998 109.636,118.904 C108.579995,122.80802 108.052,127.511972 108.052,133.016 C108.052,138.552028 108.579995,143.263981 109.636,147.152 C110.692005,151.040019 112.115991,154.223988 113.908,156.704 C115.700009,159.184012 117.779988,160.991994 120.148,162.128 C122.516012,163.264006 125.011987,163.832 127.636,163.832 C130.260013,163.832 132.763988,163.264006 135.148,162.128 C137.532012,160.991994 139.611991,159.184012 141.388,156.704 C143.164009,154.223988 144.579995,151.040019 145.636,147.152 C146.692005,143.263981 147.22,138.552028 147.22,133.016 Z M207.7,133.016 C207.7,138.96803 207.060006,144.119978 205.78,148.472 C204.499994,152.824022 202.756011,156.423986 200.548,159.272 C198.339989,162.120014 195.756015,164.239993 192.796,165.632 C189.835985,167.024007 186.676017,167.72 183.316,167.72 C179.955983,167.72 176.804015,167.024007 173.86,165.632 C170.915985,164.239993 168.340011,162.120014 166.132,159.272 C163.923989,156.423986 162.188006,152.824022 160.924,148.472 C159.659994,144.119978 159.028,138.96803 159.028,133.016 C159.028,127.06397 159.659994,121.912022 160.924,117.56 C162.188006,113.207978 163.923989,109.608014 166.132,106.76 C168.340011,103.911986 170.915985,101.792007 173.86,100.4 C176.804015,99.007993 179.955983,98.312 183.316,98.312 C186.676017,98.312 189.835985,99.007993 192.796,100.4 C195.756015,101.792007 198.339989,103.911986 200.548,106.76 C202.756011,109.608014 204.499994,113.207978 205.78,117.56 C207.060006,121.912022 207.7,127.06397 207.7,133.016 Z M202.9,133.016 C202.9,127.511972 202.372005,122.80802 201.316,118.904 C200.259995,114.99998 198.844009,111.808012 197.068,109.328 C195.291991,106.847988 193.212012,105.032006 190.828,103.88 C188.443988,102.727994 185.940013,102.152 183.316,102.152 C180.691987,102.152 178.196012,102.727994 175.828,103.88 C173.459988,105.032006 171.380009,106.847988 169.588,109.328 C167.795991,111.808012 166.372005,114.99998 165.316,118.904 C164.259995,122.80802 163.732,127.511972 163.732,133.016 C163.732,138.552028 164.259995,143.263981 165.316,147.152 C166.372005,151.040019 167.795991,154.223988 169.588,156.704 C171.380009,159.184012 173.459988,160.991994 175.828,162.128 C178.196012,163.264006 180.691987,163.832 183.316,163.832 C185.940013,163.832 188.443988,163.264006 190.828,162.128 C193.212012,160.991994 195.291991,159.184012 197.068,156.704 C198.844009,154.223988 200.259995,151.040019 201.316,147.152 C202.372005,143.263981 202.9,138.552028 202.9,133.016 Z M243.94,115.4 C243.94,118.184014 243.556004,120.639989 242.788,122.768 C242.019996,124.896011 240.980007,126.663993 239.668,128.072 C238.355993,129.480007 236.836009,130.543996 235.108,131.264 C233.379991,131.984004 231.55601,132.344 229.636,132.344 C227.65199,132.344 225.788009,131.984004 224.044,131.264 C222.299991,130.543996 220.788006,129.480007 219.508,128.072 C218.227994,126.663993 217.220004,124.896011 216.484,122.768 C215.747996,120.639989 215.38,118.184014 215.38,115.4 C215.38,112.583986 215.747996,110.104011 216.484,107.96 C217.220004,105.815989 218.227994,104.032007 219.508,102.608 C220.788006,101.183993 222.299991,100.112004 224.044,99.392 C225.788009,98.6719964 227.65199,98.312 229.636,98.312 C231.62001,98.312 233.475991,98.6719964 235.204,99.392 C236.932009,100.112004 238.443994,101.183993 239.74,102.608 C241.036006,104.032007 242.059996,105.815989 242.812,107.96 C243.564004,110.104011 243.94,112.583986 243.94,115.4 Z M240.292,115.4 C240.292,112.935988 240.012003,110.824009 239.452,109.064 C238.891997,107.303991 238.124005,105.856006 237.148,104.72 C236.171995,103.583994 235.036006,102.752003 233.74,102.224 C232.443994,101.695997 231.076007,101.432 229.636,101.432 C228.195993,101.432 226.836006,101.695997 225.556,102.224 C224.275994,102.752003 223.156005,103.583994 222.196,104.72 C221.235995,105.856006 220.476003,107.303991 219.916,109.064 C219.355997,110.824009 219.076,112.935988 219.076,115.4 C219.076,117.864012 219.355997,119.967991 219.916,121.712 C220.476003,123.456009 221.235995,124.887994 222.196,126.008 C223.156005,127.128006 224.275994,127.951997 225.556,128.48 C226.836006,129.008003 228.195993,129.272 229.636,129.272 C231.076007,129.272 232.443994,129.008003 233.74,128.48 C235.036006,127.951997 236.171995,127.128006 237.148,126.008 C238.124005,124.887994 238.891997,123.456009 239.452,121.712 C240.012003,119.967991 240.292,117.864012 240.292,115.4 Z M269.716,99.944 C269.908001,99.6879987 270.139999,99.4800008 270.412,99.32 C270.684001,99.1599992 271.043998,99.08 271.492,99.08 L274.708,99.08 L225.94,166.136 C225.523998,166.712003 224.964004,167 224.26,167 L220.996,167 L269.716,99.944 Z M280.612,150.872 C280.612,153.656014 280.228004,156.111989 279.46,158.24 C278.691996,160.368011 277.660006,162.135993 276.364,163.544 C275.067994,164.952007 273.556009,166.015996 271.828,166.736 C270.099991,167.456004 268.27601,167.816 266.356,167.816 C264.37199,167.816 262.508009,167.456004 260.764,166.736 C259.019991,166.015996 257.508006,164.952007 256.228,163.544 C254.947994,162.135993 253.940004,160.368011 253.204,158.24 C252.467996,156.111989 252.1,153.656014 252.1,150.872 C252.1,148.055986 252.467996,145.576011 253.204,143.432 C253.940004,141.287989 254.947994,139.504007 256.228,138.08 C257.508006,136.655993 259.019991,135.584004 260.764,134.864 C262.508009,134.143996 264.37199,133.784 266.356,133.784 C268.34001,133.784 270.195991,134.143996 271.924,134.864 C273.652009,135.584004 275.163994,136.655993 276.46,138.08 C277.756006,139.504007 278.771996,141.287989 279.508,143.432 C280.244004,145.576011 280.612,148.055986 280.612,150.872 Z M276.964,150.872 C276.964,148.407988 276.684003,146.288009 276.124,144.512 C275.563997,142.735991 274.804005,141.280006 273.844,140.144 C272.883995,139.007994 271.756006,138.176003 270.46,137.648 C269.163994,137.119997 267.796007,136.856 266.356,136.856 C264.915993,136.856 263.548006,137.119997 262.252,137.648 C260.955994,138.176003 259.828005,139.007994 258.868,140.144 C257.907995,141.280006 257.148003,142.735991 256.588,144.512 C256.027997,146.288009 255.748,148.407988 255.748,150.872 C255.748,153.336012 256.027997,155.439991 256.588,157.184 C257.148003,158.928009 257.907995,160.359994 258.868,161.48 C259.828005,162.600006 260.955994,163.415997 262.252,163.928 C263.548006,164.440003 264.915993,164.696 266.356,164.696 C267.796007,164.696 269.163994,164.440003 270.46,163.928 C271.756006,163.415997 272.883995,162.600006 273.844,161.48 C274.804005,160.359994 275.563997,158.928009 276.124,157.184 C276.684003,155.439991 276.964,153.336012 276.964,150.872 Z" id="100%" fill="#FFFFFF" sketch:type="MSShapeGroup"></path>
        <path d="M165,336 C253.917849,336 326,263.917849 326,175 C326,86.0821509 253.917849,14 165,14 C76.0821509,14 4,86.0821509 4,175 C4,263.917849 76.0821509,336 165,336 Z" id="Oval-1" stroke="#000000" stroke-width="8" fill-opacity="0.0198759194" fill="#3B67B0" sketch:type="MSShapeGroup"></path>
    </g>
</svg>