<?xml version="1.0" encoding="UTF-8" standalone="no"?>
<svg width="290px" height="328px" viewBox="0 0 290 328" version="1.1" xmlns="http://www.w3.org/2000/svg" xmlns:xlink="http://www.w3.org/1999/xlink" xmlns:sketch="http://www.bohemiancoding.com/sketch/ns">
    <title>osod-guide</title>
    <description>Created with Sketch (http://www.bohemiancoding.com/sketch)</description>
    <defs></defs>
    <g id="Page-1" stroke="none" stroke-width="1" fill="none" fill-rule="evenodd" sketch:type="MSPage">
        <rect id="Rectangle-1" fill="#000000" sketch:type="MSShapeGroup" x="-1" y="0" width="291" height="328"></rect>
        <rect id="Rectangle-1" opacity="0.25" fill="#FFFFFF" sketch:type="MSShapeGroup" x="-21" y="256" width="77" height="72"></rect>
        <rect id="Rectangle-1" opacity="0.35" fill="#FFFFFF" sketch:type="MSShapeGroup" x="57" y="221" width="77" height="107"></rect>
        <rect id="Rectangle-1" opacity="0.45" fill="#FFFFFF" sketch:type="MSShapeGroup" x="135" y="180" width="77" height="148"></rect>
        <rect id="Rectangle-1" opacity="0.7" fill="#FFFFFF" sketch:type="MSShapeGroup" x="213" y="0" width="77" height="328"></rect>
        <g id="Group" sketch:type="MSLayerGroup" transform="translate(136.000000, 261.000000)">
            <path d="M32.2256098,37.5 L142.954731,37.5" id="Line" stroke="#FFFFFF" stroke-linecap="square" sketch:type="MSShapeGroup"></path>
            <path d="M59.945197,14.5678281 C59.945197,16.8405159 59.6056847,18.9018404 58.92665,20.7518637 C58.2476152,22.601887 57.2914378,24.1816584 56.0580889,25.4912255 C54.8247401,26.8007925 53.3489009,27.8124006 51.6305273,28.5260799 C49.9121536,29.2397593 48.0067275,29.5965937 45.9141918,29.5965937 C43.8493718,29.5965937 41.9578034,29.2397593 40.2394297,28.5260799 C38.521056,27.8124006 37.0452169,26.8007925 35.811868,25.4912255 C34.5785192,24.1816584 33.6188773,22.601887 32.9329136,20.7518637 C32.24695,18.9018404 31.9039733,16.8405159 31.9039733,14.5678281 C31.9039733,12.3089982 32.24695,10.2546024 32.9329136,8.40457913 C33.6188773,6.55455586 34.5785192,4.9747844 35.811868,3.66521737 C37.0452169,2.35565033 38.521056,1.34057788 40.2394297,0.619969569 C41.9578034,-0.100638747 43.8493718,-0.4609375 45.9141918,-0.4609375 C48.0067275,-0.4609375 49.9121536,-0.104103158 51.6305273,0.609576231 C53.3489009,1.32325562 54.8247401,2.33832807 56.0580889,3.65482403 C57.2914378,4.97131999 58.2476152,6.55455586 58.92665,8.40457913 C59.6056847,10.2546024 59.945197,12.3089982 59.945197,14.5678281 Z M57.7418095,14.5678281 C57.7418095,12.516866 57.4577278,10.6737993 56.8895559,9.0385727 C56.3213839,7.40334614 55.521105,6.0175817 54.488695,4.88123782 C53.456285,3.74489394 52.2125614,2.87532675 50.7574869,2.27251018 C49.3024125,1.66969361 47.6879969,1.36828985 45.9141918,1.36828985 C44.1681024,1.36828985 42.5710089,1.66969361 41.1228634,2.27251018 C39.6747178,2.87532675 38.4275298,3.74489394 37.381262,4.88123782 C36.3349941,6.0175817 35.5243219,7.40334614 34.9492211,9.0385727 C34.3741202,10.6737993 34.0865741,12.516866 34.0865741,14.5678281 C34.0865741,16.6326481 34.3741202,18.4791792 34.9492211,20.1074768 C35.5243219,21.7357745 36.3349941,23.1180745 37.381262,24.2544184 C38.4275298,25.3907622 39.6747178,26.256865 41.1228634,26.8527527 C42.5710089,27.4486403 44.1681024,27.7465797 45.9141918,27.7465797 C47.6879969,27.7465797 49.3024125,27.4486403 50.7574869,26.8527527 C52.2125614,26.256865 53.456285,25.3907622 54.488695,24.2544184 C55.521105,23.1180745 56.3213839,21.7357745 56.8895559,20.1074768 C57.4577278,18.4791792 57.7418095,16.6326481 57.7418095,14.5678281 Z M79.6844038,3.44695729 C79.5596832,3.68254077 79.3795338,3.80033075 79.1439503,3.80033075 C78.9637982,3.80033075 78.7316827,3.67214754 78.4475967,3.41577727 C78.1635107,3.15940701 77.7789611,2.8753253 77.2939363,2.56352362 C76.8089114,2.25172195 76.2026395,1.96417583 75.4751023,1.70087664 C74.747565,1.43757745 73.8502825,1.30592982 72.7832279,1.30592982 C71.7161733,1.30592982 70.7773179,1.45836391 69.9666335,1.76323666 C69.1559492,2.06810941 68.4769246,2.48383874 67.9295395,3.01043712 C67.3821543,3.53703551 66.966425,4.14677186 66.682339,4.83966447 C66.398253,5.53255708 66.2562122,6.26008341 66.2562122,7.02226528 C66.2562122,8.02003064 66.4675412,8.84456048 66.8902057,9.49587954 C67.3128702,10.1471986 67.8706404,10.7015044 68.563533,11.1588135 C69.2564256,11.6161226 70.0428469,12.0006722 70.9228206,12.3124739 C71.8027942,12.6242756 72.7070055,12.9326082 73.6354816,13.2374809 C74.5639577,13.5423537 75.468169,13.8784016 76.3481426,14.2456346 C77.2281162,14.6128677 78.0145375,15.0736344 78.7074301,15.6279485 C79.4003227,16.1822626 79.9580929,16.8647516 80.3807574,17.6754359 C80.8034219,18.4861203 81.014751,19.4942639 81.014751,20.699897 C81.014751,21.9332459 80.8034219,23.0938236 80.3807574,24.181665 C79.9580929,25.2695064 79.3448922,26.2152906 78.5411367,27.0190461 C77.7373813,27.8228015 76.7534886,28.4567887 75.589429,28.9210268 C74.4253694,29.3852648 73.0950355,29.6173804 71.5983875,29.6173804 C69.6582882,29.6173804 67.988442,29.2744037 66.588799,28.58844 C65.1891559,27.9024763 63.9627544,26.9636209 62.9095576,25.7718456 L63.4915845,24.8572319 C63.6578787,24.6493641 63.8518857,24.5454318 64.0736114,24.5454318 C64.198332,24.5454318 64.3576949,24.6285777 64.5517049,24.7948719 C64.7457148,24.9611661 64.9812947,25.1655664 65.2584518,25.4080788 C65.5356088,25.6505912 65.8681923,25.9138864 66.2562122,26.1979724 C66.644232,26.4820584 67.0946055,26.7453536 67.607346,26.987866 C68.1200865,27.2303785 68.7090364,27.4347787 69.3742133,27.6010729 C70.0393902,27.7673672 70.7946318,27.850513 71.6399608,27.850513 C72.8040204,27.850513 73.8433437,27.6738281 74.757962,27.3204528 C75.6725802,26.9670776 76.4451439,26.4855245 77.0756762,25.875779 C77.7062085,25.2660335 78.1877616,24.5419715 78.5203501,23.7035715 C78.8529385,22.8651714 79.0192302,21.967889 79.0192302,21.0116972 C79.0192302,19.9723582 78.8079012,19.1166487 78.3852367,18.4445429 C77.9625722,17.772437 77.404802,17.2112024 76.7119094,16.7608222 C76.0190168,16.310442 75.2325955,15.9328212 74.3526218,15.6279485 C73.4726482,15.3230757 72.5684369,15.0251364 71.6399608,14.7341215 C70.7114847,14.4431066 69.8072734,14.1174519 68.9272998,13.7571478 C68.0473262,13.3968436 67.2609049,12.936077 66.5680123,12.3748339 C65.8751197,11.8135909 65.3173495,11.1137799 64.894685,10.2753798 C64.4720205,9.43697977 64.2606914,8.38726321 64.2606914,7.12619865 C64.2606914,6.14229115 64.4477696,5.19304251 64.8219316,4.27842426 C65.1960936,3.36380602 65.7434706,2.55659823 66.4640789,1.8567767 C67.1846872,1.15695516 68.0750409,0.595720562 69.1351666,0.173056069 C70.1952923,-0.249608424 71.4043717,-0.4609375 72.7624412,-0.4609375 C74.286805,-0.4609375 75.6552474,-0.218428724 76.8678094,0.266596104 C78.0803715,0.751620932 79.1855186,1.4930049 80.183284,2.49077026 L79.6844038,3.44695729 Z M112.020335,14.5678281 C112.020335,16.8405159 111.680823,18.9018404 111.001788,20.7518637 C110.322754,22.601887 109.366576,24.1816584 108.133227,25.4912255 C106.899878,26.8007925 105.424039,27.8124006 103.705666,28.5260799 C101.987292,29.2397593 100.081866,29.5965937 97.9893301,29.5965937 C95.9245101,29.5965937 94.0329417,29.2397593 92.314568,28.5260799 C90.5961943,27.8124006 89.1203552,26.8007925 87.8870063,25.4912255 C86.6536575,24.1816584 85.6940156,22.601887 85.0080519,20.7518637 C84.3220882,18.9018404 83.9791116,16.8405159 83.9791116,14.5678281 C83.9791116,12.3089982 84.3220882,10.2546024 85.0080519,8.40457913 C85.6940156,6.55455586 86.6536575,4.9747844 87.8870063,3.66521737 C89.1203552,2.35565033 90.5961943,1.34057788 92.314568,0.619969569 C94.0329417,-0.100638747 95.9245101,-0.4609375 97.9893301,-0.4609375 C100.081866,-0.4609375 101.987292,-0.104103158 103.705666,0.609576231 C105.424039,1.32325562 106.899878,2.33832807 108.133227,3.65482403 C109.366576,4.97131999 110.322754,6.55455586 111.001788,8.40457913 C111.680823,10.2546024 112.020335,12.3089982 112.020335,14.5678281 Z M109.816948,14.5678281 C109.816948,12.516866 109.532866,10.6737993 108.964694,9.0385727 C108.396522,7.40334614 107.596243,6.0175817 106.563833,4.88123782 C105.531423,3.74489394 104.2877,2.87532675 102.832625,2.27251018 C101.377551,1.66969361 99.7631352,1.36828985 97.9893301,1.36828985 C96.2432407,1.36828985 94.6461472,1.66969361 93.1980016,2.27251018 C91.7498561,2.87532675 90.5026681,3.74489394 89.4564003,4.88123782 C88.4101324,6.0175817 87.5994602,7.40334614 87.0243593,9.0385727 C86.4492585,10.6737993 86.1617124,12.516866 86.1617124,14.5678281 C86.1617124,16.6326481 86.4492585,18.4791792 87.0243593,20.1074768 C87.5994602,21.7357745 88.4101324,23.1180745 89.4564003,24.2544184 C90.5026681,25.3907622 91.7498561,26.256865 93.1980016,26.8527527 C94.6461472,27.4486403 96.2432407,27.7465797 97.9893301,27.7465797 C99.7631352,27.7465797 101.377551,27.4486403 102.832625,26.8527527 C104.2877,26.256865 105.531423,25.3907622 106.563833,24.2544184 C107.596243,23.1180745 108.396522,21.7357745 108.964694,20.1074768 C109.532866,18.4791792 109.816948,16.6326481 109.816948,14.5678281 Z M142.298386,14.5678281 C142.298386,16.8405159 141.958874,18.8845184 141.279839,20.699897 C140.600804,22.5152757 139.644627,24.060403 138.411278,25.3353254 C137.177929,26.6102478 135.70209,27.5872118 133.983716,28.2662465 C132.265343,28.9452813 130.359917,29.2847936 128.267381,29.2847936 L117.541457,29.2847936 L117.541457,-0.12835071 L128.267381,-0.12835071 C130.359917,-0.12835071 132.265343,0.211161577 133.983716,0.890196336 C135.70209,1.56923109 137.177929,2.54619502 138.411278,3.82111743 C139.644627,5.09603983 140.600804,6.64116718 141.279839,8.45654582 C141.958874,10.2719245 142.298386,12.3089982 142.298386,14.5678281 Z M140.094999,14.5678281 C140.094999,12.516866 139.810917,10.6876569 139.242745,9.08014605 C138.674573,7.47263519 137.874294,6.11458604 136.841884,5.00595787 C135.809474,3.89732969 134.56575,3.05201338 133.110676,2.46998359 C131.655601,1.8879538 130.041186,1.59694327 128.267381,1.59694327 L119.682484,1.59694327 L119.682484,27.5594996 L128.267381,27.5594996 C130.041186,27.5594996 131.655601,27.2684891 133.110676,26.6864593 C134.56575,26.1044295 135.809474,25.2591132 136.841884,24.150485 C137.874294,23.0418568 138.674573,21.6838077 139.242745,20.0762968 C139.810917,18.4687859 140.094999,16.6326481 140.094999,14.5678281 Z" id="OSOD" fill="#FFFFFF" sketch:type="MSShapeGroup"></path>
            <path d="M38.7671909,48.6480326 C38.7671909,49.2409077 38.6786225,49.7786446 38.501483,50.2612593 C38.3243435,50.7438741 38.0749059,51.1559884 37.7531627,51.4976146 C37.4314195,51.8392408 37.046418,52.1031385 36.5981466,52.2893157 C36.1498752,52.475493 35.6528075,52.5685802 35.1069287,52.5685802 C34.56828,52.5685802 34.0748273,52.475493 33.6265559,52.2893157 C33.1782845,52.1031385 32.793283,51.8392408 32.4715398,51.4976146 C32.1497967,51.1559884 31.8994553,50.7438741 31.7205083,50.2612593 C31.5415612,49.7786446 31.452089,49.2409077 31.452089,48.6480326 C31.452089,48.0587727 31.5415612,47.5228433 31.7205083,47.0402286 C31.8994553,46.5576138 32.1497967,46.1454995 32.4715398,45.8038733 C32.793283,45.4622471 33.1782845,45.1974456 33.6265559,45.0094609 C34.0748273,44.8214761 34.56828,44.7274851 35.1069287,44.7274851 C35.6528075,44.7274851 36.1498752,44.8205723 36.5981466,45.0067496 C37.046418,45.1929268 37.4314195,45.4577283 37.7531627,45.801162 C38.0749059,46.1445958 38.3243435,46.5576138 38.501483,47.0402286 C38.6786225,47.5228433 38.7671909,48.0587727 38.7671909,48.6480326 Z M38.1923941,48.6480326 C38.1923941,48.112999 38.1182859,47.632199 37.9700671,47.2056182 C37.8218483,46.7790374 37.6130799,46.4175336 37.3437556,46.1210961 C37.0744312,45.8246585 36.7499816,45.5978149 36.3703969,45.4405584 C35.9908123,45.2833019 35.5696604,45.2046748 35.1069287,45.2046748 C34.6514271,45.2046748 34.234794,45.2833019 33.8570169,45.4405584 C33.4792398,45.5978149 33.1538864,45.8246585 32.880947,46.1210961 C32.6080075,46.4175336 32.3965278,46.7790374 32.2465015,47.2056182 C32.0964752,47.632199 32.0214632,48.112999 32.0214632,48.6480326 C32.0214632,49.1866813 32.0964752,49.6683851 32.2465015,50.0931584 C32.3965278,50.5179317 32.6080075,50.8785317 32.880947,51.1749692 C33.1538864,51.4714068 33.4792398,51.6973466 33.8570169,51.8527956 C34.234794,52.0082445 34.6514271,52.0859678 35.1069287,52.0859678 C35.5696604,52.0859678 35.9908123,52.0082445 36.3703969,51.8527956 C36.7499816,51.6973466 37.0744312,51.4714068 37.3437556,51.1749692 C37.6130799,50.8785317 37.8218483,50.5179317 37.9700671,50.0931584 C38.1182859,49.6683851 38.1923941,49.1866813 38.1923941,48.6480326 Z M40.3126349,54.396 L40.3126349,47.0917434 L40.5946107,47.0917434 C40.6416069,47.0917434 40.6795648,47.1016847 40.7084855,47.1215677 C40.7374063,47.1414507 40.7536739,47.1766974 40.757289,47.2273086 L40.8060925,48.0623907 C41.0446886,47.7370324 41.3239502,47.4785572 41.6438859,47.2869574 C41.9638215,47.0953575 42.322614,46.999559 42.7202741,46.999559 C43.385451,46.999559 43.9024014,47.2291139 44.2711408,47.6882305 C44.6398801,48.1473472 44.824247,48.8360119 44.824247,49.7542452 C44.824247,50.1482902 44.7727328,50.5161203 44.6697026,50.8577465 C44.5666725,51.1993727 44.4157447,51.4958058 44.2169146,51.7470547 C44.0180846,51.9983036 43.7731658,52.1962269 43.4821509,52.3408305 C43.191136,52.4854342 42.8558413,52.557735 42.4762566,52.557735 C42.1075172,52.557735 41.7893939,52.4908568 41.5218771,52.3570984 C41.2543603,52.22334 41.0229979,52.0245129 40.827783,51.7606112 L40.827783,54.396 L40.3126349,54.396 Z M42.5738636,47.4171 C42.2159695,47.4171 41.8915199,47.5101872 41.600505,47.6963645 C41.3094901,47.8825417 41.0519187,48.1419206 40.827783,48.4745091 L40.827783,51.3051119 C41.0338432,51.6160098 41.2624943,51.8347196 41.5137432,51.9612478 C41.7649921,52.087776 42.0514838,52.1510392 42.373227,52.1510392 C42.6913551,52.1510392 42.969713,52.0931986 43.2083091,51.9775156 C43.4469051,51.8618327 43.646636,51.6982522 43.8075075,51.4867694 C43.9683791,51.2752865 44.0894829,51.0222338 44.1708225,50.7276039 C44.252162,50.4329739 44.2928312,50.1085242 44.2928312,49.7542452 C44.2928312,48.9516948 44.1455184,48.3615399 43.8508884,47.9837628 C43.5562584,47.6059857 43.1305878,47.4171 42.5738636,47.4171 Z M48.1483074,47.0049816 C48.4519751,47.0049816 48.7330443,47.0573996 48.9915234,47.1622373 C49.2500025,47.267075 49.4741348,47.4198103 49.6639271,47.6204479 C49.8537194,47.8210855 50.001936,48.0678118 50.1085812,48.3606343 C50.2152264,48.6534567 50.2685482,48.9896552 50.2685482,49.3692399 C50.2685482,49.4487719 50.2567993,49.5029975 50.2333012,49.5319182 C50.2098031,49.5608389 50.172749,49.5752991 50.1221377,49.5752991 L46.2232806,49.5752991 L46.2232806,49.6783287 C46.2232806,50.083219 46.2702761,50.4393002 46.3642685,50.746583 C46.4582609,51.0538658 46.5920173,51.3114372 46.7655417,51.519305 C46.9390661,51.7271728 47.1487383,51.8835232 47.3945645,51.9883608 C47.6403908,52.0931985 47.9151336,52.1456166 48.2188014,52.1456166 C48.4899332,52.1456166 48.7249107,52.1157925 48.9237407,52.0561435 C49.1225708,51.9964945 49.2897663,51.9296163 49.4253322,51.8555069 C49.5608982,51.7813975 49.6684456,51.7145193 49.7479776,51.6548703 C49.8275096,51.5952213 49.8853502,51.5653972 49.9215011,51.5653972 C49.9684973,51.5653972 50.0046477,51.5834724 50.0299533,51.6196233 L50.1709412,51.7931469 C50.084179,51.9015996 49.9694016,52.0028207 49.8266054,52.0968131 C49.6838093,52.1908054 49.5247476,52.27124 49.3494157,52.3381192 C49.1740837,52.4049984 48.9861018,52.4583202 48.7854642,52.4980863 C48.5848266,52.5378523 48.3832882,52.557735 48.1808431,52.557735 C47.8121037,52.557735 47.4759052,52.4935681 47.1722375,52.3652323 C46.8685698,52.2368965 46.6082871,52.0498183 46.3913815,51.8039921 C46.174476,51.5581658 46.0072805,51.2572139 45.8897901,50.9011274 C45.7722996,50.5450408 45.7135552,50.1374453 45.7135552,49.6783287 C45.7135552,49.2915138 45.7686845,48.9345289 45.8789448,48.6073631 C45.9892051,48.2801972 46.1482668,47.9982243 46.3561346,47.7614358 C46.5640024,47.5246473 46.8188625,47.3393766 47.1207227,47.2056182 C47.4225829,47.0718598 47.7651077,47.0049816 48.1483074,47.0049816 Z M48.15373,47.389987 C47.875368,47.389987 47.6259304,47.4333674 47.4054097,47.5201296 C47.1848891,47.6068918 46.9941959,47.7316106 46.8333243,47.8942898 C46.6724527,48.0569689 46.5423114,48.2521809 46.4428963,48.4799317 C46.3434813,48.7076825 46.2775069,48.9625427 46.2449711,49.2445198 L49.8022037,49.2445198 C49.8022037,48.9553125 49.7624383,48.6959335 49.6829062,48.4663752 C49.6033742,48.2368169 49.4913081,48.0425086 49.3467044,47.8834445 C49.2021007,47.7243805 49.0285789,47.602373 48.8261338,47.5174183 C48.6236886,47.4324637 48.3995563,47.389987 48.15373,47.389987 Z M51.6567365,52.487241 L51.6567365,47.0917434 L51.9387123,47.0917434 C52.0327047,47.0917434 52.0869303,47.1369313 52.1013906,47.2273086 L52.1501941,48.0407002 C52.3960204,47.7298023 52.6825121,47.479461 53.0096779,47.2896687 C53.3368437,47.0998763 53.7010588,47.0049816 54.102334,47.0049816 C54.3987715,47.0049816 54.659958,47.0519771 54.8859012,47.1459695 C55.1118445,47.2399619 55.2989227,47.3755258 55.4471414,47.5526653 C55.5953602,47.7298048 55.7074264,47.943092 55.7833433,48.1925333 C55.8592602,48.4419747 55.8972181,48.7239476 55.8972181,49.0384606 L55.8972181,52.487241 L55.3820701,52.487241 L55.3820701,49.0384606 C55.3820701,48.5323478 55.2663889,48.1355974 55.035023,47.8481976 C54.8036571,47.5607978 54.4493834,47.4171 53.9721913,47.4171 C53.6179123,47.4171 53.2889439,47.5083797 52.9852762,47.6909419 C52.6816085,47.873504 52.4104806,48.1238454 52.1718846,48.4419734 L52.1718846,52.487241 L51.6567365,52.487241 Z M63.5864801,45.7469359 C63.5539443,45.8083925 63.5069488,45.8391203 63.4454922,45.8391203 C63.398496,45.8391203 63.3379442,45.8056812 63.2638348,45.738802 C63.1897254,45.6719228 63.0894081,45.5978145 62.9628799,45.516475 C62.8363517,45.4351354 62.6781938,45.3601234 62.4884014,45.2914366 C62.2986091,45.2227499 62.0645354,45.188407 61.7861734,45.188407 C61.5078113,45.188407 61.2628925,45.2281724 61.0514096,45.3077044 C60.8399267,45.3872365 60.6627899,45.4956876 60.5199938,45.6330611 C60.3771976,45.7704346 60.2687465,45.9294962 60.1946371,46.1102508 C60.1205277,46.2910054 60.0834736,46.4807949 60.0834736,46.679625 C60.0834736,46.9399116 60.1386029,47.1550063 60.2488632,47.3249156 C60.3591235,47.494825 60.5046288,47.6394265 60.6853834,47.7587245 C60.866138,47.8780225 61.0712914,47.9783398 61.3008497,48.0596794 C61.530408,48.141019 61.7662892,48.2214535 62.0085004,48.3009856 C62.2507116,48.3805176 62.4865928,48.4681822 62.7161511,48.5639822 C62.9457094,48.6597821 63.1508628,48.7799821 63.3316174,48.9245858 C63.512372,49.0691895 63.6578773,49.2472301 63.7681376,49.4587129 C63.8783979,49.6701958 63.9335272,49.9331898 63.9335272,50.2477028 C63.9335272,50.569446 63.8783979,50.8722054 63.7681376,51.1559901 C63.6578773,51.4397748 63.4979119,51.6865011 63.2882365,51.8961765 C63.0785612,52.1058518 62.8218935,52.2712398 62.5182258,52.3923453 C62.2145581,52.5134509 61.8675145,52.5740028 61.4770845,52.5740028 C60.9709717,52.5740028 60.5353596,52.4845306 60.1702354,52.3055836 C59.8051111,52.1266365 59.4851803,51.8817177 59.2104333,51.5708198 L59.3622664,51.3322249 C59.4056475,51.2779986 59.456258,51.2508858 59.5140995,51.2508858 C59.5466353,51.2508858 59.5882082,51.272576 59.6388195,51.3159571 C59.6894308,51.3593382 59.7508864,51.41266 59.8231883,51.4759241 C59.8954901,51.5391882 59.982251,51.607874 60.0834736,51.6819833 C60.1846962,51.7560927 60.3021849,51.8247784 60.4359433,51.8880425 C60.5697017,51.9513067 60.7233408,52.0046285 60.8968652,52.0480096 C61.0703896,52.0913907 61.2674092,52.1130809 61.4879298,52.1130809 C61.7915975,52.1130809 62.0627253,52.0669892 62.3013214,51.9748043 C62.5399174,51.8826195 62.7414558,51.7569969 62.9059425,51.5979329 C63.0704291,51.4388688 63.1960517,51.2499831 63.2828139,51.0312701 C63.3695761,50.812557 63.4129566,50.5784833 63.4129566,50.329042 C63.4129566,50.0579101 63.3578272,49.8346815 63.2475669,49.6593495 C63.1373066,49.4840176 62.9918014,49.3376086 62.8110468,49.2201181 C62.6302922,49.1026276 62.4251388,49.0041178 62.1955805,48.9245858 C61.9660221,48.8450538 61.7301409,48.7673305 61.4879298,48.6914135 C61.2457186,48.6154966 61.0098374,48.5305432 60.7802791,48.4365508 C60.5507207,48.3425584 60.3455673,48.2223584 60.1648128,48.0759472 C59.9840582,47.929536 59.8385529,47.7469766 59.7282926,47.5282635 C59.6180323,47.3095505 59.562903,47.0357114 59.562903,46.706738 C59.562903,46.4500665 59.611706,46.2024364 59.7093135,45.9638403 C59.8069209,45.7252443 59.9497149,45.5146683 60.1376997,45.3321062 C60.3256845,45.1495441 60.5579506,45.003135 60.8345052,44.8928747 C61.1110597,44.7826144 61.4264717,44.7274851 61.7807507,44.7274851 C62.1784109,44.7274851 62.5353958,44.7907483 62.8517164,44.9172765 C63.1680369,45.0438047 63.4563362,45.2372092 63.7166228,45.4974958 L63.5864801,45.7469359 Z M67.3389267,47.0049816 C67.7257416,47.0049816 68.0718814,47.070956 68.3773567,47.2029069 C68.6828319,47.3348577 68.9404034,47.5219359 69.1500787,47.7641471 C69.359754,48.0063583 69.5197194,48.2982725 69.6299798,48.6398987 C69.7402401,48.9815249 69.7953694,49.3638151 69.7953694,49.7867809 C69.7953694,50.2097466 69.7402401,50.5911331 69.6299798,50.9309518 C69.5197194,51.2707704 69.359754,51.5617809 69.1500787,51.8039921 C68.9404034,52.0462032 68.6828319,52.2323777 68.3773567,52.362521 C68.0718814,52.4926643 67.7257416,52.557735 67.3389267,52.557735 C66.9521119,52.557735 66.605972,52.4926643 66.3004968,52.362521 C65.9950215,52.2323777 65.7365463,52.0462032 65.5250634,51.8039921 C65.3135806,51.5617809 65.1527114,51.2707704 65.0424511,50.9309518 C64.9321908,50.5911331 64.8770615,50.2097466 64.8770615,49.7867809 C64.8770615,49.3638151 64.9321908,48.9815249 65.0424511,48.6398987 C65.1527114,48.2982725 65.3135806,48.0063583 65.5250634,47.7641471 C65.7365463,47.5219359 65.9950215,47.3348577 66.3004968,47.2029069 C66.605972,47.070956 66.9521119,47.0049816 67.3389267,47.0049816 Z M67.3389267,52.1510392 C67.6606699,52.1510392 67.9417391,52.0959098 68.1821427,51.9856495 C68.4225463,51.8753892 68.6231809,51.7172313 68.7840525,51.5111711 C68.9449241,51.3051109 69.0651241,51.056577 69.1446561,50.7655621 C69.2241881,50.4745472 69.2639535,50.1482901 69.2639535,49.7867809 C69.2639535,49.4288868 69.2241881,49.1035334 69.1446561,48.810711 C69.0651241,48.5178885 68.9449241,48.2675472 68.7840525,48.0596794 C68.6231809,47.8518116 68.4225463,47.6918462 68.1821427,47.5797783 C67.9417391,47.4677105 67.6606699,47.4116774 67.3389267,47.4116774 C67.0171835,47.4116774 66.7361144,47.4677105 66.4957108,47.5797783 C66.2553071,47.6918462 66.0546726,47.8518116 65.893801,48.0596794 C65.7329294,48.2675472 65.6118256,48.5178885 65.5304861,48.810711 C65.4491465,49.1035334 65.4084773,49.4288868 65.4084773,49.7867809 C65.4084773,50.1482901 65.4491465,50.4745472 65.5304861,50.7655621 C65.6118256,51.056577 65.7329294,51.3051109 65.893801,51.5111711 C66.0546726,51.7172313 66.2553071,51.8753892 66.4957108,51.9856495 C66.7361144,52.0959098 67.0171835,52.1510392 67.3389267,52.1510392 Z M71.5360274,47.0917434 L71.5360274,50.5405238 C71.5360274,51.0466366 71.6517086,51.443387 71.8830745,51.7307868 C72.1144404,52.0181866 72.4669066,52.1618844 72.9404836,52.1618844 C73.2911475,52.1618844 73.6183084,52.0724122 73.9219761,51.8934652 C74.2256438,51.7145181 74.4985792,51.4659843 74.7407903,51.1478562 L74.7407903,47.0917434 L75.261361,47.0917434 L75.261361,52.487241 L74.9739626,52.487241 C74.87274,52.487241 74.820322,52.4402455 74.8167069,52.3462532 L74.7679034,51.5437068 C74.5184621,51.8546047 74.2301628,52.1040423 73.902997,52.292027 C73.5758312,52.4800118 73.2116161,52.5740028 72.8103409,52.5740028 C72.5102883,52.5740028 72.2481981,52.5270073 72.0240624,52.4330149 C71.7999267,52.3390225 71.6137522,52.2034586 71.4655335,52.0263191 C71.3173147,51.8491796 71.2052485,51.6358924 71.1293316,51.3864511 C71.0534147,51.1370097 71.0154568,50.8550368 71.0154568,50.5405238 L71.0154568,47.0917434 L71.5360274,47.0917434 Z M77.0182868,52.487241 L77.0182868,47.0917434 L77.2894174,47.0917434 C77.3508739,47.0917434 77.3951582,47.104396 77.4222713,47.1297016 C77.4493845,47.1550073 77.4647484,47.1983877 77.4683635,47.2598443 L77.5117444,48.3985926 C77.6852688,47.9611664 77.9166312,47.6186416 78.2058386,47.3710078 C78.4950459,47.123374 78.8511272,46.999559 79.2740929,46.999559 C79.436772,46.999559 79.5867961,47.0167304 79.7241696,47.0510738 C79.8615431,47.0854172 79.9916844,47.1351239 80.1145976,47.2001956 L80.0441036,47.5580879 C80.0332583,47.6159294 79.997108,47.6448497 79.9356514,47.6448497 C79.9139609,47.6448497 79.883233,47.6376196 79.843467,47.6231592 C79.803701,47.6086989 79.7539942,47.5924312 79.6943452,47.5743557 C79.6346962,47.5562803 79.5614917,47.5400126 79.4747295,47.5255522 C79.3879673,47.5110919 79.2885538,47.5038618 79.1764859,47.5038618 C78.7679805,47.5038618 78.4326858,47.6303881 78.1705916,47.8834445 C77.9084975,48.136501 77.696114,48.5016198 77.5334349,48.9788119 L77.5334349,52.487241 L77.0182868,52.487241 Z M84.8756498,47.8129506 C84.8575743,47.8310261 84.8404029,47.84639 84.824135,47.8590428 C84.8078671,47.8716956 84.7852731,47.8780219 84.7563523,47.8780219 C84.7202014,47.8780219 84.6704946,47.8536204 84.6072305,47.8048167 C84.5439664,47.7560129 84.4599168,47.7026911 84.3550791,47.6448497 C84.2502415,47.5870082 84.1191964,47.5336864 83.9619399,47.4848826 C83.8046834,47.4360789 83.6139901,47.4116774 83.3898544,47.4116774 C83.0789565,47.4116774 82.8033099,47.4668067 82.5629063,47.577067 C82.3225027,47.6873273 82.1200606,47.8454852 81.9555739,48.0515455 C81.7910872,48.2576057 81.6654647,48.5070433 81.5787025,48.7998657 C81.4919403,49.0926882 81.4485598,49.4216566 81.4485598,49.7867809 C81.4485598,50.1663655 81.492844,50.502564 81.5814138,50.7953865 C81.6699835,51.0882089 81.7956061,51.3349352 81.9582852,51.5355728 C82.1209643,51.7362104 82.3179839,51.8889458 82.5493498,51.9937835 C82.7807157,52.0986211 83.0373833,52.1510392 83.3193605,52.1510392 C83.5796471,52.1510392 83.7974531,52.1203113 83.9727851,52.0588548 C84.148117,51.9973982 84.2927185,51.93052 84.4065939,51.8582182 C84.5204693,51.7859163 84.6108453,51.7190382 84.6777245,51.6575816 C84.7446037,51.596125 84.7979255,51.5653972 84.8376915,51.5653972 C84.8846877,51.5653972 84.9208381,51.5834724 84.9461437,51.6196233 L85.0871316,51.7931469 C85.0039845,51.9015996 84.8991484,52.0028207 84.7726202,52.0968131 C84.6460919,52.1908054 84.503298,52.2721438 84.3442339,52.3408305 C84.1851699,52.4095173 84.0125518,52.4628391 83.8263746,52.5007976 C83.6401974,52.538756 83.4458891,52.557735 83.2434439,52.557735 C82.9000102,52.557735 82.5864057,52.4953756 82.302621,52.3706549 C82.0188363,52.2459342 81.7748212,52.0651823 81.5705685,51.8283938 C81.3663158,51.5916053 81.2072542,51.3014985 81.0933788,50.9580648 C80.9795034,50.6146311 80.9225666,50.224207 80.9225666,49.7867809 C80.9225666,49.3746604 80.9767921,48.9986965 81.0852449,48.6588779 C81.1936976,48.3190592 81.3518555,48.0262412 81.5597233,47.7804149 C81.7675911,47.5345887 82.0224513,47.3438954 82.3243114,47.2083295 C82.6261716,47.0727636 82.9723115,47.0049816 83.3627414,47.0049816 C83.7134053,47.0049816 84.0252023,47.0610147 84.2981417,47.1730825 C84.5710812,47.2851504 84.8087699,47.436982 85.011215,47.6285818 L84.8756498,47.8129506 Z M88.2918945,47.0049816 C88.5955622,47.0049816 88.8766314,47.0573996 89.1351105,47.1622373 C89.3935896,47.267075 89.6177219,47.4198103 89.8075142,47.6204479 C89.9973065,47.8210855 90.1455231,48.0678118 90.2521683,48.3606343 C90.3588135,48.6534567 90.4121353,48.9896552 90.4121353,49.3692399 C90.4121353,49.4487719 90.4003864,49.5029975 90.3768883,49.5319182 C90.3533902,49.5608389 90.3163361,49.5752991 90.2657248,49.5752991 L86.3668677,49.5752991 L86.3668677,49.6783287 C86.3668677,50.083219 86.4138632,50.4393002 86.5078556,50.746583 C86.601848,51.0538658 86.7356044,51.3114372 86.9091288,51.519305 C87.0826532,51.7271728 87.2923254,51.8835232 87.5381516,51.9883608 C87.7839779,52.0931985 88.0587207,52.1456166 88.3623885,52.1456166 C88.6335203,52.1456166 88.8684978,52.1157925 89.0673278,52.0561435 C89.2661579,51.9964945 89.4333534,51.9296163 89.5689193,51.8555069 C89.7044853,51.7813975 89.8120327,51.7145193 89.8915647,51.6548703 C89.9710967,51.5952213 90.0289373,51.5653972 90.0650882,51.5653972 C90.1120844,51.5653972 90.1482348,51.5834724 90.1735404,51.6196233 L90.3145283,51.7931469 C90.2277661,51.9015996 90.1129887,52.0028207 89.9701925,52.0968131 C89.8273964,52.1908054 89.6683347,52.27124 89.4930028,52.3381192 C89.3176708,52.4049984 89.1296889,52.4583202 88.9290513,52.4980863 C88.7284137,52.5378523 88.5268753,52.557735 88.3244302,52.557735 C87.9556908,52.557735 87.6194923,52.4935681 87.3158246,52.3652323 C87.0121569,52.2368965 86.7518742,52.0498183 86.5349686,51.8039921 C86.3180631,51.5581658 86.1508676,51.2572139 86.0333772,50.9011274 C85.9158867,50.5450408 85.8571423,50.1374453 85.8571423,49.6783287 C85.8571423,49.2915138 85.9122716,48.9345289 86.0225319,48.6073631 C86.1327922,48.2801972 86.2918539,47.9982243 86.4997217,47.7614358 C86.7075895,47.5246473 86.9624496,47.3393766 87.2643098,47.2056182 C87.56617,47.0718598 87.9086948,47.0049816 88.2918945,47.0049816 Z M88.2973171,47.389987 C88.0189551,47.389987 87.7695175,47.4333674 87.5489968,47.5201296 C87.3284762,47.6068918 87.137783,47.7316106 86.9769114,47.8942898 C86.8160398,48.0569689 86.6858985,48.2521809 86.5864834,48.4799317 C86.4870684,48.7076825 86.421094,48.9625427 86.3885582,49.2445198 L89.9457908,49.2445198 C89.9457908,48.9553125 89.9060254,48.6959335 89.8264933,48.4663752 C89.7469613,48.2368169 89.6348952,48.0425086 89.4902915,47.8834445 C89.3456878,47.7243805 89.172166,47.602373 88.9697209,47.5174183 C88.7672757,47.4324637 88.5431434,47.389987 88.2973171,47.389987 Z M100.997071,48.6480326 C100.997071,49.2409077 100.908503,49.7786446 100.731363,50.2612593 C100.554224,50.7438741 100.304786,51.1559884 99.9830432,51.4976146 C99.6613,51.8392408 99.2762985,52.1031385 98.8280271,52.2893157 C98.3797557,52.475493 97.8826881,52.5685802 97.3368092,52.5685802 C96.7981605,52.5685802 96.3047079,52.475493 95.8564365,52.2893157 C95.4081651,52.1031385 95.0231636,51.8392408 94.7014204,51.4976146 C94.3796772,51.1559884 94.1293358,50.7438741 93.9503888,50.2612593 C93.7714417,49.7786446 93.6819696,49.2409077 93.6819696,48.6480326 C93.6819696,48.0587727 93.7714417,47.5228433 93.9503888,47.0402286 C94.1293358,46.5576138 94.3796772,46.1454995 94.7014204,45.8038733 C95.0231636,45.4622471 95.4081651,45.1974456 95.8564365,45.0094609 C96.3047079,44.8214761 96.7981605,44.7274851 97.3368092,44.7274851 C97.8826881,44.7274851 98.3797557,44.8205723 98.8280271,45.0067496 C99.2762985,45.1929268 99.6613,45.4577283 99.9830432,45.801162 C100.304786,46.1445958 100.554224,46.5576138 100.731363,47.0402286 C100.908503,47.5228433 100.997071,48.0587727 100.997071,48.6480326 Z M100.422275,48.6480326 C100.422275,48.112999 100.348166,47.632199 100.199948,47.2056182 C100.051729,46.7790374 99.8429604,46.4175336 99.5736361,46.1210961 C99.3043118,45.8246585 98.9798621,45.5978149 98.6002775,45.4405584 C98.2206928,45.2833019 97.7995409,45.2046748 97.3368092,45.2046748 C96.8813076,45.2046748 96.4646745,45.2833019 96.0868974,45.4405584 C95.7091203,45.5978149 95.3837669,45.8246585 95.1108275,46.1210961 C94.8378881,46.4175336 94.6264083,46.7790374 94.476382,47.2056182 C94.3263557,47.632199 94.2513437,48.112999 94.2513437,48.6480326 C94.2513437,49.1866813 94.3263557,49.6683851 94.476382,50.0931584 C94.6264083,50.5179317 94.8378881,50.8785317 95.1108275,51.1749692 C95.3837669,51.4714068 95.7091203,51.6973466 96.0868974,51.8527956 C96.4646745,52.0082445 96.8813076,52.0859678 97.3368092,52.0859678 C97.7995409,52.0859678 98.2206928,52.0082445 98.6002775,51.8527956 C98.9798621,51.6973466 99.3043118,51.4714068 99.5736361,51.1749692 C99.8429604,50.8785317 100.051729,50.5179317 100.199948,50.0931584 C100.348166,49.6683851 100.422275,49.1866813 100.422275,48.6480326 Z M102.542515,54.396 L102.542515,47.0917434 L102.824491,47.0917434 C102.871487,47.0917434 102.909445,47.1016847 102.938366,47.1215677 C102.967287,47.1414507 102.983554,47.1766974 102.98717,47.2273086 L103.035973,48.0623907 C103.274569,47.7370324 103.553831,47.4785572 103.873766,47.2869574 C104.193702,47.0953575 104.552495,46.999559 104.950155,46.999559 C105.615332,46.999559 106.132282,47.2291139 106.501021,47.6882305 C106.869761,48.1473472 107.054128,48.8360119 107.054128,49.7542452 C107.054128,50.1482902 107.002613,50.5161203 106.899583,50.8577465 C106.796553,51.1993727 106.645625,51.4958058 106.446795,51.7470547 C106.247965,51.9983036 106.003046,52.1962269 105.712031,52.3408305 C105.421017,52.4854342 105.085722,52.557735 104.706137,52.557735 C104.337398,52.557735 104.019274,52.4908568 103.751758,52.3570984 C103.484241,52.22334 103.252878,52.0245129 103.057663,51.7606112 L103.057663,54.396 L102.542515,54.396 Z M104.803744,47.4171 C104.44585,47.4171 104.1214,47.5101872 103.830386,47.6963645 C103.539371,47.8825417 103.281799,48.1419206 103.057663,48.4745091 L103.057663,51.3051119 C103.263724,51.6160098 103.492375,51.8347196 103.743624,51.9612478 C103.994873,52.087776 104.281364,52.1510392 104.603108,52.1510392 C104.921236,52.1510392 105.199594,52.0931986 105.43819,51.9775156 C105.676786,51.8618327 105.876516,51.6982522 106.037388,51.4867694 C106.19826,51.2752865 106.319363,51.0222338 106.400703,50.7276039 C106.482043,50.4329739 106.522712,50.1085242 106.522712,49.7542452 C106.522712,48.9516948 106.375399,48.3615399 106.080769,47.9837628 C105.786139,47.6059857 105.360468,47.4171 104.803744,47.4171 Z M110.378188,47.0049816 C110.681856,47.0049816 110.962925,47.0573996 111.221404,47.1622373 C111.479883,47.267075 111.704015,47.4198103 111.893808,47.6204479 C112.0836,47.8210855 112.231817,48.0678118 112.338462,48.3606343 C112.445107,48.6534567 112.498429,48.9896552 112.498429,49.3692399 C112.498429,49.4487719 112.48668,49.5029975 112.463182,49.5319182 C112.439684,49.5608389 112.40263,49.5752991 112.352018,49.5752991 L108.453161,49.5752991 L108.453161,49.6783287 C108.453161,50.083219 108.500157,50.4393002 108.594149,50.746583 C108.688141,51.0538658 108.821898,51.3114372 108.995422,51.519305 C109.168947,51.7271728 109.378619,51.8835232 109.624445,51.9883608 C109.870271,52.0931985 110.145014,52.1456166 110.448682,52.1456166 C110.719814,52.1456166 110.954791,52.1157925 111.153621,52.0561435 C111.352451,51.9964945 111.519647,51.9296163 111.655213,51.8555069 C111.790779,51.7813975 111.898326,51.7145193 111.977858,51.6548703 C112.05739,51.5952213 112.115231,51.5653972 112.151382,51.5653972 C112.198378,51.5653972 112.234528,51.5834724 112.259834,51.6196233 L112.400822,51.7931469 C112.31406,51.9015996 112.199282,52.0028207 112.056486,52.0968131 C111.91369,52.1908054 111.754628,52.27124 111.579296,52.3381192 C111.403964,52.4049984 111.215982,52.4583202 111.015345,52.4980863 C110.814707,52.5378523 110.613169,52.557735 110.410724,52.557735 C110.041984,52.557735 109.705786,52.4935681 109.402118,52.3652323 C109.09845,52.2368965 108.838168,52.0498183 108.621262,51.8039921 C108.404357,51.5581658 108.237161,51.2572139 108.119671,50.9011274 C108.00218,50.5450408 107.943436,50.1374453 107.943436,49.6783287 C107.943436,49.2915138 107.998565,48.9345289 108.108825,48.6073631 C108.219086,48.2801972 108.378147,47.9982243 108.586015,47.7614358 C108.793883,47.5246473 109.048743,47.3393766 109.350603,47.2056182 C109.652463,47.0718598 109.994988,47.0049816 110.378188,47.0049816 Z M110.383611,47.389987 C110.105248,47.389987 109.855811,47.4333674 109.63529,47.5201296 C109.41477,47.6068918 109.224076,47.7316106 109.063205,47.8942898 C108.902333,48.0569689 108.772192,48.2521809 108.672777,48.4799317 C108.573362,48.7076825 108.507387,48.9625427 108.474852,49.2445198 L112.032084,49.2445198 C112.032084,48.9553125 111.992319,48.6959335 111.912787,48.4663752 C111.833255,48.2368169 111.721189,48.0425086 111.576585,47.8834445 C111.431981,47.7243805 111.258459,47.602373 111.056014,47.5174183 C110.853569,47.4324637 110.629437,47.389987 110.383611,47.389987 Z M113.886617,52.487241 L113.886617,47.0917434 L114.168593,47.0917434 C114.262585,47.0917434 114.316811,47.1369313 114.331271,47.2273086 L114.380075,48.0407002 C114.625901,47.7298023 114.912393,47.479461 115.239558,47.2896687 C115.566724,47.0998763 115.930939,47.0049816 116.332215,47.0049816 C116.628652,47.0049816 116.889839,47.0519771 117.115782,47.1459695 C117.341725,47.2399619 117.528803,47.3755258 117.677022,47.5526653 C117.825241,47.7298048 117.937307,47.943092 118.013224,48.1925333 C118.089141,48.4419747 118.127099,48.7239476 118.127099,49.0384606 L118.127099,52.487241 L117.611951,52.487241 L117.611951,49.0384606 C117.611951,48.5323478 117.496269,48.1355974 117.264904,47.8481976 C117.033538,47.5607978 116.679264,47.4171 116.202072,47.4171 C115.847793,47.4171 115.518824,47.5083797 115.215157,47.6909419 C114.911489,47.873504 114.640361,48.1238454 114.401765,48.4419734 L114.401765,52.487241 L113.886617,52.487241 Z M128.565624,48.6480326 C128.565624,49.2409077 128.477056,49.7741258 128.299916,50.2477028 C128.122777,50.7212798 127.873339,51.1243565 127.551596,51.456945 C127.229853,51.7895334 126.844851,52.0443936 126.39658,52.2215331 C125.948309,52.3986726 125.451241,52.487241 124.905362,52.487241 L122.107295,52.487241 L122.107295,44.8142469 L124.905362,44.8142469 C125.451241,44.8142469 125.948309,44.9028153 126.39658,45.0799548 C126.844851,45.2570943 127.229853,45.5119545 127.551596,45.8445429 C127.873339,46.1771314 128.122777,46.5802081 128.299916,47.0537851 C128.477056,47.5273621 128.565624,48.0587727 128.565624,48.6480326 Z M127.990828,48.6480326 C127.990828,48.112999 127.916719,47.6358141 127.768501,47.2164634 C127.620282,46.7971128 127.411513,46.4428391 127.142189,46.1536317 C126.872865,45.8644244 126.548415,45.6439071 126.16883,45.4920732 C125.789246,45.3402394 125.368094,45.2643236 124.905362,45.2643236 L122.665824,45.2643236 L122.665824,52.0371643 L124.905362,52.0371643 C125.368094,52.0371643 125.789246,51.9612485 126.16883,51.8094147 C126.548415,51.6575808 126.872865,51.4370635 127.142189,51.1478562 C127.411513,50.8586488 127.620282,50.5043751 127.768501,50.0850245 C127.916719,49.6656738 127.990828,49.1866813 127.990828,48.6480326 Z M133.532736,52.487241 C133.424283,52.487241 133.357405,52.4366305 133.332099,52.3354079 L133.256183,51.6467364 C133.107964,51.79134 132.960651,51.9214814 132.81424,52.0371643 C132.667829,52.1528473 132.515093,52.2504533 132.356029,52.3299853 C132.196965,52.4095173 132.025251,52.4700692 131.840881,52.5116428 C131.656511,52.5532163 131.454069,52.5740028 131.233549,52.5740028 C131.049179,52.5740028 130.870235,52.54689 130.69671,52.4926636 C130.523186,52.4384373 130.369547,52.3552914 130.235788,52.2432235 C130.10203,52.1311557 129.994483,51.987458 129.913143,51.812126 C129.831803,51.636794 129.791134,51.4262181 129.791134,51.1803918 C129.791134,50.9526411 129.856205,50.7411614 129.986348,50.5459464 C130.116492,50.3507314 130.319837,50.1808247 130.596392,50.036221 C130.872947,49.8916173 131.229028,49.7759361 131.664646,49.6891739 C132.100265,49.6024117 132.623542,49.5518012 133.234492,49.5373408 L133.234492,48.9733893 C133.234492,48.4745066 133.126945,48.0904089 132.911847,47.8210845 C132.696749,47.5517602 132.377722,47.4171 131.954756,47.4171 C131.694469,47.4171 131.473048,47.4532504 131.290486,47.5255522 C131.107924,47.5978541 130.953381,47.6773849 130.826853,47.7641471 C130.700325,47.8509093 130.597296,47.9304401 130.517764,48.002742 C130.438232,48.0750438 130.371354,48.1111942 130.317128,48.1111942 C130.244826,48.1111942 130.1906,48.0786588 130.154449,48.0135872 L130.062265,47.8563315 C130.344242,47.5743543 130.640675,47.3610671 130.951573,47.2164634 C131.262471,47.0718597 131.614937,46.999559 132.008982,46.999559 C132.298189,46.999559 132.551242,47.0456507 132.768148,47.1378356 C132.985053,47.2300204 133.164901,47.3619693 133.307697,47.5336861 C133.450493,47.705403 133.558041,47.9132677 133.630343,48.1572864 C133.702645,48.4013051 133.738795,48.6733367 133.738795,48.9733893 L133.738795,52.487241 L133.532736,52.487241 Z M131.363691,52.1998427 C131.573367,52.1998427 131.765867,52.1772487 131.941199,52.13206 C132.116531,52.0868714 132.279208,52.0236082 132.429234,51.9422687 C132.579261,51.8609291 132.719343,51.7642268 132.849487,51.652159 C132.97963,51.5400911 133.107964,51.4189874 133.234492,51.2888441 L133.234492,49.8843879 C132.721149,49.8988483 132.279211,49.9377099 131.908664,50.000974 C131.538117,50.0642381 131.232646,50.1500953 130.992243,50.258548 C130.751839,50.3670008 130.574702,50.4962384 130.460827,50.6462647 C130.346951,50.796291 130.290014,50.9671015 130.290014,51.1587014 C130.290014,51.339456 130.319839,51.4958064 130.379488,51.6277572 C130.439137,51.7597081 130.517764,51.8681592 130.615371,51.9531139 C130.712979,52.0380685 130.826852,52.1004279 130.956996,52.1401939 C131.087139,52.17996 131.222703,52.1998427 131.363691,52.1998427 Z M136.840528,52.5740028 C136.475404,52.5740028 136.19072,52.4727817 135.986467,52.2703366 C135.782214,52.0678915 135.68009,51.7551907 135.68009,51.3322249 L135.68009,47.6448497 L134.904656,47.6448497 C134.86489,47.6448497 134.832355,47.6340046 134.807049,47.612314 C134.781744,47.5906234 134.769091,47.5598956 134.769091,47.5201296 L134.769091,47.319493 L135.690935,47.2544217 L135.821077,45.3239723 C135.824693,45.2914365 135.838249,45.2625162 135.861747,45.2372105 C135.885245,45.2119049 135.916877,45.1992522 135.956643,45.1992522 L136.20066,45.1992522 L136.20066,47.2598443 L137.897937,47.2598443 L137.897937,47.6448497 L136.20066,47.6448497 L136.20066,51.3051119 C136.20066,51.4533307 136.219639,51.5807607 136.257598,51.6874059 C136.295556,51.7940512 136.347974,51.8817158 136.414853,51.9504026 C136.481732,52.0190893 136.56036,52.0696998 136.650737,52.1022357 C136.741114,52.1347715 136.83872,52.1510392 136.943558,52.1510392 C137.073701,52.1510392 137.185767,52.1320602 137.27976,52.0941018 C137.373752,52.0561433 137.45509,52.0145704 137.523777,51.9693817 C137.592464,51.9241931 137.648497,51.8826201 137.691878,51.8446617 C137.735259,51.8067032 137.769602,51.7877242 137.794908,51.7877242 C137.823828,51.7877242 137.852749,51.8057994 137.881669,51.8419504 L138.022657,52.0697 C137.885284,52.2215339 137.710858,52.3435414 137.499375,52.4357262 C137.287893,52.5279111 137.068279,52.5740028 136.840528,52.5740028 Z M142.675257,52.487241 C142.566805,52.487241 142.499926,52.4366305 142.474621,52.3354079 L142.398704,51.6467364 C142.250485,51.79134 142.103173,51.9214814 141.956761,52.0371643 C141.81035,52.1528473 141.657615,52.2504533 141.498551,52.3299853 C141.339487,52.4095173 141.167772,52.4700692 140.983403,52.5116428 C140.799033,52.5532163 140.596591,52.5740028 140.37607,52.5740028 C140.191701,52.5740028 140.012756,52.54689 139.839232,52.4926636 C139.665708,52.4384373 139.512068,52.3552914 139.37831,52.2432235 C139.244552,52.1311557 139.137004,51.987458 139.055665,51.812126 C138.974325,51.636794 138.933656,51.4262181 138.933656,51.1803918 C138.933656,50.9526411 138.998727,50.7411614 139.12887,50.5459464 C139.259013,50.3507314 139.462359,50.1808247 139.738914,50.036221 C140.015468,49.8916173 140.371549,49.7759361 140.807168,49.6891739 C141.242787,49.6024117 141.766063,49.5518012 142.377014,49.5373408 L142.377014,48.9733893 C142.377014,48.4745066 142.269466,48.0904089 142.054368,47.8210845 C141.83927,47.5517602 141.520243,47.4171 141.097278,47.4171 C140.836991,47.4171 140.61557,47.4532504 140.433008,47.5255522 C140.250446,47.5978541 140.095903,47.6773849 139.969375,47.7641471 C139.842846,47.8509093 139.739818,47.9304401 139.660286,48.002742 C139.580754,48.0750438 139.513876,48.1111942 139.459649,48.1111942 C139.387347,48.1111942 139.333122,48.0786588 139.296971,48.0135872 L139.204786,47.8563315 C139.486764,47.5743543 139.783197,47.3610671 140.094095,47.2164634 C140.404993,47.0718597 140.757459,46.999559 141.151504,46.999559 C141.440711,46.999559 141.693764,47.0456507 141.910669,47.1378356 C142.127575,47.2300204 142.307423,47.3619693 142.450219,47.5336861 C142.593015,47.705403 142.700563,47.9132677 142.772864,48.1572864 C142.845166,48.4013051 142.881317,48.6733367 142.881317,48.9733893 L142.881317,52.487241 L142.675257,52.487241 Z M140.506213,52.1998427 C140.715888,52.1998427 140.908389,52.1772487 141.083721,52.13206 C141.259053,52.0868714 141.42173,52.0236082 141.571756,51.9422687 C141.721782,51.8609291 141.861865,51.7642268 141.992008,51.652159 C142.122152,51.5400911 142.250486,51.4189874 142.377014,51.2888441 L142.377014,49.8843879 C141.863671,49.8988483 141.421732,49.9377099 141.051185,50.000974 C140.680639,50.0642381 140.375168,50.1500953 140.134764,50.258548 C139.894361,50.3670008 139.717224,50.4962384 139.603348,50.6462647 C139.489473,50.796291 139.432536,50.9671015 139.432536,51.1587014 C139.432536,51.339456 139.46236,51.4958064 139.522009,51.6277572 C139.581658,51.7597081 139.660285,51.8681592 139.757893,51.9531139 C139.8555,52.0380685 139.969374,52.1004279 140.099517,52.1401939 C140.229661,52.17996 140.365224,52.1998427 140.506213,52.1998427 Z" id="Open-Source-Open-Dat" fill="#FFFFFF" sketch:type="MSShapeGroup"></path>
            <path d="" id="Path-38" stroke="#979797" sketch:type="MSShapeGroup"></path>
            <path d="" id="Path-39" stroke="#979797" sketch:type="MSShapeGroup"></path>
        </g>
        <path d="M33.845,47.2375 L33.845,48.76 L25.1475,48.76 L25.1475,72 L23.3625,72 L23.3625,48.76 L14.6125,48.76 L14.6125,47.2375 L33.845,47.2375 Z M36.2925,72 L36.2925,46.5375 L37.955,46.5375 L37.955,57.5625 C38.760004,56.5708284 39.6787448,55.7804196 40.71125,55.19125 C41.7437552,54.6020804 42.9016602,54.3075 44.185,54.3075 C45.1416715,54.3075 45.9845797,54.4591652 46.71375,54.7625 C47.4429203,55.0658349 48.0466643,55.5033305 48.525,56.075 C49.0033357,56.6466695 49.3649988,57.334996 49.61,58.14 C49.8550012,58.945004 49.9775,59.8549949 49.9775,60.87 L49.9775,72 L48.315,72 L48.315,60.87 C48.315,59.2366585 47.9416704,57.9562546 47.195,57.02875 C46.4483296,56.1012454 45.3050077,55.6375 43.765,55.6375 C42.621661,55.6375 41.5600049,55.9320804 40.58,56.52125 C39.5999951,57.1104196 38.7250039,57.9183282 37.955,58.945 L37.955,72 L36.2925,72 Z M60.79,54.3075 C61.7700049,54.3075 62.6770792,54.476665 63.51125,54.815 C64.3454208,55.153335 65.0687469,55.6462468 65.68125,56.29375 C66.2937531,56.9412532 66.7720816,57.7374953 67.11625,58.6825 C67.4604184,59.6275047 67.6325,60.7124939 67.6325,61.9375 C67.6325,62.194168 67.5945837,62.3691662 67.51875,62.4625 C67.4429163,62.5558338 67.3233341,62.6025 67.16,62.6025 L54.5775,62.6025 L54.5775,62.935 C54.5775,64.2416732 54.7291652,65.3908284 55.0325,66.3825 C55.3358348,67.3741716 55.7674972,68.2054133 56.3275,68.87625 C56.8875028,69.5470867 57.5641627,70.051665 58.3575,70.39 C59.1508373,70.728335 60.0374951,70.8975 61.0175,70.8975 C61.8925044,70.8975 62.6508301,70.801251 63.2925,70.60875 C63.9341699,70.416249 64.4737478,70.2004179 64.91125,69.96125 C65.3487522,69.7220821 65.6958321,69.506251 65.9525,69.31375 C66.2091679,69.121249 66.3958327,69.025 66.5125,69.025 C66.6641674,69.025 66.7808329,69.0833328 66.8625,69.2 L67.3175,69.76 C67.0374986,70.1100017 66.6670856,70.4366651 66.20625,70.74 C65.7454144,71.0433348 65.2320862,71.3029156 64.66625,71.51875 C64.1004138,71.7345844 63.4937532,71.906666 62.84625,72.035 C62.1987468,72.163334 61.5483366,72.2275 60.895,72.2275 C59.704994,72.2275 58.6200049,72.0204187 57.64,71.60625 C56.6599951,71.1920813 55.8200035,70.5883373 55.12,69.795 C54.4199965,69.0016627 53.8804186,68.0304224 53.50125,66.88125 C53.1220814,65.7320776 52.9325,64.4166741 52.9325,62.935 C52.9325,61.6866604 53.1104149,60.5345886 53.46625,59.47875 C53.8220851,58.4229114 54.3354133,57.5129205 55.00625,56.74875 C55.6770867,55.9845795 56.4995785,55.3866688 57.47375,54.955 C58.4479215,54.5233312 59.5533272,54.3075 60.79,54.3075 Z M60.8075,55.55 C59.9091622,55.55 59.1041702,55.6899986 58.3925,55.97 C57.6808298,56.2500014 57.0654193,56.6524974 56.54625,57.1775 C56.0270807,57.7025026 55.6070849,58.3324963 55.28625,59.0675 C54.9654151,59.8025037 54.7525005,60.6249955 54.6475,61.535 L66.1275,61.535 C66.1275,60.601662 65.999168,59.764587 65.7425,59.02375 C65.485832,58.282913 65.124169,57.6558359 64.6575,57.1425 C64.190831,56.6291641 63.6308366,56.235418 62.9775,55.96125 C62.3241634,55.687082 61.6008373,55.55 60.8075,55.55 Z M88.3475,70.8275 C89.1991709,70.8275 89.9749965,70.7837504 90.675,70.69625 C91.3750035,70.6087496 92.0254137,70.4775009 92.62625,70.3025 C93.2270863,70.1274991 93.7987473,69.9145846 94.34125,69.66375 C94.8837527,69.4129154 95.4291639,69.1300016 95.9775,68.815 L95.9775,62.1475 L91.2175,62.1475 C91.089166,62.1475 90.9812504,62.1066671 90.89375,62.025 C90.8062496,61.9433329 90.7625,61.8500005 90.7625,61.745 L90.7625,60.765 L97.605,60.765 L97.605,69.5675 C96.9866636,69.9991688 96.3450033,70.384165 95.68,70.7225 C95.0149967,71.060835 94.3033371,71.3437489 93.545,71.57125 C92.7866629,71.7987511 91.9700044,71.9737494 91.095,72.09625 C90.2199956,72.2187506 89.2633385,72.28 88.225,72.28 C86.4399911,72.28 84.8095907,71.9795863 83.33375,71.37875 C81.8579093,70.7779137 80.5920886,69.9262555 79.53625,68.82375 C78.4804114,67.7212445 77.6608363,66.3883412 77.0775,64.825 C76.4941638,63.2616589 76.2025,61.5233429 76.2025,59.61 C76.2025,57.6966571 76.4941638,55.9612578 77.0775,54.40375 C77.6608363,52.8462422 78.4891613,51.5162555 79.5625,50.41375 C80.6358387,49.3112445 81.9395757,48.4595863 83.47375,47.85875 C85.0079243,47.2579137 86.7258238,46.9575 88.6275,46.9575 C89.5725047,46.9575 90.4445793,47.021666 91.24375,47.15 C92.0429207,47.278334 92.7866632,47.4679154 93.475,47.71875 C94.1633368,47.9695846 94.804997,48.2787482 95.4,48.64625 C95.995003,49.0137518 96.5666639,49.4366643 97.115,49.915 L96.6425,50.685 C96.5374995,50.8600009 96.3916676,50.9475 96.205,50.9475 C96.0999995,50.9475 96.0008338,50.9241669 95.9075,50.8775 C95.7324991,50.8074996 95.4787517,50.6441679 95.14625,50.3875 C94.8137483,50.1308321 94.3645862,49.8625014 93.79875,49.5825 C93.2329138,49.3024986 92.5241709,49.0516678 91.6725,48.83 C90.8208291,48.6083322 89.7883394,48.4975 88.575,48.4975 C86.964992,48.4975 85.5125065,48.7541641 84.2175,49.2675 C82.9224935,49.7808359 81.8170879,50.5158285 80.90125,51.4725 C79.9854121,52.4291714 79.2795858,53.5958265 78.78375,54.9725 C78.2879142,56.3491735 78.04,57.8949914 78.04,59.61 C78.04,61.3600087 78.2908308,62.9291597 78.7925,64.3175 C79.2941692,65.7058403 79.9970788,66.8812452 80.90125,67.84375 C81.8054212,68.8062548 82.8904103,69.5441641 84.15625,70.0575 C85.4220897,70.5708359 86.819159,70.8275 88.3475,70.8275 Z M103.3075,54.5875 L103.3075,65.7175 C103.3075,67.3508415 103.68083,68.6312454 104.4275,69.55875 C105.17417,70.4862546 106.311659,70.95 107.84,70.95 C108.971672,70.95 110.027495,70.6612529 111.0075,70.08375 C111.987505,69.5062471 112.868329,68.7041718 113.65,67.6775 L113.65,54.5875 L115.33,54.5875 L115.33,72 L114.4025,72 C114.075832,72 113.906667,71.8483349 113.895,71.545 L113.7375,68.955 C112.932496,69.9583383 112.002089,70.7633303 110.94625,71.37 C109.890411,71.9766697 108.715006,72.28 107.42,72.28 C106.451662,72.28 105.605837,72.1283349 104.8825,71.825 C104.159163,71.5216652 103.558336,71.0841695 103.08,70.5125 C102.601664,69.9408305 102.240001,69.252504 101.995,68.4475 C101.749999,67.642496 101.6275,66.7325051 101.6275,65.7175 L101.6275,54.5875 L103.3075,54.5875 Z M122.1525,54.5875 L122.1525,72 L120.49,72 L120.49,54.5875 L122.1525,54.5875 Z M122.8875,48.585 C122.8875,48.795001 122.84375,48.9904158 122.75625,49.17125 C122.66875,49.3520842 122.555001,49.5124993 122.415,49.6525 C122.274999,49.7925007 122.111668,49.9033329 121.925,49.985 C121.738332,50.0666671 121.540001,50.1075 121.33,50.1075 C121.119999,50.1075 120.921668,50.0666671 120.735,49.985 C120.548332,49.9033329 120.385001,49.7925007 120.245,49.6525 C120.104999,49.5124993 119.994167,49.3520842 119.9125,49.17125 C119.830833,48.9904158 119.79,48.795001 119.79,48.585 C119.79,48.3749989 119.830833,48.173751 119.9125,47.98125 C119.994167,47.788749 120.104999,47.6225007 120.245,47.4825 C120.385001,47.3424993 120.548332,47.2316671 120.735,47.15 C120.921668,47.0683329 121.119999,47.0275 121.33,47.0275 C121.540001,47.0275 121.738332,47.0683329 121.925,47.15 C122.111668,47.2316671 122.274999,47.3424993 122.415,47.4825 C122.555001,47.6225007 122.66875,47.788749 122.75625,47.98125 C122.84375,48.173751 122.8875,48.3749989 122.8875,48.585 Z M139.65,72 C139.358332,72 139.189167,71.8483349 139.1425,71.545 L138.9675,68.7975 C138.197496,69.8475052 137.296255,70.6816636 136.26375,71.3 C135.231245,71.9183364 134.07334,72.2275 132.79,72.2275 C130.654989,72.2275 128.989589,71.4866741 127.79375,70.005 C126.597911,68.5233259 126,66.3008482 126,63.3375 C126,62.065827 126.166248,60.8787555 126.49875,59.77625 C126.831252,58.6737445 127.321247,57.7170874 127.96875,56.90625 C128.616253,56.0954126 129.409579,55.456669 130.34875,54.99 C131.287921,54.523331 132.369994,54.29 133.595,54.29 C134.773339,54.29 135.794162,54.5087478 136.6575,54.94625 C137.520838,55.3837522 138.267497,56.0224958 138.8975,56.8625 L138.8975,46.5375 L140.5775,46.5375 L140.5775,72 L139.65,72 Z M133.2625,70.88 C134.417506,70.88 135.461662,70.582503 136.395,69.9875 C137.328338,69.392497 138.162496,68.564172 138.8975,67.5025 L138.8975,58.315 C138.22083,57.3233284 137.477087,56.6233354 136.66625,56.215 C135.855413,55.8066646 134.936672,55.6025 133.91,55.6025 C132.883328,55.6025 131.985004,55.7891648 131.215,56.1625 C130.444996,56.5358352 129.800419,57.0637466 129.28125,57.74625 C128.762081,58.4287534 128.371251,59.2454119 128.10875,60.19625 C127.846249,61.1470881 127.715,62.1941609 127.715,63.3375 C127.715,65.9275129 128.193329,67.8320772 129.15,69.05125 C130.106671,70.2704228 131.477491,70.88 133.2625,70.88 Z M151.985,54.3075 C152.965005,54.3075 153.872079,54.476665 154.70625,54.815 C155.540421,55.153335 156.263747,55.6462468 156.87625,56.29375 C157.488753,56.9412532 157.967082,57.7374953 158.31125,58.6825 C158.655418,59.6275047 158.8275,60.7124939 158.8275,61.9375 C158.8275,62.194168 158.789584,62.3691662 158.71375,62.4625 C158.637916,62.5558338 158.518334,62.6025 158.355,62.6025 L145.7725,62.6025 L145.7725,62.935 C145.7725,64.2416732 145.924165,65.3908284 146.2275,66.3825 C146.530835,67.3741716 146.962497,68.2054133 147.5225,68.87625 C148.082503,69.5470867 148.759163,70.051665 149.5525,70.39 C150.345837,70.728335 151.232495,70.8975 152.2125,70.8975 C153.087504,70.8975 153.84583,70.801251 154.4875,70.60875 C155.12917,70.416249 155.668748,70.2004179 156.10625,69.96125 C156.543752,69.7220821 156.890832,69.506251 157.1475,69.31375 C157.404168,69.121249 157.590833,69.025 157.7075,69.025 C157.859167,69.025 157.975833,69.0833328 158.0575,69.2 L158.5125,69.76 C158.232499,70.1100017 157.862086,70.4366651 157.40125,70.74 C156.940414,71.0433348 156.427086,71.3029156 155.86125,71.51875 C155.295414,71.7345844 154.688753,71.906666 154.04125,72.035 C153.393747,72.163334 152.743337,72.2275 152.09,72.2275 C150.899994,72.2275 149.815005,72.0204187 148.835,71.60625 C147.854995,71.1920813 147.015004,70.5883373 146.315,69.795 C145.614997,69.0016627 145.075419,68.0304224 144.69625,66.88125 C144.317081,65.7320776 144.1275,64.4166741 144.1275,62.935 C144.1275,61.6866604 144.305415,60.5345886 144.66125,59.47875 C145.017085,58.4229114 145.530413,57.5129205 146.20125,56.74875 C146.872087,55.9845795 147.694578,55.3866688 148.66875,54.955 C149.642922,54.5233312 150.748327,54.3075 151.985,54.3075 Z M152.0025,55.55 C151.104162,55.55 150.29917,55.6899986 149.5875,55.97 C148.87583,56.2500014 148.260419,56.6524974 147.74125,57.1775 C147.222081,57.7025026 146.802085,58.3324963 146.48125,59.0675 C146.160415,59.8025037 145.947501,60.6249955 145.8425,61.535 L157.3225,61.535 C157.3225,60.601662 157.194168,59.764587 156.9375,59.02375 C156.680832,58.282913 156.319169,57.6558359 155.8525,57.1425 C155.385831,56.6291641 154.825837,56.235418 154.1725,55.96125 C153.519163,55.687082 152.795837,55.55 152.0025,55.55 Z M172.8225,72.28 C171.644161,72.28 170.72542,71.9533366 170.06625,71.3 C169.40708,70.6466634 169.0775,69.6375068 169.0775,68.2725 L169.0775,56.3725 L166.575,56.3725 C166.446666,56.3725 166.341667,56.3375003 166.26,56.2675 C166.178333,56.1974996 166.1375,56.098334 166.1375,55.97 L166.1375,55.3225 L169.1125,55.1125 L169.5325,48.8825 C169.544167,48.7774995 169.587916,48.6841671 169.66375,48.6025 C169.739584,48.5208329 169.841666,48.48 169.97,48.48 L170.7575,48.48 L170.7575,55.13 L176.235,55.13 L176.235,56.3725 L170.7575,56.3725 L170.7575,68.185 C170.7575,68.6633357 170.818749,69.0745816 170.94125,69.41875 C171.063751,69.7629184 171.232916,70.0458322 171.44875,70.2675 C171.664584,70.4891678 171.918332,70.6524995 172.21,70.7575 C172.501668,70.8625005 172.816665,70.915 173.155,70.915 C173.575002,70.915 173.936665,70.8537506 174.24,70.73125 C174.543335,70.6087494 174.805832,70.4745841 175.0275,70.32875 C175.249168,70.1829159 175.429999,70.0487506 175.57,69.92625 C175.710001,69.8037494 175.820833,69.7425 175.9025,69.7425 C175.995834,69.7425 176.089166,69.8008328 176.1825,69.9175 L176.6375,70.6525 C176.194164,71.1425025 175.631253,71.5362485 174.94875,71.83375 C174.266247,72.1312515 173.557504,72.28 172.8225,72.28 Z M186.1725,54.3075 C187.42084,54.3075 188.537912,54.5204145 189.52375,54.94625 C190.509588,55.3720855 191.34083,55.9758294 192.0175,56.7575 C192.69417,57.5391706 193.210415,58.4812445 193.56625,59.58375 C193.922085,60.6862555 194.1,61.9199932 194.1,63.285 C194.1,64.6500068 193.922085,65.8808278 193.56625,66.9775 C193.210415,68.0741721 192.69417,69.0133294 192.0175,69.795 C191.34083,70.5766706 190.509588,71.1774979 189.52375,71.5975 C188.537912,72.0175021 187.42084,72.2275 186.1725,72.2275 C184.92416,72.2275 183.807088,72.0175021 182.82125,71.5975 C181.835412,71.1774979 181.001253,70.5766706 180.31875,69.795 C179.636247,69.0133294 179.117085,68.0741721 178.76125,66.9775 C178.405415,65.8808278 178.2275,64.6500068 178.2275,63.285 C178.2275,61.9199932 178.405415,60.6862555 178.76125,59.58375 C179.117085,58.4812445 179.636247,57.5391706 180.31875,56.7575 C181.001253,55.9758294 181.835412,55.3720855 182.82125,54.94625 C183.807088,54.5204145 184.92416,54.3075 186.1725,54.3075 Z M186.1725,70.915 C187.210839,70.915 188.117913,70.7370851 188.89375,70.38125 C189.669587,70.0254149 190.317081,69.5150033 190.83625,68.85 C191.355419,68.1849967 191.743332,67.3829214 192,66.44375 C192.256668,65.5045786 192.385,64.4516725 192.385,63.285 C192.385,62.1299942 192.256668,61.0800047 192,60.135 C191.743332,59.1899953 191.355419,58.3820867 190.83625,57.71125 C190.317081,57.0404133 189.669587,56.5241685 188.89375,56.1625 C188.117913,55.8008315 187.210839,55.62 186.1725,55.62 C185.134161,55.62 184.227087,55.8008315 183.45125,56.1625 C182.675413,56.5241685 182.027919,57.0404133 181.50875,57.71125 C180.989581,58.3820867 180.598751,59.1899953 180.33625,60.135 C180.073749,61.0800047 179.9425,62.1299942 179.9425,63.285 C179.9425,64.4516725 180.073749,65.5045786 180.33625,66.44375 C180.598751,67.3829214 180.989581,68.1849967 181.50875,68.85 C182.027919,69.5150033 182.675413,70.0254149 183.45125,70.38125 C184.227087,70.7370851 185.134161,70.915 186.1725,70.915 Z M19.4075,112.705 L25.095,112.705 L25.095,92.615 C25.095,92.2183313 25.1124998,91.7983355 25.1475,91.355 L19.6875,96.2025 C19.5708328,96.3075005 19.4308341,96.36 19.2675,96.36 C19.0691657,96.36 18.9175005,96.2900007 18.8125,96.15 L18.305,95.45 L25.4625,89.1325 L26.7575,89.1325 L26.7575,112.705 L32.165,112.705 L32.165,114 L19.4075,114 L19.4075,112.705 Z M52.3225,101.61 C52.3225,103.780011 52.089169,105.658325 51.6225,107.245 C51.155831,108.831675 50.520004,110.144161 49.715,111.1825 C48.909996,112.220839 47.9679221,112.993747 46.88875,113.50125 C45.8095779,114.008753 44.6575061,114.2625 43.4325,114.2625 C42.2074939,114.2625 41.0583387,114.008753 39.985,113.50125 C38.9116613,112.993747 37.972504,112.220839 37.1675,111.1825 C36.362496,110.144161 35.7295856,108.831675 35.26875,107.245 C34.8079144,105.658325 34.5775,103.780011 34.5775,101.61 C34.5775,99.4399892 34.8079144,97.5616746 35.26875,95.975 C35.7295856,94.3883254 36.362496,93.0758385 37.1675,92.0375 C37.972504,90.9991615 38.9116613,90.2262525 39.985,89.71875 C41.0583387,89.2112475 42.2074939,88.9575 43.4325,88.9575 C44.6575061,88.9575 45.8095779,89.2112475 46.88875,89.71875 C47.9679221,90.2262525 48.909996,90.9991615 49.715,92.0375 C50.520004,93.0758385 51.155831,94.3883254 51.6225,95.975 C52.089169,97.5616746 52.3225,99.4399892 52.3225,101.61 Z M50.5725,101.61 C50.5725,99.6033233 50.3800019,97.8883404 49.995,96.465 C49.6099981,95.0416595 49.0937532,93.8779212 48.44625,92.97375 C47.7987468,92.0695788 47.040421,91.4075021 46.17125,90.9875 C45.302079,90.5674979 44.3891714,90.3575 43.4325,90.3575 C42.4758285,90.3575 41.5658376,90.5674979 40.7025,90.9875 C39.8391623,91.4075021 39.0808366,92.0695788 38.4275,92.97375 C37.7741634,93.8779212 37.2550019,95.0416595 36.87,96.465 C36.4849981,97.8883404 36.2925,99.6033233 36.2925,101.61 C36.2925,103.628343 36.4849981,105.346243 36.87,106.76375 C37.2550019,108.181257 37.7741634,109.342079 38.4275,110.24625 C39.0808366,111.150421 39.8391623,111.809581 40.7025,112.22375 C41.5658376,112.637919 42.4758285,112.845 43.4325,112.845 C44.3891714,112.845 45.302079,112.637919 46.17125,112.22375 C47.040421,111.809581 47.7987468,111.150421 48.44625,110.24625 C49.0937532,109.342079 49.6099981,108.181257 49.995,106.76375 C50.3800019,105.346243 50.5725,103.628343 50.5725,101.61 Z M71.6225,101.61 C71.6225,103.780011 71.389169,105.658325 70.9225,107.245 C70.455831,108.831675 69.820004,110.144161 69.015,111.1825 C68.209996,112.220839 67.2679221,112.993747 66.18875,113.50125 C65.1095779,114.008753 63.9575061,114.2625 62.7325,114.2625 C61.5074939,114.2625 60.3583387,114.008753 59.285,113.50125 C58.2116613,112.993747 57.272504,112.220839 56.4675,111.1825 C55.662496,110.144161 55.0295856,108.831675 54.56875,107.245 C54.1079144,105.658325 53.8775,103.780011 53.8775,101.61 C53.8775,99.4399892 54.1079144,97.5616746 54.56875,95.975 C55.0295856,94.3883254 55.662496,93.0758385 56.4675,92.0375 C57.272504,90.9991615 58.2116613,90.2262525 59.285,89.71875 C60.3583387,89.2112475 61.5074939,88.9575 62.7325,88.9575 C63.9575061,88.9575 65.1095779,89.2112475 66.18875,89.71875 C67.2679221,90.2262525 68.209996,90.9991615 69.015,92.0375 C69.820004,93.0758385 70.455831,94.3883254 70.9225,95.975 C71.389169,97.5616746 71.6225,99.4399892 71.6225,101.61 Z M69.8725,101.61 C69.8725,99.6033233 69.6800019,97.8883404 69.295,96.465 C68.9099981,95.0416595 68.3937532,93.8779212 67.74625,92.97375 C67.0987468,92.0695788 66.340421,91.4075021 65.47125,90.9875 C64.602079,90.5674979 63.6891715,90.3575 62.7325,90.3575 C61.7758285,90.3575 60.8658377,90.5674979 60.0025,90.9875 C59.1391623,91.4075021 58.3808366,92.0695788 57.7275,92.97375 C57.0741634,93.8779212 56.5550019,95.0416595 56.17,96.465 C55.7849981,97.8883404 55.5925,99.6033233 55.5925,101.61 C55.5925,103.628343 55.7849981,105.346243 56.17,106.76375 C56.5550019,108.181257 57.0741634,109.342079 57.7275,110.24625 C58.3808366,111.150421 59.1391623,111.809581 60.0025,112.22375 C60.8658377,112.637919 61.7758285,112.845 62.7325,112.845 C63.6891715,112.845 64.602079,112.637919 65.47125,112.22375 C66.340421,111.809581 67.0987468,111.150421 67.74625,110.24625 C68.3937532,109.342079 68.9099981,108.181257 69.295,106.76375 C69.6800019,105.346243 69.8725,103.628343 69.8725,101.61 Z M83.835,95.1875 C83.835,96.2025051 83.6950014,97.0979128 83.415,97.87375 C83.1349986,98.6495872 82.7558357,99.2941641 82.2775,99.8075 C81.7991643,100.320836 81.2450031,100.708749 80.615,100.97125 C79.9849968,101.233751 79.3200035,101.365 78.62,101.365 C77.896663,101.365 77.2170865,101.233751 76.58125,100.97125 C75.9454135,100.708749 75.394169,100.320836 74.9275,99.8075 C74.460831,99.2941641 74.0933347,98.6495872 73.825,97.87375 C73.5566653,97.0979128 73.4225,96.2025051 73.4225,95.1875 C73.4225,94.1608282 73.5566653,93.2566706 73.825,92.475 C74.0933347,91.6933294 74.460831,91.0429193 74.9275,90.52375 C75.394169,90.0045807 75.9454135,89.6137513 76.58125,89.35125 C77.2170865,89.0887487 77.896663,88.9575 78.62,88.9575 C79.3433369,88.9575 80.0199968,89.0887487 80.65,89.35125 C81.2800031,89.6137513 81.8312476,90.0045807 82.30375,90.52375 C82.7762524,91.0429193 83.149582,91.6933294 83.42375,92.475 C83.697918,93.2566706 83.835,94.1608282 83.835,95.1875 Z M82.505,95.1875 C82.505,94.2891622 82.4029177,93.5191699 82.19875,92.8775 C81.9945823,92.2358301 81.7145851,91.7079187 81.35875,91.29375 C81.0029149,90.8795813 80.5887524,90.576251 80.11625,90.38375 C79.6437476,90.191249 79.1450026,90.095 78.62,90.095 C78.0949974,90.095 77.599169,90.191249 77.1325,90.38375 C76.665831,90.576251 76.2575017,90.8795813 75.9075,91.29375 C75.5574982,91.7079187 75.2804177,92.2358301 75.07625,92.8775 C74.8720823,93.5191699 74.77,94.2891622 74.77,95.1875 C74.77,96.0858378 74.8720823,96.8529135 75.07625,97.48875 C75.2804177,98.1245865 75.5574982,98.6466646 75.9075,99.055 C76.2575017,99.4633354 76.665831,99.763749 77.1325,99.95625 C77.599169,100.148751 78.0949974,100.245 78.62,100.245 C79.1450026,100.245 79.6437476,100.148751 80.11625,99.95625 C80.5887524,99.763749 81.0029149,99.4633354 81.35875,99.055 C81.7145851,98.6466646 81.9945823,98.1245865 82.19875,97.48875 C82.4029177,96.8529135 82.505,96.0858378 82.505,95.1875 Z M93.2325,89.5525 C93.3025003,89.4591662 93.3870828,89.3833336 93.48625,89.325 C93.5854172,89.2666664 93.7166659,89.2375 93.88,89.2375 L95.0525,89.2375 L77.2725,113.685 C77.1208326,113.895001 76.916668,114 76.66,114 L75.47,114 L93.2325,89.5525 Z M97.205,108.12 C97.205,109.135005 97.0650014,110.030413 96.785,110.80625 C96.5049986,111.582087 96.1287524,112.226664 95.65625,112.74 C95.1837476,113.253336 94.6325031,113.641249 94.0025,113.90375 C93.3724968,114.166251 92.7075035,114.2975 92.0075,114.2975 C91.284163,114.2975 90.6045865,114.166251 89.96875,113.90375 C89.3329135,113.641249 88.781669,113.253336 88.315,112.74 C87.848331,112.226664 87.4808347,111.582087 87.2125,110.80625 C86.9441653,110.030413 86.81,109.135005 86.81,108.12 C86.81,107.093328 86.9441653,106.189171 87.2125,105.4075 C87.4808347,104.625829 87.848331,103.975419 88.315,103.45625 C88.781669,102.937081 89.3329135,102.546251 89.96875,102.28375 C90.6045865,102.021249 91.284163,101.89 92.0075,101.89 C92.7308369,101.89 93.4074969,102.021249 94.0375,102.28375 C94.6675031,102.546251 95.2187476,102.937081 95.69125,103.45625 C96.1637524,103.975419 96.5341653,104.625829 96.8025,105.4075 C97.0708347,106.189171 97.205,107.093328 97.205,108.12 Z M95.875,108.12 C95.875,107.221662 95.7729177,106.448753 95.56875,105.80125 C95.3645823,105.153747 95.0875017,104.622919 94.7375,104.20875 C94.3874982,103.794581 93.9762524,103.491251 93.50375,103.29875 C93.0312476,103.106249 92.5325026,103.01 92.0075,103.01 C91.4824974,103.01 90.9837524,103.106249 90.51125,103.29875 C90.0387476,103.491251 89.6275017,103.794581 89.2775,104.20875 C88.9274982,104.622919 88.6504177,105.153747 88.44625,105.80125 C88.2420823,106.448753 88.14,107.221662 88.14,108.12 C88.14,109.018338 88.2420823,109.785413 88.44625,110.42125 C88.6504177,111.057087 88.9274982,111.579165 89.2775,111.9875 C89.6275017,112.395835 90.0387476,112.693332 90.51125,112.88 C90.9837524,113.066668 91.4824974,113.16 92.0075,113.16 C92.5325026,113.16 93.0312476,113.066668 93.50375,112.88 C93.9762524,112.693332 94.3874982,112.395835 94.7375,111.9875 C95.0875017,111.579165 95.3645823,111.057087 95.56875,110.42125 C95.7729177,109.785413 95.875,109.018338 95.875,108.12 Z M129.26,101.61 C129.26,103.523343 128.97417,105.258742 128.4025,106.81625 C127.83083,108.373758 127.025839,109.703744 125.9875,110.80625 C124.949161,111.908756 123.706674,112.760414 122.26,113.36125 C120.813326,113.962086 119.209175,114.2625 117.4475,114.2625 C115.709158,114.2625 114.116674,113.962086 112.67,113.36125 C111.223326,112.760414 109.980839,111.908756 108.9425,110.80625 C107.904161,109.703744 107.096253,108.373758 106.51875,106.81625 C105.941247,105.258742 105.6525,103.523343 105.6525,101.61 C105.6525,99.7083238 105.941247,97.9787578 106.51875,96.42125 C107.096253,94.8637422 107.904161,93.5337555 108.9425,92.43125 C109.980839,91.3287445 111.223326,90.4741697 112.67,89.8675 C114.116674,89.2608303 115.709158,88.9575 117.4475,88.9575 C119.209175,88.9575 120.813326,89.2579137 122.26,89.85875 C123.706674,90.4595863 124.949161,91.3141611 125.9875,92.4225 C127.025839,93.5308389 127.83083,94.8637422 128.4025,96.42125 C128.97417,97.9787578 129.26,99.7083238 129.26,101.61 Z M127.405,101.61 C127.405,99.8833247 127.165836,98.3316736 126.6875,96.955 C126.209164,95.5783264 125.535421,94.4116715 124.66625,93.455 C123.797079,92.4983285 122.750006,91.7662525 121.525,91.25875 C120.299994,90.7512475 118.940841,90.4975 117.4475,90.4975 C115.977493,90.4975 114.632923,90.7512475 113.41375,91.25875 C112.194577,91.7662525 111.144588,92.4983285 110.26375,93.455 C109.382912,94.4116715 108.700419,95.5783264 108.21625,96.955 C107.732081,98.3316736 107.49,99.8833247 107.49,101.61 C107.49,103.348342 107.732081,104.90291 108.21625,106.27375 C108.700419,107.64459 109.382912,108.808329 110.26375,109.765 C111.144588,110.721671 112.194577,111.450831 113.41375,111.9525 C114.632923,112.454169 115.977493,112.705 117.4475,112.705 C118.940841,112.705 120.299994,112.454169 121.525,111.9525 C122.750006,111.450831 123.797079,110.721671 124.66625,109.765 C125.535421,108.808329 126.209164,107.64459 126.6875,106.27375 C127.165836,104.90291 127.405,103.348342 127.405,101.61 Z M136.3975,104.025 L136.3975,114 L134.6125,114 L134.6125,89.2375 L141,89.2375 C143.905015,89.2375 146.095409,89.873327 147.57125,91.145 C149.047091,92.416673 149.785,94.2308216 149.785,96.5875 C149.785,97.6725054 149.583752,98.6699954 149.18125,99.58 C148.778748,100.490005 148.198337,101.27458 147.44,101.93375 C146.681663,102.59292 145.760005,103.106248 144.675,103.47375 C143.589995,103.841252 142.365007,104.025 141,104.025 L136.3975,104.025 Z M136.3975,102.59 L141,102.59 C142.096672,102.59 143.076662,102.438335 143.94,102.135 C144.803338,101.831665 145.535414,101.411669 146.13625,100.875 C146.737086,100.338331 147.197915,99.7054203 147.51875,98.97625 C147.839585,98.2470797 148,97.4508376 148,96.5875 C148,94.6858238 147.413756,93.2216718 146.24125,92.195 C145.068744,91.1683282 143.321678,90.655 141,90.655 L136.3975,90.655 L136.3975,102.59 Z M168.7,89.2375 L168.7,90.725 L155.6625,90.725 L155.6625,100.735 L166.5125,100.735 L166.5125,102.1875 L155.6625,102.1875 L155.6625,112.5125 L168.7,112.5125 L168.7,114 L153.86,114 L153.86,89.2375 L168.7,89.2375 Z M174.42,89.2375 C174.583334,89.2375 174.711666,89.2579165 174.805,89.29875 C174.898334,89.3395835 174.997499,89.4299993 175.1025,89.57 L191.1325,111.025 C191.0975,110.674998 191.08,110.336668 191.08,110.01 L191.08,89.2375 L192.655,89.2375 L192.655,114 L191.7975,114 C191.529165,114 191.313334,113.883334 191.15,113.65 L175.05,92.16 C175.085,92.5100018 175.1025,92.8424984 175.1025,93.1575 L175.1025,114 L173.545,114 L173.545,89.2375 L174.42,89.2375 Z" id="The-Guide-to" fill="#FFFFFF" sketch:type="MSShapeGroup"></path>
    </g>
</svg>