<?xml version="1.0" encoding="UTF-8" standalone="no"?>
<svg width="248px" height="122px" viewBox="0 0 248 122" version="1.1" xmlns="http://www.w3.org/2000/svg" xmlns:xlink="http://www.w3.org/1999/xlink" xmlns:sketch="http://www.bohemiancoding.com/sketch/ns">
    <title>Untitled 17</title>
    <description>Created with Sketch (http://www.bohemiancoding.com/sketch)</description>
    <defs></defs>
    <g id="Page-1" stroke="none" stroke-width="1" fill="none" fill-rule="evenodd" sketch:type="MSPage">
        <path d="M1.5,84.5 L246.899673,84.5" id="Line" stroke="#FFFFFF" stroke-linecap="square" sketch:type="MSShapeGroup"></path>
        <path d="M63.054,33.258 C63.054,38.2873585 62.3026742,42.8489795 60.8,46.943 C59.2973258,51.0370205 57.181347,54.5329855 54.452,57.431 C51.722653,60.3290145 48.4566857,62.5676588 44.654,64.147 C40.8513143,65.7263412 36.6346898,66.516 32.004,66.516 C27.4346438,66.516 23.2486857,65.7263412 19.446,64.147 C15.6433143,62.5676588 12.377347,60.3290145 9.648,57.431 C6.91865302,54.5329855 4.79500759,51.0370205 3.277,46.943 C1.75899241,42.8489795 1,38.2873585 1,33.258 C1,28.2593083 1.75899241,23.7130205 3.277,19.619 C4.79500759,15.5249795 6.91865302,12.0290145 9.648,9.131 C12.377347,6.23298551 15.6433143,3.98667464 19.446,2.392 C23.2486857,0.79732536 27.4346438,0 32.004,0 C36.6346898,0 40.8513143,0.78965877 44.654,2.369 C48.4566857,3.94834123 51.722653,6.1946521 54.452,9.108 C57.181347,12.0213479 59.2973258,15.5249795 60.8,19.619 C62.3026742,23.7130205 63.054,28.2593083 63.054,33.258 Z M58.178,33.258 C58.178,28.7193106 57.5493396,24.6406848 56.292,21.022 C55.0346604,17.4033152 53.2636781,14.3366792 50.979,11.822 C48.6943219,9.30732076 45.9420161,7.38300667 42.722,6.049 C39.5019839,4.71499333 35.929353,4.048 32.004,4.048 C28.1399807,4.048 24.6056827,4.71499333 21.401,6.049 C18.1963173,7.38300667 15.4363449,9.30732076 13.121,11.822 C10.8056551,14.3366792 9.01167303,17.4033152 7.739,21.022 C6.46632697,24.6406848 5.83,28.7193106 5.83,33.258 C5.83,37.8273562 6.46632697,41.9136486 7.739,45.517 C9.01167303,49.1203513 10.8056551,52.1793208 13.121,54.694 C15.4363449,57.2086792 18.1963173,59.1253267 21.401,60.444 C24.6056827,61.7626733 28.1399807,62.422 32.004,62.422 C35.929353,62.422 39.5019839,61.7626733 42.722,60.444 C45.9420161,59.1253267 48.6943219,57.2086792 50.979,54.694 C53.2636781,52.1793208 55.0346604,49.1203513 56.292,45.517 C57.5493396,41.9136486 58.178,37.8273562 58.178,33.258 Z M106.736,8.648 C106.459999,9.16933594 106.061336,9.43 105.54,9.43 C105.141331,9.43 104.62767,9.14633617 103.999,8.579 C103.37033,8.01166383 102.519339,7.38300345 101.446,6.693 C100.372661,6.00299655 99.0310081,5.36666958 97.4210001,4.784 C95.810992,4.20133042 93.8253452,3.91 91.4640001,3.91 C89.102655,3.91 87.0250091,4.24732996 85.2310001,4.922 C83.4369911,5.59667004 81.9343395,6.51666084 80.7230001,7.682 C79.5116607,8.84733916 78.5916699,10.196659 77.9630001,11.73 C77.3343303,13.263341 77.0200001,14.8733249 77.0200001,16.56 C77.0200001,18.768011 77.4876621,20.5926595 78.4230001,22.034 C79.3583381,23.4753405 80.5926591,24.7019949 82.1260001,25.714 C83.6593411,26.7260051 85.399657,27.5769965 87.3470001,28.267 C89.2943432,28.9570034 91.2953232,29.63933 93.3500001,30.314 C95.404677,30.98867 97.405657,31.7323293 99.3530001,32.545 C101.300343,33.3576707 103.040659,34.3773272 104.574,35.604 C106.107341,36.8306728 107.341662,38.340991 108.277,40.135 C109.212338,41.929009 109.68,44.1599867 109.68,46.828 C109.68,49.557347 109.212338,52.1256546 108.277,54.533 C107.341662,56.9403454 105.984676,59.0333244 104.206,60.812 C102.427325,62.5906756 100.250013,63.9936615 97.6740001,65.021 C95.0979872,66.0483385 92.1540167,66.562 88.8420001,66.562 C84.5486453,66.562 80.8533489,65.8030076 77.7560001,64.285 C74.6586513,62.7669924 71.9446784,60.6893465 69.6140001,58.052 L70.9020001,56.028 C71.2700019,55.5679977 71.699331,55.338 72.1900001,55.338 C72.4660015,55.338 72.8186646,55.5219982 73.2480001,55.89 C73.6773356,56.2580018 74.1986637,56.7103307 74.8120001,57.247 C75.4253365,57.7836693 76.1613291,58.3663302 77.0200001,58.995 C77.8786711,59.6236698 78.8753278,60.2063306 80.0100001,60.743 C81.1446724,61.2796693 82.4479927,61.7319982 83.9200001,62.1 C85.3920075,62.4680018 87.0633241,62.652 88.9340001,62.652 C91.510013,62.652 93.80999,62.2610039 95.8340001,61.479 C97.8580102,60.6969961 99.5676598,59.6313401 100.963,58.282 C102.35834,56.9326599 103.423996,55.3303426 104.16,53.475 C104.896004,51.6196574 105.264,49.6340106 105.264,47.518 C105.264,45.2179885 104.796338,43.3243408 103.861,41.837 C102.925662,40.3496592 101.691341,39.1076716 100.158,38.111 C98.6246591,37.1143283 96.8843432,36.27867 94.9370001,35.604 C92.989657,34.92933 90.988677,34.2700032 88.9340001,33.626 C86.8793232,32.9819968 84.8783432,32.2613373 82.9310001,31.464 C80.983657,30.6666627 79.2433411,29.6470062 77.7100001,28.405 C76.1766591,27.1629938 74.9423381,25.6143426 74.0070001,23.759 C73.0716621,21.9036574 72.6040001,19.5806806 72.6040001,16.79 C72.6040001,14.6126558 73.017996,12.5120101 73.8460001,10.488 C74.6740042,8.46398988 75.8853255,6.67767441 77.4800001,5.129 C79.0746747,3.58032559 81.0449884,2.33833801 83.3910001,1.403 C85.7370118,0.46766199 88.4126517,0 91.4180001,0 C94.7913503,0 97.8196533,0.5366613 100.503,1.61 C103.186347,2.6833387 105.631989,4.32398896 107.84,6.532 L106.736,8.648 Z M178.294,33.258 C178.294,38.2873585 177.542674,42.8489795 176.04,46.943 C174.537326,51.0370205 172.421347,54.5329855 169.692,57.431 C166.962653,60.3290145 163.696686,62.5676588 159.894,64.147 C156.091315,65.7263412 151.87469,66.516 147.244,66.516 C142.674644,66.516 138.488686,65.7263412 134.686,64.147 C130.883315,62.5676588 127.617347,60.3290145 124.888,57.431 C122.158653,54.5329855 120.035008,51.0370205 118.517,46.943 C116.998993,42.8489795 116.24,38.2873585 116.24,33.258 C116.24,28.2593083 116.998993,23.7130205 118.517,19.619 C120.035008,15.5249795 122.158653,12.0290145 124.888,9.131 C127.617347,6.23298551 130.883315,3.98667464 134.686,2.392 C138.488686,0.79732536 142.674644,0 147.244,0 C151.87469,0 156.091315,0.78965877 159.894,2.369 C163.696686,3.94834123 166.962653,6.1946521 169.692,9.108 C172.421347,12.0213479 174.537326,15.5249795 176.04,19.619 C177.542674,23.7130205 178.294,28.2593083 178.294,33.258 Z M173.418,33.258 C173.418,28.7193106 172.78934,24.6406848 171.532,21.022 C170.274661,17.4033152 168.503678,14.3366792 166.219,11.822 C163.934322,9.30732076 161.182016,7.38300667 157.962,6.049 C154.741984,4.71499333 151.169353,4.048 147.244,4.048 C143.379981,4.048 139.845683,4.71499333 136.641,6.049 C133.436318,7.38300667 130.676345,9.30732076 128.361,11.822 C126.045655,14.3366792 124.251673,17.4033152 122.979,21.022 C121.706327,24.6406848 121.07,28.7193106 121.07,33.258 C121.07,37.8273562 121.706327,41.9136486 122.979,45.517 C124.251673,49.1203513 126.045655,52.1793208 128.361,54.694 C130.676345,57.2086792 133.436318,59.1253267 136.641,60.444 C139.845683,61.7626733 143.379981,62.422 147.244,62.422 C151.169353,62.422 154.741984,61.7626733 157.962,60.444 C161.182016,59.1253267 163.934322,57.2086792 166.219,54.694 C168.503678,52.1793208 170.274661,49.1203513 171.532,45.517 C172.78934,41.9136486 173.418,37.8273562 173.418,33.258 Z M245.298,33.258 C245.298,38.2873585 244.546674,42.8106466 243.044,46.828 C241.541326,50.8453534 239.425347,54.2646526 236.696,57.086 C233.966653,59.9073474 230.700686,62.0693258 226.898,63.572 C223.095315,65.0746742 218.87869,65.826 214.248,65.826 L190.512,65.826 L190.512,0.736 L214.248,0.736 C218.87869,0.736 223.095315,1.48732582 226.898,2.99 C230.700686,4.49267418 233.966653,6.65465256 236.696,9.476 C239.425347,12.2973474 241.541326,15.7166466 243.044,19.734 C244.546674,23.7513534 245.298,28.2593083 245.298,33.258 Z M240.422,33.258 C240.422,28.7193106 239.79334,24.6713511 238.536,21.114 C237.278661,17.5566489 235.507678,14.5513456 233.223,12.098 C230.938322,9.6446544 228.186016,7.77400644 224.966,6.486 C221.745984,5.19799356 218.173353,4.554 214.248,4.554 L195.25,4.554 L195.25,62.008 L214.248,62.008 C218.173353,62.008 221.745984,61.3640064 224.966,60.076 C228.186016,58.7879936 230.938322,56.9173456 233.223,54.464 C235.507678,52.0106544 237.278661,49.0053511 238.536,45.448 C239.79334,41.8906489 240.422,37.8273562 240.422,33.258 Z" id="OSOD" fill="#FFFFFF" sketch:type="MSShapeGroup"></path>
        <path d="M16.188,108.676 C16.188,109.988007 15.992002,111.177995 15.6,112.246 C15.207998,113.314005 14.6560036,114.225996 13.944,114.982 C13.2319964,115.738004 12.380005,116.321998 11.388,116.734 C10.395995,117.146002 9.29600604,117.352 8.088,117.352 C6.89599404,117.352 5.80400496,117.146002 4.812,116.734 C3.81999504,116.321998 2.96800356,115.738004 2.256,114.982 C1.54399644,114.225996 0.99000198,113.314005 0.594,112.246 C0.19799802,111.177995 0,109.988007 0,108.676 C0,107.371993 0.19799802,106.186005 0.594,105.118 C0.99000198,104.049995 1.54399644,103.138004 2.256,102.382 C2.96800356,101.625996 3.81999504,101.040002 4.812,100.624 C5.80400496,100.207998 6.89599404,100 8.088,100 C9.29600604,100 10.395995,100.205998 11.388,100.618 C12.380005,101.030002 13.2319964,101.615996 13.944,102.376 C14.6560036,103.136004 15.207998,104.049995 15.6,105.118 C15.992002,106.186005 16.188,107.371993 16.188,108.676 Z M14.916,108.676 C14.916,107.491994 14.7520016,106.428005 14.424,105.484 C14.0959984,104.539995 13.634003,103.740003 13.038,103.084 C12.441997,102.427997 11.7240042,101.926002 10.884,101.578 C10.0439958,101.229998 9.11200512,101.056 8.088,101.056 C7.07999496,101.056 6.15800418,101.229998 5.322,101.578 C4.48599582,101.926002 3.76600302,102.427997 3.162,103.084 C2.55799698,103.740003 2.09000166,104.539995 1.758,105.484 C1.42599834,106.428005 1.26,107.491994 1.26,108.676 C1.26,109.868006 1.42599834,110.933995 1.758,111.874 C2.09000166,112.814005 2.55799698,113.611997 3.162,114.268 C3.76600302,114.924003 4.48599582,115.423998 5.322,115.768 C6.15800418,116.112002 7.07999496,116.284 8.088,116.284 C9.11200512,116.284 10.0439958,116.112002 10.884,115.768 C11.7240042,115.423998 12.441997,114.924003 13.038,114.268 C13.634003,113.611997 14.0959984,112.814005 14.424,111.874 C14.7520016,110.933995 14.916,109.868006 14.916,108.676 Z M19.608,121.396 L19.608,105.232 L20.232,105.232 C20.3360005,105.232 20.4199997,105.254 20.484,105.298 C20.5480003,105.342 20.584,105.419999 20.592,105.532 L20.7,107.38 C21.2280026,106.659996 21.8459965,106.088002 22.554,105.664 C23.2620035,105.239998 24.0559956,105.028 24.936,105.028 C26.4080074,105.028 27.5519959,105.535995 28.368,106.552 C29.1840041,107.568005 29.592,109.09199 29.592,111.124 C29.592,111.996004 29.4780011,112.809996 29.25,113.566 C29.0219989,114.322004 28.6880022,114.977997 28.248,115.534 C27.8079978,116.090003 27.2660032,116.527998 26.622,116.848 C25.9779968,117.168002 25.2360042,117.328 24.396,117.328 C23.5799959,117.328 22.876003,117.180001 22.284,116.884 C21.691997,116.587999 21.1800022,116.148003 20.748,115.564 L20.748,121.396 L19.608,121.396 Z M24.612,105.952 C23.819996,105.952 23.1020032,106.157998 22.458,106.57 C21.8139968,106.982002 21.2440025,107.555996 20.748,108.292 L20.748,114.556 C21.2040023,115.244003 21.7099972,115.727999 22.266,116.008 C22.8220028,116.288001 23.4559964,116.428 24.168,116.428 C24.8720035,116.428 25.4879974,116.300001 26.016,116.044 C26.5440026,115.787999 26.9859982,115.426002 27.342,114.958 C27.6980018,114.489998 27.9659991,113.930003 28.146,113.278 C28.3260009,112.625997 28.416,111.908004 28.416,111.124 C28.416,109.347991 28.0900033,108.042004 27.438,107.206 C26.7859967,106.369996 25.8440062,105.952 24.612,105.952 Z M36.948,105.04 C37.6200034,105.04 38.2419971,105.155999 38.814,105.388 C39.3860029,105.620001 39.8819979,105.957998 40.302,106.402 C40.7220021,106.846002 41.0499988,107.391997 41.286,108.04 C41.5220012,108.688003 41.64,109.431996 41.64,110.272 C41.64,110.448001 41.6140003,110.568 41.562,110.632 C41.5099997,110.696 41.4280006,110.728 41.316,110.728 L32.688,110.728 L32.688,110.956 C32.688,111.852004 32.791999,112.639997 33,113.32 C33.208001,114.000003 33.5039981,114.569998 33.888,115.03 C34.2720019,115.490002 34.7359973,115.835999 35.28,116.068 C35.8240027,116.300001 36.4319966,116.416 37.104,116.416 C37.704003,116.416 38.2239978,116.350001 38.664,116.218 C39.1040022,116.085999 39.4739985,115.938001 39.774,115.774 C40.0740015,115.609999 40.3119991,115.462001 40.488,115.33 C40.6640009,115.197999 40.7919996,115.132 40.872,115.132 C40.9760005,115.132 41.0559997,115.172 41.112,115.252 L41.424,115.636 C41.231999,115.876001 40.9780016,116.099999 40.662,116.308 C40.3459984,116.516001 39.9940019,116.693999 39.606,116.842 C39.2179981,116.990001 38.8020022,117.108 38.358,117.196 C37.9139978,117.284 37.4680022,117.328 37.02,117.328 C36.2039959,117.328 35.4600034,117.186001 34.788,116.902 C34.1159966,116.617999 33.5400024,116.204003 33.06,115.66 C32.5799976,115.115997 32.2100013,114.450004 31.95,113.662 C31.6899987,112.873996 31.56,111.972005 31.56,110.956 C31.56,110.099996 31.6819988,109.310004 31.926,108.586 C32.1700012,107.861996 32.5219977,107.238003 32.982,106.714 C33.4420023,106.189997 34.0059967,105.780001 34.674,105.484 C35.3420033,105.187999 36.0999958,105.04 36.948,105.04 Z M36.96,105.892 C36.3439969,105.892 35.7920024,105.987999 35.304,106.18 C34.8159976,106.372001 34.3940018,106.647998 34.038,107.008 C33.6819982,107.368002 33.3940011,107.799997 33.174,108.304 C32.9539989,108.808003 32.8080004,109.371997 32.736,109.996 L40.608,109.996 C40.608,109.355997 40.5200009,108.782003 40.344,108.274 C40.1679991,107.765997 39.9200016,107.336002 39.6,106.984 C39.2799984,106.631998 38.8960022,106.362001 38.448,106.174 C37.9999978,105.985999 37.5040027,105.892 36.96,105.892 Z M44.712,117.172 L44.712,105.232 L45.336,105.232 C45.544001,105.232 45.6639998,105.331999 45.696,105.532 L45.804,107.332 C46.3480027,106.643997 46.9819964,106.090002 47.706,105.67 C48.4300036,105.249998 49.2359956,105.04 50.124,105.04 C50.7800033,105.04 51.3579975,105.143999 51.858,105.352 C52.3580025,105.560001 52.7719984,105.859998 53.1,106.252 C53.4280016,106.644002 53.6759992,107.115997 53.844,107.668 C54.0120008,108.220003 54.096,108.843997 54.096,109.54 L54.096,117.172 L52.956,117.172 L52.956,109.54 C52.956,108.419994 52.7000026,107.542003 52.188,106.906 C51.6759974,106.269997 50.8920053,105.952 49.836,105.952 C49.0519961,105.952 48.3240034,106.153998 47.652,106.558 C46.9799966,106.962002 46.3800026,107.515996 45.852,108.22 L45.852,117.172 L44.712,117.172 Z M71.112,102.256 C71.0399996,102.392001 70.9360007,102.46 70.8,102.46 C70.6959995,102.46 70.5620008,102.386001 70.398,102.238 C70.2339992,102.089999 70.0120014,101.926001 69.732,101.746 C69.4519986,101.565999 69.1020021,101.400001 68.682,101.248 C68.2619979,101.095999 67.7440031,101.02 67.128,101.02 C66.5119969,101.02 65.9700023,101.107999 65.502,101.284 C65.0339977,101.460001 64.6420016,101.699998 64.326,102.004 C64.0099984,102.308002 63.7700008,102.659998 63.606,103.06 C63.4419992,103.460002 63.36,103.879998 63.36,104.32 C63.36,104.896003 63.4819988,105.371998 63.726,105.748 C63.9700012,106.124002 64.291998,106.443999 64.692,106.708 C65.092002,106.972001 65.5459975,107.193999 66.054,107.374 C66.5620025,107.554001 67.0839973,107.731999 67.62,107.908 C68.1560027,108.084001 68.6779975,108.277999 69.186,108.49 C69.6940025,108.702001 70.147998,108.967998 70.548,109.288 C70.948002,109.608002 71.2699988,110.001998 71.514,110.47 C71.7580012,110.938002 71.88,111.519997 71.88,112.216 C71.88,112.928004 71.7580012,113.597997 71.514,114.226 C71.2699988,114.854003 70.9160023,115.399998 70.452,115.864 C69.9879977,116.328002 69.4200034,116.693999 68.748,116.962 C68.0759966,117.230001 67.3080043,117.364 66.444,117.364 C65.3239944,117.364 64.360004,117.166002 63.552,116.77 C62.743996,116.373998 62.036003,115.832003 61.428,115.144 L61.764,114.616 C61.8600005,114.495999 61.9719994,114.436 62.1,114.436 C62.1720004,114.436 62.2639994,114.484 62.376,114.58 C62.4880006,114.676 62.6239992,114.793999 62.784,114.934 C62.9440008,115.074001 63.1359989,115.225999 63.36,115.39 C63.5840011,115.554001 63.8439985,115.705999 64.14,115.846 C64.4360015,115.986001 64.7759981,116.104 65.16,116.2 C65.5440019,116.296 65.9799976,116.344 66.468,116.344 C67.1400034,116.344 67.7399974,116.242001 68.268,116.038 C68.7960026,115.833999 69.2419982,115.556002 69.606,115.204 C69.9700018,114.851998 70.247999,114.434002 70.44,113.95 C70.632001,113.465998 70.728,112.948003 70.728,112.396 C70.728,111.795997 70.6060012,111.302002 70.362,110.914 C70.1179988,110.525998 69.796002,110.202001 69.396,109.942 C68.995998,109.681999 68.5420025,109.464001 68.034,109.288 C67.5259975,109.111999 67.0040027,108.940001 66.468,108.772 C65.9319973,108.603999 65.4100025,108.416001 64.902,108.208 C64.3939975,107.999999 63.940002,107.734002 63.54,107.41 C63.139998,107.085998 62.8180012,106.682002 62.574,106.198 C62.3299988,105.713998 62.208,105.108004 62.208,104.38 C62.208,103.811997 62.3159989,103.264003 62.532,102.736 C62.7480011,102.207997 63.0639979,101.742002 63.48,101.338 C63.8960021,100.933998 64.4099969,100.610001 65.022,100.366 C65.6340031,100.121999 66.3319961,100 67.116,100 C67.9960044,100 68.7859965,100.139999 69.486,100.42 C70.1860035,100.700001 70.8239971,101.127997 71.4,101.704 L71.112,102.256 Z M79.416,105.04 C80.2720043,105.04 81.0379966,105.185999 81.714,105.478 C82.3900034,105.770001 82.9599977,106.183997 83.424,106.72 C83.8880023,107.256003 84.2419988,107.901996 84.486,108.658 C84.7300012,109.414004 84.852,110.259995 84.852,111.196 C84.852,112.132005 84.7300012,112.975996 84.486,113.728 C84.2419988,114.480004 83.8880023,115.123997 83.424,115.66 C82.9599977,116.196003 82.3900034,116.607999 81.714,116.896 C81.0379966,117.184001 80.2720043,117.328 79.416,117.328 C78.5599957,117.328 77.7940034,117.184001 77.118,116.896 C76.4419966,116.607999 75.8700023,116.196003 75.402,115.66 C74.9339977,115.123997 74.5780012,114.480004 74.334,113.728 C74.0899988,112.975996 73.968,112.132005 73.968,111.196 C73.968,110.259995 74.0899988,109.414004 74.334,108.658 C74.5780012,107.901996 74.9339977,107.256003 75.402,106.72 C75.8700023,106.183997 76.4419966,105.770001 77.118,105.478 C77.7940034,105.185999 78.5599957,105.04 79.416,105.04 Z M79.416,116.428 C80.1280036,116.428 80.7499973,116.306001 81.282,116.062 C81.8140027,115.817999 82.2579982,115.468002 82.614,115.012 C82.9700018,114.555998 83.2359991,114.006003 83.412,113.362 C83.5880009,112.717997 83.676,111.996004 83.676,111.196 C83.676,110.403996 83.5880009,109.684003 83.412,109.036 C83.2359991,108.387997 82.9700018,107.834002 82.614,107.374 C82.2579982,106.913998 81.8140027,106.560001 81.282,106.312 C80.7499973,106.063999 80.1280036,105.94 79.416,105.94 C78.7039964,105.94 78.0820027,106.063999 77.55,106.312 C77.0179973,106.560001 76.5740018,106.913998 76.218,107.374 C75.8619982,107.834002 75.5940009,108.387997 75.414,109.036 C75.2339991,109.684003 75.144,110.403996 75.144,111.196 C75.144,111.996004 75.2339991,112.717997 75.414,113.362 C75.5940009,114.006003 75.8619982,114.555998 76.218,115.012 C76.5740018,115.468002 77.0179973,115.817999 77.55,116.062 C78.0820027,116.306001 78.7039964,116.428 79.416,116.428 Z M88.704,105.232 L88.704,112.864 C88.704,113.984006 88.9599974,114.861997 89.472,115.498 C89.9840026,116.134003 90.7639948,116.452 91.812,116.452 C92.5880039,116.452 93.3119966,116.254002 93.984,115.858 C94.6560034,115.461998 95.2599973,114.912004 95.796,114.208 L95.796,105.232 L96.948,105.232 L96.948,117.172 L96.312,117.172 C96.0879989,117.172 95.972,117.068001 95.964,116.86 L95.856,115.084 C95.3039972,115.772003 94.6660036,116.323998 93.942,116.74 C93.2179964,117.156002 92.4120044,117.364 91.524,117.364 C90.8599967,117.364 90.2800025,117.260001 89.784,117.052 C89.2879975,116.843999 88.8760016,116.544002 88.548,116.152 C88.2199984,115.759998 87.9720008,115.288003 87.804,114.736 C87.6359992,114.183997 87.552,113.560003 87.552,112.864 L87.552,105.232 L88.704,105.232 Z M100.836,117.172 L100.836,105.232 L101.436,105.232 C101.572001,105.232 101.67,105.26 101.73,105.316 C101.79,105.372 101.824,105.467999 101.832,105.604 L101.928,108.124 C102.312002,107.155995 102.823997,106.398003 103.464,105.85 C104.104003,105.301997 104.891995,105.028 105.828,105.028 C106.188002,105.028 106.519998,105.066 106.824,105.142 C107.128002,105.218 107.415999,105.327999 107.688,105.472 L107.532,106.264 C107.508,106.392001 107.428001,106.456 107.292,106.456 C107.244,106.456 107.176,106.44 107.088,106.408 C107,106.376 106.890001,106.34 106.758,106.3 C106.625999,106.26 106.464001,106.224 106.272,106.192 C106.079999,106.16 105.860001,106.144 105.612,106.144 C104.707995,106.144 103.966003,106.423997 103.386,106.984 C102.805997,107.544003 102.336002,108.351995 101.976,109.408 L101.976,117.172 L100.836,117.172 Z M118.224,106.828 C118.184,106.868 118.146,106.902 118.11,106.93 C118.074,106.958 118.024,106.972 117.96,106.972 C117.88,106.972 117.770001,106.918001 117.63,106.81 C117.489999,106.701999 117.304001,106.584001 117.072,106.456 C116.839999,106.327999 116.550002,106.210001 116.202,106.102 C115.853998,105.993999 115.432002,105.94 114.936,105.94 C114.247997,105.94 113.638003,106.061999 113.106,106.306 C112.573997,106.550001 112.126002,106.899998 111.762,107.356 C111.397998,107.812002 111.120001,108.363997 110.928,109.012 C110.735999,109.660003 110.64,110.387996 110.64,111.196 C110.64,112.036004 110.737999,112.779997 110.934,113.428 C111.130001,114.076003 111.407998,114.621998 111.768,115.066 C112.128002,115.510002 112.563997,115.847999 113.076,116.08 C113.588003,116.312001 114.155997,116.428 114.78,116.428 C115.356003,116.428 115.837998,116.360001 116.226,116.224 C116.614002,116.087999 116.933999,115.940001 117.186,115.78 C117.438001,115.619999 117.637999,115.472001 117.786,115.336 C117.934001,115.199999 118.052,115.132 118.14,115.132 C118.244001,115.132 118.324,115.172 118.38,115.252 L118.692,115.636 C118.507999,115.876001 118.276001,116.099999 117.996,116.308 C117.715999,116.516001 117.400002,116.695999 117.048,116.848 C116.695998,117.000001 116.314002,117.118 115.902,117.202 C115.489998,117.286 115.060002,117.328 114.612,117.328 C113.851996,117.328 113.158003,117.190001 112.53,116.914 C111.901997,116.637999 111.362002,116.238003 110.91,115.714 C110.457998,115.189997 110.106001,114.548004 109.854,113.788 C109.601999,113.027996 109.476,112.164005 109.476,111.196 C109.476,110.283995 109.595999,109.452004 109.836,108.7 C110.076001,107.947996 110.425998,107.300003 110.886,106.756 C111.346002,106.211997 111.909997,105.790001 112.578,105.49 C113.246003,105.189999 114.011996,105.04 114.876,105.04 C115.652004,105.04 116.341997,105.163999 116.946,105.412 C117.550003,105.660001 118.075998,105.995998 118.524,106.42 L118.224,106.828 Z M125.784,105.04 C126.456003,105.04 127.077997,105.155999 127.65,105.388 C128.222003,105.620001 128.717998,105.957998 129.138,106.402 C129.558002,106.846002 129.885999,107.391997 130.122,108.04 C130.358001,108.688003 130.476,109.431996 130.476,110.272 C130.476,110.448001 130.45,110.568 130.398,110.632 C130.346,110.696 130.264001,110.728 130.152,110.728 L121.524,110.728 L121.524,110.956 C121.524,111.852004 121.627999,112.639997 121.836,113.32 C122.044001,114.000003 122.339998,114.569998 122.724,115.03 C123.108002,115.490002 123.571997,115.835999 124.116,116.068 C124.660003,116.300001 125.267997,116.416 125.94,116.416 C126.540003,116.416 127.059998,116.350001 127.5,116.218 C127.940002,116.085999 128.309999,115.938001 128.61,115.774 C128.910001,115.609999 129.147999,115.462001 129.324,115.33 C129.500001,115.197999 129.628,115.132 129.708,115.132 C129.812001,115.132 129.892,115.172 129.948,115.252 L130.26,115.636 C130.067999,115.876001 129.814002,116.099999 129.498,116.308 C129.181998,116.516001 128.830002,116.693999 128.442,116.842 C128.053998,116.990001 127.638002,117.108 127.194,117.196 C126.749998,117.284 126.304002,117.328 125.856,117.328 C125.039996,117.328 124.296003,117.186001 123.624,116.902 C122.951997,116.617999 122.376002,116.204003 121.896,115.66 C121.415998,115.115997 121.046001,114.450004 120.786,113.662 C120.525999,112.873996 120.396,111.972005 120.396,110.956 C120.396,110.099996 120.517999,109.310004 120.762,108.586 C121.006001,107.861996 121.357998,107.238003 121.818,106.714 C122.278002,106.189997 122.841997,105.780001 123.51,105.484 C124.178003,105.187999 124.935996,105.04 125.784,105.04 Z M125.796,105.892 C125.179997,105.892 124.628002,105.987999 124.14,106.18 C123.651998,106.372001 123.230002,106.647998 122.874,107.008 C122.517998,107.368002 122.230001,107.799997 122.01,108.304 C121.789999,108.808003 121.644,109.371997 121.572,109.996 L129.444,109.996 C129.444,109.355997 129.356001,108.782003 129.18,108.274 C129.003999,107.765997 128.756002,107.336002 128.436,106.984 C128.115998,106.631998 127.732002,106.362001 127.284,106.174 C126.835998,105.985999 126.340003,105.892 125.796,105.892 Z M153.9,108.676 C153.9,109.988007 153.704002,111.177995 153.312,112.246 C152.919998,113.314005 152.368004,114.225996 151.656,114.982 C150.943996,115.738004 150.092005,116.321998 149.1,116.734 C148.107995,117.146002 147.008006,117.352 145.8,117.352 C144.607994,117.352 143.516005,117.146002 142.524,116.734 C141.531995,116.321998 140.680004,115.738004 139.968,114.982 C139.255996,114.225996 138.702002,113.314005 138.306,112.246 C137.909998,111.177995 137.712,109.988007 137.712,108.676 C137.712,107.371993 137.909998,106.186005 138.306,105.118 C138.702002,104.049995 139.255996,103.138004 139.968,102.382 C140.680004,101.625996 141.531995,101.040002 142.524,100.624 C143.516005,100.207998 144.607994,100 145.8,100 C147.008006,100 148.107995,100.205998 149.1,100.618 C150.092005,101.030002 150.943996,101.615996 151.656,102.376 C152.368004,103.136004 152.919998,104.049995 153.312,105.118 C153.704002,106.186005 153.9,107.371993 153.9,108.676 Z M152.628,108.676 C152.628,107.491994 152.464002,106.428005 152.136,105.484 C151.807998,104.539995 151.346003,103.740003 150.75,103.084 C150.153997,102.427997 149.436004,101.926002 148.596,101.578 C147.755996,101.229998 146.824005,101.056 145.8,101.056 C144.791995,101.056 143.870004,101.229998 143.034,101.578 C142.197996,101.926002 141.478003,102.427997 140.874,103.084 C140.269997,103.740003 139.802002,104.539995 139.47,105.484 C139.137998,106.428005 138.972,107.491994 138.972,108.676 C138.972,109.868006 139.137998,110.933995 139.47,111.874 C139.802002,112.814005 140.269997,113.611997 140.874,114.268 C141.478003,114.924003 142.197996,115.423998 143.034,115.768 C143.870004,116.112002 144.791995,116.284 145.8,116.284 C146.824005,116.284 147.755996,116.112002 148.596,115.768 C149.436004,115.423998 150.153997,114.924003 150.75,114.268 C151.346003,113.611997 151.807998,112.814005 152.136,111.874 C152.464002,110.933995 152.628,109.868006 152.628,108.676 Z M157.32,121.396 L157.32,105.232 L157.944,105.232 C158.048001,105.232 158.132,105.254 158.196,105.298 C158.26,105.342 158.296,105.419999 158.304,105.532 L158.412,107.38 C158.940003,106.659996 159.557996,106.088002 160.266,105.664 C160.974004,105.239998 161.767996,105.028 162.648,105.028 C164.120007,105.028 165.263996,105.535995 166.08,106.552 C166.896004,107.568005 167.304,109.09199 167.304,111.124 C167.304,111.996004 167.190001,112.809996 166.962,113.566 C166.733999,114.322004 166.400002,114.977997 165.96,115.534 C165.519998,116.090003 164.978003,116.527998 164.334,116.848 C163.689997,117.168002 162.948004,117.328 162.108,117.328 C161.291996,117.328 160.588003,117.180001 159.996,116.884 C159.403997,116.587999 158.892002,116.148003 158.46,115.564 L158.46,121.396 L157.32,121.396 Z M162.324,105.952 C161.531996,105.952 160.814003,106.157998 160.17,106.57 C159.525997,106.982002 158.956002,107.555996 158.46,108.292 L158.46,114.556 C158.916002,115.244003 159.421997,115.727999 159.978,116.008 C160.534003,116.288001 161.167996,116.428 161.88,116.428 C162.584004,116.428 163.199997,116.300001 163.728,116.044 C164.256003,115.787999 164.697998,115.426002 165.054,114.958 C165.410002,114.489998 165.677999,113.930003 165.858,113.278 C166.038001,112.625997 166.128,111.908004 166.128,111.124 C166.128,109.347991 165.802003,108.042004 165.15,107.206 C164.497997,106.369996 163.556006,105.952 162.324,105.952 Z M174.66,105.04 C175.332003,105.04 175.953997,105.155999 176.526,105.388 C177.098003,105.620001 177.593998,105.957998 178.014,106.402 C178.434002,106.846002 178.761999,107.391997 178.998,108.04 C179.234001,108.688003 179.352,109.431996 179.352,110.272 C179.352,110.448001 179.326,110.568 179.274,110.632 C179.222,110.696 179.140001,110.728 179.028,110.728 L170.4,110.728 L170.4,110.956 C170.4,111.852004 170.503999,112.639997 170.712,113.32 C170.920001,114.000003 171.215998,114.569998 171.6,115.03 C171.984002,115.490002 172.447997,115.835999 172.992,116.068 C173.536003,116.300001 174.143997,116.416 174.816,116.416 C175.416003,116.416 175.935998,116.350001 176.376,116.218 C176.816002,116.085999 177.185999,115.938001 177.486,115.774 C177.786001,115.609999 178.023999,115.462001 178.2,115.33 C178.376001,115.197999 178.504,115.132 178.584,115.132 C178.688001,115.132 178.768,115.172 178.824,115.252 L179.136,115.636 C178.943999,115.876001 178.690002,116.099999 178.374,116.308 C178.057998,116.516001 177.706002,116.693999 177.318,116.842 C176.929998,116.990001 176.514002,117.108 176.07,117.196 C175.625998,117.284 175.180002,117.328 174.732,117.328 C173.915996,117.328 173.172003,117.186001 172.5,116.902 C171.827997,116.617999 171.252002,116.204003 170.772,115.66 C170.291998,115.115997 169.922001,114.450004 169.662,113.662 C169.401999,112.873996 169.272,111.972005 169.272,110.956 C169.272,110.099996 169.393999,109.310004 169.638,108.586 C169.882001,107.861996 170.233998,107.238003 170.694,106.714 C171.154002,106.189997 171.717997,105.780001 172.386,105.484 C173.054003,105.187999 173.811996,105.04 174.66,105.04 Z M174.672,105.892 C174.055997,105.892 173.504002,105.987999 173.016,106.18 C172.527998,106.372001 172.106002,106.647998 171.75,107.008 C171.393998,107.368002 171.106001,107.799997 170.886,108.304 C170.665999,108.808003 170.52,109.371997 170.448,109.996 L178.32,109.996 C178.32,109.355997 178.232001,108.782003 178.056,108.274 C177.879999,107.765997 177.632002,107.336002 177.312,106.984 C176.991998,106.631998 176.608002,106.362001 176.16,106.174 C175.711998,105.985999 175.216003,105.892 174.672,105.892 Z M182.424,117.172 L182.424,105.232 L183.048,105.232 C183.256001,105.232 183.376,105.331999 183.408,105.532 L183.516,107.332 C184.060003,106.643997 184.693996,106.090002 185.418,105.67 C186.142004,105.249998 186.947996,105.04 187.836,105.04 C188.492003,105.04 189.069998,105.143999 189.57,105.352 C190.070003,105.560001 190.483998,105.859998 190.812,106.252 C191.140002,106.644002 191.387999,107.115997 191.556,107.668 C191.724001,108.220003 191.808,108.843997 191.808,109.54 L191.808,117.172 L190.668,117.172 L190.668,109.54 C190.668,108.419994 190.412003,107.542003 189.9,106.906 C189.387997,106.269997 188.604005,105.952 187.548,105.952 C186.763996,105.952 186.036003,106.153998 185.364,106.558 C184.691997,106.962002 184.092003,107.515996 183.564,108.22 L183.564,117.172 L182.424,117.172 Z M214.908,108.676 C214.908,109.988007 214.712002,111.167995 214.32,112.216 C213.927998,113.264005 213.376004,114.155996 212.664,114.892 C211.951996,115.628004 211.100005,116.191998 210.108,116.584 C209.115995,116.976002 208.016006,117.172 206.808,117.172 L200.616,117.172 L200.616,100.192 L206.808,100.192 C208.016006,100.192 209.115995,100.387998 210.108,100.78 C211.100005,101.172002 211.951996,101.735996 212.664,102.472 C213.376004,103.208004 213.927998,104.099995 214.32,105.148 C214.712002,106.196005 214.908,107.371993 214.908,108.676 Z M213.636,108.676 C213.636,107.491994 213.472002,106.436005 213.144,105.508 C212.815998,104.579995 212.354003,103.796003 211.758,103.156 C211.161997,102.515997 210.444004,102.028002 209.604,101.692 C208.763996,101.355998 207.832005,101.188 206.808,101.188 L201.852,101.188 L201.852,116.176 L206.808,116.176 C207.832005,116.176 208.763996,116.008002 209.604,115.672 C210.444004,115.335998 211.161997,114.848003 211.758,114.208 C212.354003,113.567997 212.815998,112.784005 213.144,111.856 C213.472002,110.927995 213.636,109.868006 213.636,108.676 Z M225.9,117.172 C225.659999,117.172 225.512,117.060001 225.456,116.836 L225.288,115.312 C224.959998,115.632002 224.634002,115.919999 224.31,116.176 C223.985998,116.432001 223.648002,116.647999 223.296,116.824 C222.943998,117.000001 222.564002,117.134 222.156,117.226 C221.747998,117.318 221.300002,117.364 220.812,117.364 C220.403998,117.364 220.008002,117.304001 219.624,117.184 C219.239998,117.063999 218.900001,116.880001 218.604,116.632 C218.307999,116.383999 218.070001,116.066002 217.89,115.678 C217.709999,115.289998 217.62,114.824003 217.62,114.28 C217.62,113.775997 217.763999,113.308002 218.052,112.876 C218.340001,112.443998 218.789997,112.068002 219.402,111.748 C220.014003,111.427998 220.801995,111.172001 221.766,110.98 C222.730005,110.787999 223.887993,110.676 225.24,110.644 L225.24,109.396 C225.24,108.291994 225.002002,107.442003 224.526,106.846 C224.049998,106.249997 223.344005,105.952 222.408,105.952 C221.831997,105.952 221.342002,106.031999 220.938,106.192 C220.533998,106.352001 220.192001,106.527999 219.912,106.72 C219.631999,106.912001 219.404001,107.087999 219.228,107.248 C219.051999,107.408001 218.904001,107.488 218.784,107.488 C218.623999,107.488 218.504,107.416001 218.424,107.272 L218.22,106.924 C218.844003,106.299997 219.499997,105.828002 220.188,105.508 C220.876003,105.187998 221.655996,105.028 222.528,105.028 C223.168003,105.028 223.727998,105.129999 224.208,105.334 C224.688002,105.538001 225.085998,105.829998 225.402,106.21 C225.718002,106.590002 225.955999,107.049997 226.116,107.59 C226.276001,108.130003 226.356,108.731997 226.356,109.396 L226.356,117.172 L225.9,117.172 Z M221.1,116.536 C221.564002,116.536 221.989998,116.486 222.378,116.386 C222.766002,116.286 223.125998,116.146001 223.458,115.966 C223.790002,115.785999 224.099999,115.572001 224.388,115.324 C224.676001,115.075999 224.959999,114.808001 225.24,114.52 L225.24,111.412 C224.103994,111.444 223.126004,111.529999 222.306,111.67 C221.485996,111.810001 220.810003,111.999999 220.278,112.24 C219.745997,112.480001 219.354001,112.765998 219.102,113.098 C218.849999,113.430002 218.724,113.807998 218.724,114.232 C218.724,114.632002 218.789999,114.977999 218.922,115.27 C219.054001,115.562001 219.227999,115.801999 219.444,115.99 C219.660001,116.178001 219.911999,116.316 220.2,116.404 C220.488001,116.492 220.787998,116.536 221.1,116.536 Z M233.22,117.364 C232.411996,117.364 231.782002,117.140002 231.33,116.692 C230.877998,116.243998 230.652,115.552005 230.652,114.616 L230.652,106.456 L228.936,106.456 C228.848,106.456 228.776,106.432 228.72,106.384 C228.664,106.336 228.636,106.268 228.636,106.18 L228.636,105.736 L230.676,105.592 L230.964,101.32 C230.972,101.248 231.002,101.184 231.054,101.128 C231.106,101.072 231.176,101.044 231.264,101.044 L231.804,101.044 L231.804,105.604 L235.56,105.604 L235.56,106.456 L231.804,106.456 L231.804,114.556 C231.804,114.884002 231.846,115.165999 231.93,115.402 C232.014,115.638001 232.129999,115.831999 232.278,115.984 C232.426001,116.136001 232.599999,116.248 232.8,116.32 C233.000001,116.392 233.215999,116.428 233.448,116.428 C233.736001,116.428 233.983999,116.386 234.192,116.302 C234.400001,116.218 234.579999,116.126001 234.732,116.026 C234.884001,115.925999 235.008,115.834 235.104,115.75 C235.2,115.666 235.276,115.624 235.332,115.624 C235.396,115.624 235.46,115.664 235.524,115.744 L235.836,116.248 C235.531998,116.584002 235.146002,116.853999 234.678,117.058 C234.209998,117.262001 233.724003,117.364 233.22,117.364 Z M246.132,117.172 C245.891999,117.172 245.744,117.060001 245.688,116.836 L245.52,115.312 C245.191998,115.632002 244.866002,115.919999 244.542,116.176 C244.217998,116.432001 243.880002,116.647999 243.528,116.824 C243.175998,117.000001 242.796002,117.134 242.388,117.226 C241.979998,117.318 241.532002,117.364 241.044,117.364 C240.635998,117.364 240.240002,117.304001 239.856,117.184 C239.471998,117.063999 239.132001,116.880001 238.836,116.632 C238.539999,116.383999 238.302001,116.066002 238.122,115.678 C237.941999,115.289998 237.852,114.824003 237.852,114.28 C237.852,113.775997 237.995999,113.308002 238.284,112.876 C238.572001,112.443998 239.021997,112.068002 239.634,111.748 C240.246003,111.427998 241.033995,111.172001 241.998,110.98 C242.962005,110.787999 244.119993,110.676 245.472,110.644 L245.472,109.396 C245.472,108.291994 245.234002,107.442003 244.758,106.846 C244.281998,106.249997 243.576005,105.952 242.64,105.952 C242.063997,105.952 241.574002,106.031999 241.17,106.192 C240.765998,106.352001 240.424001,106.527999 240.144,106.72 C239.863999,106.912001 239.636001,107.087999 239.46,107.248 C239.283999,107.408001 239.136001,107.488 239.016,107.488 C238.855999,107.488 238.736,107.416001 238.656,107.272 L238.452,106.924 C239.076003,106.299997 239.731997,105.828002 240.42,105.508 C241.108003,105.187998 241.887996,105.028 242.76,105.028 C243.400003,105.028 243.959998,105.129999 244.44,105.334 C244.920002,105.538001 245.317998,105.829998 245.634,106.21 C245.950002,106.590002 246.187999,107.049997 246.348,107.59 C246.508001,108.130003 246.588,108.731997 246.588,109.396 L246.588,117.172 L246.132,117.172 Z M241.332,116.536 C241.796002,116.536 242.221998,116.486 242.61,116.386 C242.998002,116.286 243.357998,116.146001 243.69,115.966 C244.022002,115.785999 244.331999,115.572001 244.62,115.324 C244.908001,115.075999 245.191999,114.808001 245.472,114.52 L245.472,111.412 C244.335994,111.444 243.358004,111.529999 242.538,111.67 C241.717996,111.810001 241.042003,111.999999 240.51,112.24 C239.977997,112.480001 239.586001,112.765998 239.334,113.098 C239.081999,113.430002 238.956,113.807998 238.956,114.232 C238.956,114.632002 239.021999,114.977999 239.154,115.27 C239.286001,115.562001 239.459999,115.801999 239.676,115.99 C239.892001,116.178001 240.143999,116.316 240.432,116.404 C240.720001,116.492 241.019998,116.536 241.332,116.536 Z" id="Open-Source-Open-Dat" fill="#FFFFFF" sketch:type="MSShapeGroup"></path>
    </g>
</svg>