<?xml version="1.0" encoding="UTF-8" standalone="no"?>
<svg width="291px" height="291px" viewBox="0 0 291 291" version="1.1" xmlns="http://www.w3.org/2000/svg" xmlns:xlink="http://www.w3.org/1999/xlink" xmlns:sketch="http://www.bohemiancoding.com/sketch/ns">
    <title>Untitled 15</title>
    <description>Created with Sketch (http://www.bohemiancoding.com/sketch)</description>
    <defs></defs>
    <g id="Page-1" stroke="none" stroke-width="1" fill="none" fill-rule="evenodd" sketch:type="MSPage">
        <rect id="Rectangle-1" fill="#000000" sketch:type="MSShapeGroup" x="0" y="0" width="291" height="291"></rect>
        <path d="M24.5,181.5 L269.899673,181.5" id="Line" stroke="#FFFFFF" stroke-linecap="square" sketch:type="MSShapeGroup"></path>
        <path d="M86.0469998,130.432 C86.0469998,135.461358 85.295674,140.02298 83.7929998,144.117 C82.2903256,148.21102 80.1743468,151.706986 77.4449998,154.605 C74.7156528,157.503014 71.4496855,159.741659 67.6469998,161.321 C63.8443141,162.900341 59.6276896,163.69 54.9969998,163.69 C50.4276436,163.69 46.2416855,162.900341 42.4389998,161.321 C38.6363141,159.741659 35.3703468,157.503014 32.6409998,154.605 C29.9116528,151.706986 27.7880074,148.21102 26.2699998,144.117 C24.7519922,140.02298 23.9929998,135.461358 23.9929998,130.432 C23.9929998,125.433308 24.7519922,120.88702 26.2699998,116.793 C27.7880074,112.69898 29.9116528,109.203014 32.6409998,106.305 C35.3703468,103.406986 38.6363141,101.160675 42.4389998,99.566 C46.2416855,97.9713254 50.4276436,97.174 54.9969998,97.174 C59.6276896,97.174 63.8443141,97.9636588 67.6469998,99.543 C71.4496855,101.122341 74.7156528,103.368652 77.4449998,106.282 C80.1743468,109.195348 82.2903256,112.69898 83.7929998,116.793 C85.295674,120.88702 86.0469998,125.433308 86.0469998,130.432 Z M81.1709998,130.432 C81.1709998,125.893311 80.5423394,121.814685 79.2849998,118.196 C78.0276602,114.577315 76.2566779,111.510679 73.9719998,108.996 C71.6873217,106.481321 68.9350159,104.557007 65.7149998,103.223 C62.4949837,101.888993 58.9223528,101.222 54.9969998,101.222 C51.1329805,101.222 47.5986825,101.888993 44.3939998,103.223 C41.1893171,104.557007 38.4293447,106.481321 36.1139998,108.996 C33.7986549,111.510679 32.0046728,114.577315 30.7319998,118.196 C29.4593268,121.814685 28.8229998,125.893311 28.8229998,130.432 C28.8229998,135.001356 29.4593268,139.087649 30.7319998,142.691 C32.0046728,146.294351 33.7986549,149.353321 36.1139998,151.868 C38.4293447,154.382679 41.1893171,156.299327 44.3939998,157.618 C47.5986825,158.936673 51.1329805,159.596 54.9969998,159.596 C58.9223528,159.596 62.4949837,158.936673 65.7149998,157.618 C68.9350159,156.299327 71.6873217,154.382679 73.9719998,151.868 C76.2566779,149.353321 78.0276602,146.294351 79.2849998,142.691 C80.5423394,139.087649 81.1709998,135.001356 81.1709998,130.432 Z M129.729,105.822 C129.452999,106.343336 129.054336,106.604 128.533,106.604 C128.134331,106.604 127.62067,106.320336 126.992,105.753 C126.36333,105.185664 125.512339,104.557003 124.439,103.867 C123.365661,103.176997 122.024008,102.54067 120.414,101.958 C118.803992,101.37533 116.818345,101.084 114.457,101.084 C112.095655,101.084 110.018009,101.42133 108.224,102.096 C106.429991,102.77067 104.927339,103.690661 103.716,104.856 C102.504661,106.021339 101.58467,107.370659 100.956,108.904 C100.32733,110.437341 100.013,112.047325 100.013,113.734 C100.013,115.942011 100.480662,117.766659 101.416,119.208 C102.351338,120.649341 103.585659,121.875995 105.119,122.888 C106.652341,123.900005 108.392657,124.750997 110.34,125.441 C112.287343,126.131003 114.288323,126.81333 116.343,127.488 C118.397677,128.16267 120.398657,128.906329 122.346,129.719 C124.293343,130.531671 126.033659,131.551327 127.567,132.778 C129.100341,134.004673 130.334662,135.514991 131.27,137.309 C132.205338,139.103009 132.673,141.333987 132.673,144.002 C132.673,146.731347 132.205338,149.299655 131.27,151.707 C130.334662,154.114345 128.977675,156.207324 127.199,157.986 C125.420324,159.764676 123.243013,161.167662 120.667,162.195 C118.090987,163.222338 115.147016,163.736 111.835,163.736 C107.541645,163.736 103.846349,162.977008 100.749,161.459 C97.6516511,159.940992 94.9376782,157.863347 92.6069999,155.226 L93.8949999,153.202 C94.2630017,152.741998 94.6923308,152.512 95.1829999,152.512 C95.4590013,152.512 95.8116644,152.695998 96.2409999,153.064 C96.6703354,153.432002 97.1916635,153.884331 97.8049999,154.421 C98.4183363,154.957669 99.1543289,155.54033 100.013,156.169 C100.871671,156.79767 101.868328,157.380331 103.003,157.917 C104.137672,158.453669 105.440993,158.905998 106.913,159.274 C108.385007,159.642002 110.056324,159.826 111.927,159.826 C114.503013,159.826 116.80299,159.435004 118.827,158.653 C120.85101,157.870996 122.56066,156.80534 123.956,155.456 C125.35134,154.10666 126.416996,152.504343 127.153,150.649 C127.889004,148.793657 128.257,146.808011 128.257,144.692 C128.257,142.391988 127.789338,140.498341 126.854,139.011 C125.918662,137.523659 124.684341,136.281672 123.151,135.285 C121.617659,134.288328 119.877343,133.45267 117.93,132.778 C115.982657,132.10333 113.981677,131.444003 111.927,130.8 C109.872323,130.155997 107.871343,129.435337 105.924,128.638 C103.976657,127.840663 102.236341,126.821006 100.703,125.579 C99.1696589,124.336994 97.9353379,122.788343 96.9999999,120.933 C96.0646619,119.077657 95.5969999,116.754681 95.5969999,113.964 C95.5969999,111.786656 96.0109958,109.68601 96.8389999,107.662 C97.667004,105.63799 98.8783253,103.851674 100.473,102.303 C102.067675,100.754326 104.037988,99.512338 106.384,98.577 C108.730012,97.641662 111.405652,97.174 114.411,97.174 C117.78435,97.174 120.812653,97.7106613 123.496,98.784 C126.179347,99.8573387 128.624989,101.497989 130.833,103.706 L129.729,105.822 Z M201.287,130.432 C201.287,135.461358 200.535674,140.02298 199.033,144.117 C197.530326,148.21102 195.414347,151.706986 192.685,154.605 C189.955653,157.503014 186.689686,159.741659 182.887,161.321 C179.084314,162.900341 174.86769,163.69 170.237,163.69 C165.667644,163.69 161.481686,162.900341 157.679,161.321 C153.876314,159.741659 150.610347,157.503014 147.881,154.605 C145.151653,151.706986 143.028008,148.21102 141.51,144.117 C139.991992,140.02298 139.233,135.461358 139.233,130.432 C139.233,125.433308 139.991992,120.88702 141.51,116.793 C143.028008,112.69898 145.151653,109.203014 147.881,106.305 C150.610347,103.406986 153.876314,101.160675 157.679,99.566 C161.481686,97.9713254 165.667644,97.174 170.237,97.174 C174.86769,97.174 179.084314,97.9636588 182.887,99.543 C186.689686,101.122341 189.955653,103.368652 192.685,106.282 C195.414347,109.195348 197.530326,112.69898 199.033,116.793 C200.535674,120.88702 201.287,125.433308 201.287,130.432 Z M196.411,130.432 C196.411,125.893311 195.78234,121.814685 194.525,118.196 C193.26766,114.577315 191.496678,111.510679 189.212,108.996 C186.927322,106.481321 184.175016,104.557007 180.955,103.223 C177.734984,101.888993 174.162353,101.222 170.237,101.222 C166.372981,101.222 162.838683,101.888993 159.634,103.223 C156.429317,104.557007 153.669345,106.481321 151.354,108.996 C149.038655,111.510679 147.244673,114.577315 145.972,118.196 C144.699327,121.814685 144.063,125.893311 144.063,130.432 C144.063,135.001356 144.699327,139.087649 145.972,142.691 C147.244673,146.294351 149.038655,149.353321 151.354,151.868 C153.669345,154.382679 156.429317,156.299327 159.634,157.618 C162.838683,158.936673 166.372981,159.596 170.237,159.596 C174.162353,159.596 177.734984,158.936673 180.955,157.618 C184.175016,156.299327 186.927322,154.382679 189.212,151.868 C191.496678,149.353321 193.26766,146.294351 194.525,142.691 C195.78234,139.087649 196.411,135.001356 196.411,130.432 Z M268.291,130.432 C268.291,135.461358 267.539674,139.984647 266.037,144.002 C264.534326,148.019353 262.418347,151.438653 259.689,154.26 C256.959653,157.081347 253.693686,159.243326 249.891,160.746 C246.088314,162.248674 241.87169,163 237.241,163 L213.505,163 L213.505,97.91 L237.241,97.91 C241.87169,97.91 246.088314,98.6613258 249.891,100.164 C253.693686,101.666674 256.959653,103.828653 259.689,106.65 C262.418347,109.471347 264.534326,112.890647 266.037,116.908 C267.539674,120.925353 268.291,125.433308 268.291,130.432 Z M263.415,130.432 C263.415,125.893311 262.78634,121.845351 261.529,118.288 C260.27166,114.730649 258.500678,111.725346 256.216,109.272 C253.931322,106.818654 251.179016,104.948006 247.959,103.66 C244.738984,102.371994 241.166353,101.728 237.241,101.728 L218.243,101.728 L218.243,159.182 L237.241,159.182 C241.166353,159.182 244.738984,158.538006 247.959,157.25 C251.179016,155.961994 253.931322,154.091346 256.216,151.638 C258.500678,149.184654 260.27166,146.179351 261.529,142.622 C262.78634,139.064649 263.415,135.001356 263.415,130.432 Z" id="OSOD" fill="#FFFFFF" sketch:type="MSShapeGroup"></path>
        <path d="M39.304,205.504 C39.304,206.816007 39.108002,208.005995 38.716,209.074 C38.323998,210.142005 37.7720036,211.053996 37.06,211.81 C36.3479964,212.566004 35.496005,213.149998 34.504,213.562 C33.511995,213.974002 32.412006,214.18 31.204,214.18 C30.011994,214.18 28.920005,213.974002 27.928,213.562 C26.935995,213.149998 26.0840036,212.566004 25.372,211.81 C24.6599964,211.053996 24.106002,210.142005 23.71,209.074 C23.313998,208.005995 23.116,206.816007 23.116,205.504 C23.116,204.199993 23.313998,203.014005 23.71,201.946 C24.106002,200.877995 24.6599964,199.966004 25.372,199.21 C26.0840036,198.453996 26.935995,197.868002 27.928,197.452 C28.920005,197.035998 30.011994,196.828 31.204,196.828 C32.412006,196.828 33.511995,197.033998 34.504,197.446 C35.496005,197.858002 36.3479964,198.443996 37.06,199.204 C37.7720036,199.964004 38.323998,200.877995 38.716,201.946 C39.108002,203.014005 39.304,204.199993 39.304,205.504 Z M38.032,205.504 C38.032,204.319994 37.8680016,203.256005 37.54,202.312 C37.2119984,201.367995 36.750003,200.568003 36.154,199.912 C35.557997,199.255997 34.8400042,198.754002 34,198.406 C33.1599958,198.057998 32.2280051,197.884 31.204,197.884 C30.195995,197.884 29.2740042,198.057998 28.438,198.406 C27.6019958,198.754002 26.882003,199.255997 26.278,199.912 C25.673997,200.568003 25.2060017,201.367995 24.874,202.312 C24.5419983,203.256005 24.376,204.319994 24.376,205.504 C24.376,206.696006 24.5419983,207.761995 24.874,208.702 C25.2060017,209.642005 25.673997,210.439997 26.278,211.096 C26.882003,211.752003 27.6019958,212.251998 28.438,212.596 C29.2740042,212.940002 30.195995,213.112 31.204,213.112 C32.2280051,213.112 33.1599958,212.940002 34,212.596 C34.8400042,212.251998 35.557997,211.752003 36.154,211.096 C36.750003,210.439997 37.2119984,209.642005 37.54,208.702 C37.8680016,207.761995 38.032,206.696006 38.032,205.504 Z M42.724,218.224 L42.724,202.06 L43.348,202.06 C43.4520005,202.06 43.5359997,202.082 43.6,202.126 C43.6640003,202.17 43.7,202.247999 43.708,202.36 L43.816,204.208 C44.3440026,203.487996 44.9619965,202.916002 45.67,202.492 C46.3780035,202.067998 47.1719956,201.856 48.052,201.856 C49.5240074,201.856 50.6679959,202.363995 51.484,203.38 C52.3000041,204.396005 52.708,205.91999 52.708,207.952 C52.708,208.824004 52.5940011,209.637996 52.366,210.394 C52.1379989,211.150004 51.8040022,211.805997 51.364,212.362 C50.9239978,212.918003 50.3820032,213.355998 49.738,213.676 C49.0939968,213.996002 48.3520042,214.156 47.512,214.156 C46.6959959,214.156 45.992003,214.008001 45.4,213.712 C44.807997,213.415999 44.2960022,212.976003 43.864,212.392 L43.864,218.224 L42.724,218.224 Z M47.728,202.78 C46.935996,202.78 46.2180032,202.985998 45.574,203.398 C44.9299968,203.810002 44.3600025,204.383996 43.864,205.12 L43.864,211.384 C44.3200023,212.072003 44.8259972,212.555999 45.382,212.836 C45.9380028,213.116001 46.5719964,213.256 47.284,213.256 C47.9880035,213.256 48.6039974,213.128001 49.132,212.872 C49.6600026,212.615999 50.1019982,212.254002 50.458,211.786 C50.8140018,211.317998 51.0819991,210.758003 51.262,210.106 C51.4420009,209.453997 51.532,208.736004 51.532,207.952 C51.532,206.175991 51.2060033,204.870004 50.554,204.034 C49.9019967,203.197996 48.9600062,202.78 47.728,202.78 Z M60.064,201.868 C60.7360034,201.868 61.3579971,201.983999 61.93,202.216 C62.5020029,202.448001 62.9979979,202.785998 63.418,203.23 C63.8380021,203.674002 64.1659988,204.219997 64.402,204.868 C64.6380012,205.516003 64.756,206.259996 64.756,207.1 C64.756,207.276001 64.7300003,207.396 64.678,207.46 C64.6259997,207.524 64.5440006,207.556 64.432,207.556 L55.804,207.556 L55.804,207.784 C55.804,208.680004 55.907999,209.467997 56.116,210.148 C56.324001,210.828003 56.6199981,211.397998 57.004,211.858 C57.3880019,212.318002 57.8519973,212.663999 58.396,212.896 C58.9400027,213.128001 59.5479966,213.244 60.22,213.244 C60.820003,213.244 61.3399978,213.178001 61.78,213.046 C62.2200022,212.913999 62.5899985,212.766001 62.89,212.602 C63.1900015,212.437999 63.4279991,212.290001 63.604,212.158 C63.7800009,212.025999 63.9079996,211.96 63.988,211.96 C64.0920005,211.96 64.1719997,212 64.228,212.08 L64.54,212.464 C64.347999,212.704001 64.0940016,212.927999 63.778,213.136 C63.4619984,213.344001 63.1100019,213.521999 62.722,213.67 C62.3339981,213.818001 61.9180022,213.936 61.474,214.024 C61.0299978,214.112 60.5840022,214.156 60.136,214.156 C59.3199959,214.156 58.5760034,214.014001 57.904,213.73 C57.2319966,213.445999 56.6560024,213.032003 56.176,212.488 C55.6959976,211.943997 55.3260013,211.278004 55.066,210.49 C54.8059987,209.701996 54.676,208.800005 54.676,207.784 C54.676,206.927996 54.7979988,206.138004 55.042,205.414 C55.2860012,204.689996 55.6379977,204.066003 56.098,203.542 C56.5580023,203.017997 57.1219967,202.608001 57.79,202.312 C58.4580033,202.015999 59.2159958,201.868 60.064,201.868 Z M60.076,202.72 C59.4599969,202.72 58.9080024,202.815999 58.42,203.008 C57.9319976,203.200001 57.5100018,203.475998 57.154,203.836 C56.7979982,204.196002 56.5100011,204.627997 56.29,205.132 C56.0699989,205.636003 55.9240004,206.199997 55.852,206.824 L63.724,206.824 C63.724,206.183997 63.6360009,205.610003 63.46,205.102 C63.2839991,204.593997 63.0360016,204.164002 62.716,203.812 C62.3959984,203.459998 62.0120022,203.190001 61.564,203.002 C61.1159978,202.813999 60.6200027,202.72 60.076,202.72 Z M67.828,214 L67.828,202.06 L68.452,202.06 C68.660001,202.06 68.7799998,202.159999 68.812,202.36 L68.92,204.16 C69.4640027,203.471997 70.0979964,202.918002 70.822,202.498 C71.5460036,202.077998 72.3519956,201.868 73.24,201.868 C73.8960033,201.868 74.4739975,201.971999 74.974,202.18 C75.4740025,202.388001 75.8879984,202.687998 76.216,203.08 C76.5440016,203.472002 76.7919992,203.943997 76.96,204.496 C77.1280008,205.048003 77.212,205.671997 77.212,206.368 L77.212,214 L76.072,214 L76.072,206.368 C76.072,205.247994 75.8160026,204.370003 75.304,203.734 C74.7919974,203.097997 74.0080053,202.78 72.952,202.78 C72.1679961,202.78 71.4400034,202.981998 70.768,203.386 C70.0959966,203.790002 69.4960026,204.343996 68.968,205.048 L68.968,214 L67.828,214 Z M94.228,199.084 C94.1559996,199.220001 94.0520007,199.288 93.916,199.288 C93.8119995,199.288 93.6780008,199.214001 93.514,199.066 C93.3499992,198.917999 93.1280014,198.754001 92.848,198.574 C92.5679986,198.393999 92.2180021,198.228001 91.798,198.076 C91.3779979,197.923999 90.8600031,197.848 90.244,197.848 C89.6279969,197.848 89.0860023,197.935999 88.618,198.112 C88.1499977,198.288001 87.7580016,198.527998 87.442,198.832 C87.1259984,199.136002 86.8860008,199.487998 86.722,199.888 C86.5579992,200.288002 86.476,200.707998 86.476,201.148 C86.476,201.724003 86.5979988,202.199998 86.842,202.576 C87.0860012,202.952002 87.407998,203.271999 87.808,203.536 C88.208002,203.800001 88.6619975,204.021999 89.17,204.202 C89.6780025,204.382001 90.1999973,204.559999 90.736,204.736 C91.2720027,204.912001 91.7939975,205.105999 92.302,205.318 C92.8100025,205.530001 93.263998,205.795998 93.664,206.116 C94.064002,206.436002 94.3859988,206.829998 94.63,207.298 C94.8740012,207.766002 94.996,208.347997 94.996,209.044 C94.996,209.756004 94.8740012,210.425997 94.63,211.054 C94.3859988,211.682003 94.0320023,212.227998 93.568,212.692 C93.1039977,213.156002 92.5360034,213.521999 91.864,213.79 C91.1919966,214.058001 90.4240043,214.192 89.56,214.192 C88.4399944,214.192 87.476004,213.994002 86.668,213.598 C85.859996,213.201998 85.152003,212.660003 84.544,211.972 L84.88,211.444 C84.9760005,211.323999 85.0879994,211.264 85.216,211.264 C85.2880004,211.264 85.3799994,211.312 85.492,211.408 C85.6040006,211.504 85.7399992,211.621999 85.9,211.762 C86.0600008,211.902001 86.2519989,212.053999 86.476,212.218 C86.7000011,212.382001 86.9599985,212.533999 87.256,212.674 C87.5520015,212.814001 87.8919981,212.932 88.276,213.028 C88.6600019,213.124 89.0959976,213.172 89.584,213.172 C90.2560034,213.172 90.8559974,213.070001 91.384,212.866 C91.9120026,212.661999 92.3579982,212.384002 92.722,212.032 C93.0860018,211.679998 93.363999,211.262002 93.556,210.778 C93.748001,210.293998 93.844,209.776003 93.844,209.224 C93.844,208.623997 93.7220012,208.130002 93.478,207.742 C93.2339988,207.353998 92.912002,207.030001 92.512,206.77 C92.111998,206.509999 91.6580025,206.292001 91.15,206.116 C90.6419975,205.939999 90.1200027,205.768001 89.584,205.6 C89.0479973,205.431999 88.5260025,205.244001 88.018,205.036 C87.5099975,204.827999 87.056002,204.562002 86.656,204.238 C86.255998,203.913998 85.9340012,203.510002 85.69,203.026 C85.4459988,202.541998 85.324,201.936004 85.324,201.208 C85.324,200.639997 85.4319989,200.092003 85.648,199.564 C85.8640011,199.035997 86.1799979,198.570002 86.596,198.166 C87.0120021,197.761998 87.5259969,197.438001 88.138,197.194 C88.7500031,196.949999 89.4479961,196.828 90.232,196.828 C91.1120044,196.828 91.9019965,196.967999 92.602,197.248 C93.3020035,197.528001 93.9399971,197.955997 94.516,198.532 L94.228,199.084 Z M102.532,201.868 C103.388004,201.868 104.153997,202.013999 104.83,202.306 C105.506003,202.598001 106.075998,203.011997 106.54,203.548 C107.004002,204.084003 107.357999,204.729996 107.602,205.486 C107.846001,206.242004 107.968,207.087995 107.968,208.024 C107.968,208.960005 107.846001,209.803996 107.602,210.556 C107.357999,211.308004 107.004002,211.951997 106.54,212.488 C106.075998,213.024003 105.506003,213.435999 104.83,213.724 C104.153997,214.012001 103.388004,214.156 102.532,214.156 C101.675996,214.156 100.910003,214.012001 100.234,213.724 C99.5579966,213.435999 98.9860023,213.024003 98.518,212.488 C98.0499977,211.951997 97.6940012,211.308004 97.45,210.556 C97.2059988,209.803996 97.084,208.960005 97.084,208.024 C97.084,207.087995 97.2059988,206.242004 97.45,205.486 C97.6940012,204.729996 98.0499977,204.084003 98.518,203.548 C98.9860023,203.011997 99.5579966,202.598001 100.234,202.306 C100.910003,202.013999 101.675996,201.868 102.532,201.868 Z M102.532,213.256 C103.244004,213.256 103.865997,213.134001 104.398,212.89 C104.930003,212.645999 105.373998,212.296002 105.73,211.84 C106.086002,211.383998 106.351999,210.834003 106.528,210.19 C106.704001,209.545997 106.792,208.824004 106.792,208.024 C106.792,207.231996 106.704001,206.512003 106.528,205.864 C106.351999,205.215997 106.086002,204.662002 105.73,204.202 C105.373998,203.741998 104.930003,203.388001 104.398,203.14 C103.865997,202.891999 103.244004,202.768 102.532,202.768 C101.819996,202.768 101.198003,202.891999 100.666,203.14 C100.133997,203.388001 99.6900018,203.741998 99.334,204.202 C98.9779982,204.662002 98.7100009,205.215997 98.53,205.864 C98.3499991,206.512003 98.26,207.231996 98.26,208.024 C98.26,208.824004 98.3499991,209.545997 98.53,210.19 C98.7100009,210.834003 98.9779982,211.383998 99.334,211.84 C99.6900018,212.296002 100.133997,212.645999 100.666,212.89 C101.198003,213.134001 101.819996,213.256 102.532,213.256 Z M111.82,202.06 L111.82,209.692 C111.82,210.812006 112.075997,211.689997 112.588,212.326 C113.100003,212.962003 113.879995,213.28 114.928,213.28 C115.704004,213.28 116.427997,213.082002 117.1,212.686 C117.772003,212.289998 118.375997,211.740004 118.912,211.036 L118.912,202.06 L120.064,202.06 L120.064,214 L119.428,214 C119.203999,214 119.088,213.896001 119.08,213.688 L118.972,211.912 C118.419997,212.600003 117.782004,213.151998 117.058,213.568 C116.333996,213.984002 115.528004,214.192 114.64,214.192 C113.975997,214.192 113.396002,214.088001 112.9,213.88 C112.403998,213.671999 111.992002,213.372002 111.664,212.98 C111.335998,212.587998 111.088001,212.116003 110.92,211.564 C110.751999,211.011997 110.668,210.388003 110.668,209.692 L110.668,202.06 L111.82,202.06 Z M123.952,214 L123.952,202.06 L124.552,202.06 C124.688001,202.06 124.786,202.088 124.846,202.144 C124.906,202.2 124.94,202.295999 124.948,202.432 L125.044,204.952 C125.428002,203.983995 125.939997,203.226003 126.58,202.678 C127.220003,202.129997 128.007995,201.856 128.944,201.856 C129.304002,201.856 129.635998,201.894 129.94,201.97 C130.244002,202.046 130.531999,202.155999 130.804,202.3 L130.648,203.092 C130.624,203.220001 130.544001,203.284 130.408,203.284 C130.36,203.284 130.292,203.268 130.204,203.236 C130.116,203.204 130.006001,203.168 129.874,203.128 C129.741999,203.088 129.580001,203.052 129.388,203.02 C129.195999,202.988 128.976001,202.972 128.728,202.972 C127.823995,202.972 127.082003,203.251997 126.502,203.812 C125.921997,204.372003 125.452002,205.179995 125.092,206.236 L125.092,214 L123.952,214 Z M141.34,203.656 C141.3,203.696 141.262,203.73 141.226,203.758 C141.19,203.786 141.14,203.8 141.076,203.8 C140.996,203.8 140.886001,203.746001 140.746,203.638 C140.605999,203.529999 140.420001,203.412001 140.188,203.284 C139.955999,203.155999 139.666002,203.038001 139.318,202.93 C138.969998,202.821999 138.548002,202.768 138.052,202.768 C137.363997,202.768 136.754003,202.889999 136.222,203.134 C135.689997,203.378001 135.242002,203.727998 134.878,204.184 C134.513998,204.640002 134.236001,205.191997 134.044,205.84 C133.851999,206.488003 133.756,207.215996 133.756,208.024 C133.756,208.864004 133.853999,209.607997 134.05,210.256 C134.246001,210.904003 134.523998,211.449998 134.884,211.894 C135.244002,212.338002 135.679997,212.675999 136.192,212.908 C136.704003,213.140001 137.271997,213.256 137.896,213.256 C138.472003,213.256 138.953998,213.188001 139.342,213.052 C139.730002,212.915999 140.049999,212.768001 140.302,212.608 C140.554001,212.447999 140.753999,212.300001 140.902,212.164 C141.050001,212.027999 141.168,211.96 141.256,211.96 C141.360001,211.96 141.44,212 141.496,212.08 L141.808,212.464 C141.623999,212.704001 141.392001,212.927999 141.112,213.136 C140.831999,213.344001 140.516002,213.523999 140.164,213.676 C139.811998,213.828001 139.430002,213.946 139.018,214.03 C138.605998,214.114 138.176002,214.156 137.728,214.156 C136.967996,214.156 136.274003,214.018001 135.646,213.742 C135.017997,213.465999 134.478002,213.066003 134.026,212.542 C133.573998,212.017997 133.222001,211.376004 132.97,210.616 C132.717999,209.855996 132.592,208.992005 132.592,208.024 C132.592,207.111995 132.711999,206.280004 132.952,205.528 C133.192001,204.775996 133.541998,204.128003 134.002,203.584 C134.462002,203.039997 135.025997,202.618001 135.694,202.318 C136.362003,202.017999 137.127996,201.868 137.992,201.868 C138.768004,201.868 139.457997,201.991999 140.062,202.24 C140.666003,202.488001 141.191998,202.823998 141.64,203.248 L141.34,203.656 Z M148.9,201.868 C149.572003,201.868 150.193997,201.983999 150.766,202.216 C151.338003,202.448001 151.833998,202.785998 152.254,203.23 C152.674002,203.674002 153.001999,204.219997 153.238,204.868 C153.474001,205.516003 153.592,206.259996 153.592,207.1 C153.592,207.276001 153.566,207.396 153.514,207.46 C153.462,207.524 153.380001,207.556 153.268,207.556 L144.64,207.556 L144.64,207.784 C144.64,208.680004 144.743999,209.467997 144.952,210.148 C145.160001,210.828003 145.455998,211.397998 145.84,211.858 C146.224002,212.318002 146.687997,212.663999 147.232,212.896 C147.776003,213.128001 148.383997,213.244 149.056,213.244 C149.656003,213.244 150.175998,213.178001 150.616,213.046 C151.056002,212.913999 151.425999,212.766001 151.726,212.602 C152.026002,212.437999 152.263999,212.290001 152.44,212.158 C152.616001,212.025999 152.744,211.96 152.824,211.96 C152.928001,211.96 153.008,212 153.064,212.08 L153.376,212.464 C153.183999,212.704001 152.930002,212.927999 152.614,213.136 C152.297998,213.344001 151.946002,213.521999 151.558,213.67 C151.169998,213.818001 150.754002,213.936 150.31,214.024 C149.865998,214.112 149.420002,214.156 148.972,214.156 C148.155996,214.156 147.412003,214.014001 146.74,213.73 C146.067997,213.445999 145.492002,213.032003 145.012,212.488 C144.531998,211.943997 144.162001,211.278004 143.902,210.49 C143.641999,209.701996 143.512,208.800005 143.512,207.784 C143.512,206.927996 143.633999,206.138004 143.878,205.414 C144.122001,204.689996 144.473998,204.066003 144.934,203.542 C145.394002,203.017997 145.957997,202.608001 146.626,202.312 C147.294003,202.015999 148.051996,201.868 148.9,201.868 Z M148.912,202.72 C148.295997,202.72 147.744002,202.815999 147.256,203.008 C146.767998,203.200001 146.346002,203.475998 145.99,203.836 C145.633998,204.196002 145.346001,204.627997 145.126,205.132 C144.905999,205.636003 144.76,206.199997 144.688,206.824 L152.56,206.824 C152.56,206.183997 152.472001,205.610003 152.296,205.102 C152.119999,204.593997 151.872002,204.164002 151.552,203.812 C151.231998,203.459998 150.848002,203.190001 150.4,203.002 C149.951998,202.813999 149.456003,202.72 148.912,202.72 Z M177.016,205.504 C177.016,206.816007 176.820002,208.005995 176.428,209.074 C176.035998,210.142005 175.484004,211.053996 174.772,211.81 C174.059996,212.566004 173.208005,213.149998 172.216,213.562 C171.223995,213.974002 170.124006,214.18 168.916,214.18 C167.723994,214.18 166.632005,213.974002 165.64,213.562 C164.647995,213.149998 163.796004,212.566004 163.084,211.81 C162.371996,211.053996 161.818002,210.142005 161.422,209.074 C161.025998,208.005995 160.828,206.816007 160.828,205.504 C160.828,204.199993 161.025998,203.014005 161.422,201.946 C161.818002,200.877995 162.371996,199.966004 163.084,199.21 C163.796004,198.453996 164.647995,197.868002 165.64,197.452 C166.632005,197.035998 167.723994,196.828 168.916,196.828 C170.124006,196.828 171.223995,197.033998 172.216,197.446 C173.208005,197.858002 174.059996,198.443996 174.772,199.204 C175.484004,199.964004 176.035998,200.877995 176.428,201.946 C176.820002,203.014005 177.016,204.199993 177.016,205.504 Z M175.744,205.504 C175.744,204.319994 175.580002,203.256005 175.252,202.312 C174.923998,201.367995 174.462003,200.568003 173.866,199.912 C173.269997,199.255997 172.552004,198.754002 171.712,198.406 C170.871996,198.057998 169.940005,197.884 168.916,197.884 C167.907995,197.884 166.986004,198.057998 166.15,198.406 C165.313996,198.754002 164.594003,199.255997 163.99,199.912 C163.385997,200.568003 162.918002,201.367995 162.586,202.312 C162.253998,203.256005 162.088,204.319994 162.088,205.504 C162.088,206.696006 162.253998,207.761995 162.586,208.702 C162.918002,209.642005 163.385997,210.439997 163.99,211.096 C164.594003,211.752003 165.313996,212.251998 166.15,212.596 C166.986004,212.940002 167.907995,213.112 168.916,213.112 C169.940005,213.112 170.871996,212.940002 171.712,212.596 C172.552004,212.251998 173.269997,211.752003 173.866,211.096 C174.462003,210.439997 174.923998,209.642005 175.252,208.702 C175.580002,207.761995 175.744,206.696006 175.744,205.504 Z M180.436,218.224 L180.436,202.06 L181.06,202.06 C181.164001,202.06 181.248,202.082 181.312,202.126 C181.376,202.17 181.412,202.247999 181.42,202.36 L181.528,204.208 C182.056003,203.487996 182.673996,202.916002 183.382,202.492 C184.090004,202.067998 184.883996,201.856 185.764,201.856 C187.236007,201.856 188.379996,202.363995 189.196,203.38 C190.012004,204.396005 190.42,205.91999 190.42,207.952 C190.42,208.824004 190.306001,209.637996 190.078,210.394 C189.849999,211.150004 189.516002,211.805997 189.076,212.362 C188.635998,212.918003 188.094003,213.355998 187.45,213.676 C186.805997,213.996002 186.064004,214.156 185.224,214.156 C184.407996,214.156 183.704003,214.008001 183.112,213.712 C182.519997,213.415999 182.008002,212.976003 181.576,212.392 L181.576,218.224 L180.436,218.224 Z M185.44,202.78 C184.647996,202.78 183.930003,202.985998 183.286,203.398 C182.641997,203.810002 182.072002,204.383996 181.576,205.12 L181.576,211.384 C182.032002,212.072003 182.537997,212.555999 183.094,212.836 C183.650003,213.116001 184.283996,213.256 184.996,213.256 C185.700004,213.256 186.315997,213.128001 186.844,212.872 C187.372003,212.615999 187.813998,212.254002 188.17,211.786 C188.526002,211.317998 188.793999,210.758003 188.974,210.106 C189.154001,209.453997 189.244,208.736004 189.244,207.952 C189.244,206.175991 188.918003,204.870004 188.266,204.034 C187.613997,203.197996 186.672006,202.78 185.44,202.78 Z M197.776,201.868 C198.448003,201.868 199.069997,201.983999 199.642,202.216 C200.214003,202.448001 200.709998,202.785998 201.13,203.23 C201.550002,203.674002 201.877999,204.219997 202.114,204.868 C202.350001,205.516003 202.468,206.259996 202.468,207.1 C202.468,207.276001 202.442,207.396 202.39,207.46 C202.338,207.524 202.256001,207.556 202.144,207.556 L193.516,207.556 L193.516,207.784 C193.516,208.680004 193.619999,209.467997 193.828,210.148 C194.036001,210.828003 194.331998,211.397998 194.716,211.858 C195.100002,212.318002 195.563997,212.663999 196.108,212.896 C196.652003,213.128001 197.259997,213.244 197.932,213.244 C198.532003,213.244 199.051998,213.178001 199.492,213.046 C199.932002,212.913999 200.301999,212.766001 200.602,212.602 C200.902002,212.437999 201.139999,212.290001 201.316,212.158 C201.492001,212.025999 201.62,211.96 201.7,211.96 C201.804001,211.96 201.884,212 201.94,212.08 L202.252,212.464 C202.059999,212.704001 201.806002,212.927999 201.49,213.136 C201.173998,213.344001 200.822002,213.521999 200.434,213.67 C200.045998,213.818001 199.630002,213.936 199.186,214.024 C198.741998,214.112 198.296002,214.156 197.848,214.156 C197.031996,214.156 196.288003,214.014001 195.616,213.73 C194.943997,213.445999 194.368002,213.032003 193.888,212.488 C193.407998,211.943997 193.038001,211.278004 192.778,210.49 C192.517999,209.701996 192.388,208.800005 192.388,207.784 C192.388,206.927996 192.509999,206.138004 192.754,205.414 C192.998001,204.689996 193.349998,204.066003 193.81,203.542 C194.270002,203.017997 194.833997,202.608001 195.502,202.312 C196.170003,202.015999 196.927996,201.868 197.776,201.868 Z M197.788,202.72 C197.171997,202.72 196.620002,202.815999 196.132,203.008 C195.643998,203.200001 195.222002,203.475998 194.866,203.836 C194.509998,204.196002 194.222001,204.627997 194.002,205.132 C193.781999,205.636003 193.636,206.199997 193.564,206.824 L201.436,206.824 C201.436,206.183997 201.348001,205.610003 201.172,205.102 C200.995999,204.593997 200.748002,204.164002 200.428,203.812 C200.107998,203.459998 199.724002,203.190001 199.276,203.002 C198.827998,202.813999 198.332003,202.72 197.788,202.72 Z M205.54,214 L205.54,202.06 L206.164,202.06 C206.372001,202.06 206.492,202.159999 206.524,202.36 L206.632,204.16 C207.176003,203.471997 207.809996,202.918002 208.534,202.498 C209.258004,202.077998 210.063996,201.868 210.952,201.868 C211.608003,201.868 212.185998,201.971999 212.686,202.18 C213.186003,202.388001 213.599998,202.687998 213.928,203.08 C214.256002,203.472002 214.503999,203.943997 214.672,204.496 C214.840001,205.048003 214.924,205.671997 214.924,206.368 L214.924,214 L213.784,214 L213.784,206.368 C213.784,205.247994 213.528003,204.370003 213.016,203.734 C212.503997,203.097997 211.720005,202.78 210.664,202.78 C209.879996,202.78 209.152003,202.981998 208.48,203.386 C207.807997,203.790002 207.208003,204.343996 206.68,205.048 L206.68,214 L205.54,214 Z M238.024,205.504 C238.024,206.816007 237.828002,207.995995 237.436,209.044 C237.043998,210.092005 236.492004,210.983996 235.78,211.72 C235.067996,212.456004 234.216005,213.019998 233.224,213.412 C232.231995,213.804002 231.132006,214 229.924,214 L223.732,214 L223.732,197.02 L229.924,197.02 C231.132006,197.02 232.231995,197.215998 233.224,197.608 C234.216005,198.000002 235.067996,198.563996 235.78,199.3 C236.492004,200.036004 237.043998,200.927995 237.436,201.976 C237.828002,203.024005 238.024,204.199993 238.024,205.504 Z M236.752,205.504 C236.752,204.319994 236.588002,203.264005 236.26,202.336 C235.931998,201.407995 235.470003,200.624003 234.874,199.984 C234.277997,199.343997 233.560004,198.856002 232.72,198.52 C231.879996,198.183998 230.948005,198.016 229.924,198.016 L224.968,198.016 L224.968,213.004 L229.924,213.004 C230.948005,213.004 231.879996,212.836002 232.72,212.5 C233.560004,212.163998 234.277997,211.676003 234.874,211.036 C235.470003,210.395997 235.931998,209.612005 236.26,208.684 C236.588002,207.755995 236.752,206.696006 236.752,205.504 Z M249.016,214 C248.775999,214 248.628,213.888001 248.572,213.664 L248.404,212.14 C248.075998,212.460002 247.750002,212.747999 247.426,213.004 C247.101998,213.260001 246.764002,213.475999 246.412,213.652 C246.059998,213.828001 245.680002,213.962 245.272,214.054 C244.863998,214.146 244.416002,214.192 243.928,214.192 C243.519998,214.192 243.124002,214.132001 242.74,214.012 C242.355998,213.891999 242.016001,213.708001 241.72,213.46 C241.423999,213.211999 241.186001,212.894002 241.006,212.506 C240.825999,212.117998 240.736,211.652003 240.736,211.108 C240.736,210.603997 240.879999,210.136002 241.168,209.704 C241.456001,209.271998 241.905997,208.896002 242.518,208.576 C243.130003,208.255998 243.917995,208.000001 244.882,207.808 C245.846005,207.615999 247.003993,207.504 248.356,207.472 L248.356,206.224 C248.356,205.119994 248.118002,204.270003 247.642,203.674 C247.165998,203.077997 246.460005,202.78 245.524,202.78 C244.947997,202.78 244.458002,202.859999 244.054,203.02 C243.649998,203.180001 243.308001,203.355999 243.028,203.548 C242.747999,203.740001 242.520001,203.915999 242.344,204.076 C242.167999,204.236001 242.020001,204.316 241.9,204.316 C241.739999,204.316 241.62,204.244001 241.54,204.1 L241.336,203.752 C241.960003,203.127997 242.615997,202.656002 243.304,202.336 C243.992003,202.015998 244.771996,201.856 245.644,201.856 C246.284003,201.856 246.843998,201.957999 247.324,202.162 C247.804002,202.366001 248.201998,202.657998 248.518,203.038 C248.834002,203.418002 249.071999,203.877997 249.232,204.418 C249.392001,204.958003 249.472,205.559997 249.472,206.224 L249.472,214 L249.016,214 Z M244.216,213.364 C244.680002,213.364 245.105998,213.314 245.494,213.214 C245.882002,213.114 246.241998,212.974001 246.574,212.794 C246.906002,212.613999 247.215999,212.400001 247.504,212.152 C247.792001,211.903999 248.075999,211.636001 248.356,211.348 L248.356,208.24 C247.219994,208.272 246.242004,208.357999 245.422,208.498 C244.601996,208.638001 243.926003,208.827999 243.394,209.068 C242.861997,209.308001 242.470001,209.593998 242.218,209.926 C241.965999,210.258002 241.84,210.635998 241.84,211.06 C241.84,211.460002 241.905999,211.805999 242.038,212.098 C242.170001,212.390001 242.343999,212.629999 242.56,212.818 C242.776001,213.006001 243.027999,213.144 243.316,213.232 C243.604001,213.32 243.903998,213.364 244.216,213.364 Z M256.336,214.192 C255.527996,214.192 254.898002,213.968002 254.446,213.52 C253.993998,213.071998 253.768,212.380005 253.768,211.444 L253.768,203.284 L252.052,203.284 C251.964,203.284 251.892,203.26 251.836,203.212 C251.78,203.164 251.752,203.096 251.752,203.008 L251.752,202.564 L253.792,202.42 L254.08,198.148 C254.088,198.076 254.118,198.012 254.17,197.956 C254.222,197.9 254.292,197.872 254.38,197.872 L254.92,197.872 L254.92,202.432 L258.676,202.432 L258.676,203.284 L254.92,203.284 L254.92,211.384 C254.92,211.712002 254.962,211.993999 255.046,212.23 C255.13,212.466001 255.245999,212.659999 255.394,212.812 C255.542001,212.964001 255.715999,213.076 255.916,213.148 C256.116001,213.22 256.331999,213.256 256.564,213.256 C256.852001,213.256 257.099999,213.214 257.308,213.13 C257.516001,213.046 257.695999,212.954001 257.848,212.854 C258.000001,212.753999 258.124,212.662 258.22,212.578 C258.316,212.494 258.392,212.452 258.448,212.452 C258.512,212.452 258.576,212.492 258.64,212.572 L258.952,213.076 C258.647998,213.412002 258.262002,213.681999 257.794,213.886 C257.325998,214.090001 256.840003,214.192 256.336,214.192 Z M269.248,214 C269.007999,214 268.86,213.888001 268.804,213.664 L268.636,212.14 C268.307998,212.460002 267.982002,212.747999 267.658,213.004 C267.333998,213.260001 266.996002,213.475999 266.644,213.652 C266.291998,213.828001 265.912002,213.962 265.504,214.054 C265.095998,214.146 264.648002,214.192 264.16,214.192 C263.751998,214.192 263.356002,214.132001 262.972,214.012 C262.587998,213.891999 262.248001,213.708001 261.952,213.46 C261.655999,213.211999 261.418001,212.894002 261.238,212.506 C261.057999,212.117998 260.968,211.652003 260.968,211.108 C260.968,210.603997 261.111999,210.136002 261.4,209.704 C261.688001,209.271998 262.137997,208.896002 262.75,208.576 C263.362003,208.255998 264.149995,208.000001 265.114,207.808 C266.078005,207.615999 267.235993,207.504 268.588,207.472 L268.588,206.224 C268.588,205.119994 268.350002,204.270003 267.874,203.674 C267.397998,203.077997 266.692005,202.78 265.756,202.78 C265.179997,202.78 264.690002,202.859999 264.286,203.02 C263.881998,203.180001 263.540001,203.355999 263.26,203.548 C262.979999,203.740001 262.752001,203.915999 262.576,204.076 C262.399999,204.236001 262.252001,204.316 262.132,204.316 C261.971999,204.316 261.852,204.244001 261.772,204.1 L261.568,203.752 C262.192003,203.127997 262.847997,202.656002 263.536,202.336 C264.224003,202.015998 265.003996,201.856 265.876,201.856 C266.516003,201.856 267.075998,201.957999 267.556,202.162 C268.036002,202.366001 268.433998,202.657998 268.75,203.038 C269.066002,203.418002 269.303999,203.877997 269.464,204.418 C269.624001,204.958003 269.704,205.559997 269.704,206.224 L269.704,214 L269.248,214 Z M264.448,213.364 C264.912002,213.364 265.337998,213.314 265.726,213.214 C266.114002,213.114 266.473998,212.974001 266.806,212.794 C267.138002,212.613999 267.447999,212.400001 267.736,212.152 C268.024001,211.903999 268.307999,211.636001 268.588,211.348 L268.588,208.24 C267.451994,208.272 266.474004,208.357999 265.654,208.498 C264.833996,208.638001 264.158003,208.827999 263.626,209.068 C263.093997,209.308001 262.702001,209.593998 262.45,209.926 C262.197999,210.258002 262.072,210.635998 262.072,211.06 C262.072,211.460002 262.137999,211.805999 262.27,212.098 C262.402001,212.390001 262.575999,212.629999 262.792,212.818 C263.008001,213.006001 263.259999,213.144 263.548,213.232 C263.836001,213.32 264.135998,213.364 264.448,213.364 Z" id="Open-Source-Open-Dat" fill="#FFFFFF" sketch:type="MSShapeGroup"></path>
    </g>
</svg>