<?xml version="1.0" standalone="no"?>
<!DOCTYPE svg PUBLIC "-//W3C//DTD SVG 20010904//EN"
 "http://www.w3.org/TR/2001/REC-SVG-20010904/DTD/svg10.dtd">
<svg version="1.0" xmlns="http://www.w3.org/2000/svg"
 width="149.000000pt" height="149.000000pt" viewBox="0 0 149.000000 149.000000"
 preserveAspectRatio="xMidYMid meet">
<metadata>
Created by potrace 1.11, written by Peter Selinger 2001-2013
</metadata>
<g transform="translate(0.000000,149.000000) scale(0.100000,-0.100000)"
fill="#000000" stroke="none">
<path d="M595 1414 c-281 -62 -481 -267 -540 -550 -19 -93 -19 -165 0 -258 54
-259 223 -452 470 -533 69 -23 97 -26 205 -26 108 0 136 3 205 26 105 35 194
88 269 162 186 183 253 424 190 682 l-18 72 43 47 43 46 -113 114 -113 114
-28 -26 -27 -27 -38 30 c-146 115 -370 167 -548 127z"/>
</g>
</svg>
