<?xml version="1.0" encoding="UTF-8" standalone="no"?>
<svg width="418px" height="155px" viewBox="0 0 418 155" version="1.1" xmlns="http://www.w3.org/2000/svg" xmlns:xlink="http://www.w3.org/1999/xlink">
    <!-- Generator: Sketch 50.2 (55047) - http://www.bohemiancoding.com/sketch -->
    <title>standard</title>
    <desc>Created with Sketch.</desc>
    <defs></defs>
    <g id="Page-1" stroke="none" stroke-width="1" fill="none" fill-rule="evenodd">
        <path d="M189.2,154.4 C184.666644,154.4 180.550019,153.633341 176.85,152.1 C173.149982,150.566659 169.983347,148.350014 167.35,145.45 C164.716654,142.549985 162.666674,138.983354 161.2,134.75 C159.733326,130.516645 159,125.73336 159,120.4 C159,115.06664 159.733326,110.316687 161.2,106.15 C162.666674,101.983312 164.716654,98.4833475 167.35,95.65 C169.983347,92.8166525 173.149982,90.666674 176.85,89.2 C180.550019,87.733326 184.666644,87 189.2,87 C193.666689,87 197.766648,87.733326 201.5,89.2 C205.233352,90.666674 208.416654,92.833319 211.05,95.7 C213.683347,98.566681 215.733326,102.066646 217.2,106.2 C218.666674,110.333354 219.4,115.06664 219.4,120.4 C219.4,125.73336 218.666674,130.516645 217.2,134.75 C215.733326,138.983354 213.683347,142.549985 211.05,145.45 C208.416654,148.350014 205.233352,150.566659 201.5,152.1 C197.766648,153.633341 193.666689,154.4 189.2,154.4 Z M189.2,139.6 C193.133353,139.6 196.216656,137.883351 198.45,134.45 C200.683345,131.016649 201.8,126.333363 201.8,120.4 C201.8,114.466637 200.683345,109.883349 198.45,106.65 C196.216656,103.416651 193.133353,101.8 189.2,101.8 C185.266647,101.8 182.183345,103.416651 179.95,106.65 C177.716656,109.883349 176.6,114.466637 176.6,120.4 C176.6,126.333363 177.716656,131.016649 179.95,134.45 C182.183345,137.883351 185.266647,139.6 189.2,139.6 Z M233.8,133.3 C236.133345,135.166676 238.649987,136.683327 241.35,137.85 C244.050014,139.016672 246.599988,139.6 249,139.6 C251.600013,139.6 253.483328,139.200004 254.65,138.4 C255.816673,137.599996 256.4,136.466674 256.4,135 C256.4,134.199996 256.200002,133.533336 255.8,133 C255.399998,132.466664 254.81667,131.966669 254.05,131.5 C253.28333,131.033331 252.366672,130.583335 251.3,130.15 C250.233328,129.716664 249.000007,129.233336 247.6,128.7 L239.5,125.3 C237.766658,124.63333 236.100008,123.750005 234.5,122.65 C232.899992,121.549994 231.500006,120.250007 230.3,118.75 C229.099994,117.249992 228.150004,115.533343 227.45,113.6 C226.749997,111.666657 226.4,109.533345 226.4,107.2 C226.4,104.399986 226.999994,101.783345 228.2,99.35 C229.400006,96.9166545 231.066656,94.7833425 233.2,92.95 C235.333344,91.1166575 237.883319,89.666672 240.85,88.6 C243.816682,87.533328 247.066649,87 250.6,87 C254.333352,87 258.116647,87.699993 261.95,89.1 C265.783353,90.500007 269.199985,92.699985 272.2,95.7 L263.6,106.5 C261.399989,104.966659 259.283344,103.800004 257.25,103 C255.216656,102.199996 253.000012,101.8 250.6,101.8 C248.466656,101.8 246.800006,102.166663 245.6,102.9 C244.399994,103.633337 243.8,104.733326 243.8,106.2 C243.8,107.733341 244.649992,108.916662 246.35,109.75 C248.050008,110.583337 250.399985,111.566661 253.4,112.7 L261.3,115.8 C265.366687,117.400008 268.499989,119.633319 270.7,122.5 C272.900011,125.366681 274,129.066644 274,133.6 C274,136.333347 273.433339,138.966654 272.3,141.5 C271.166661,144.033346 269.516678,146.249991 267.35,148.15 C265.183323,150.050009 262.533349,151.566661 259.4,152.7 C256.266651,153.833339 252.666687,154.4 248.6,154.4 C244.466646,154.4 240.216689,153.650007 235.85,152.15 C231.483312,150.649992 227.533351,148.300016 224,145.1 L233.8,133.3 Z M308.8,154.4 C304.266644,154.4 300.150018,153.633341 296.45,152.1 C292.749981,150.566659 289.583347,148.350014 286.95,145.45 C284.316654,142.549985 282.266674,138.983354 280.8,134.75 C279.333326,130.516645 278.6,125.73336 278.6,120.4 C278.6,115.06664 279.333326,110.316687 280.8,106.15 C282.266674,101.983312 284.316654,98.4833475 286.95,95.65 C289.583347,92.8166525 292.749981,90.666674 296.45,89.2 C300.150018,87.733326 304.266644,87 308.8,87 C313.266689,87 317.366648,87.733326 321.1,89.2 C324.833352,90.666674 328.016654,92.833319 330.65,95.7 C333.283346,98.566681 335.333326,102.066646 336.8,106.2 C338.266674,110.333354 339,115.06664 339,120.4 C339,125.73336 338.266674,130.516645 336.8,134.75 C335.333326,138.983354 333.283346,142.549985 330.65,145.45 C328.016654,148.350014 324.833352,150.566659 321.1,152.1 C317.366648,153.633341 313.266689,154.4 308.8,154.4 Z M308.8,139.6 C312.733353,139.6 315.816655,137.883351 318.05,134.45 C320.283344,131.016649 321.4,126.333363 321.4,120.4 C321.4,114.466637 320.283344,109.883349 318.05,106.65 C315.816655,103.416651 312.733353,101.8 308.8,101.8 C304.866647,101.8 301.783344,103.416651 299.55,106.65 C297.316655,109.883349 296.2,114.466637 296.2,120.4 C296.2,126.333363 297.316655,131.016649 299.55,134.45 C301.783344,137.883351 304.866647,139.6 308.8,139.6 Z M347.6,88.2 L366.8,88.2 C371.733358,88.2 376.249979,88.799994 380.35,90 C384.450021,91.200006 387.966652,93.099987 390.9,95.7 C393.833348,98.300013 396.116658,101.633313 397.75,105.7 C399.383342,109.766687 400.2,114.666638 400.2,120.4 C400.2,126.133362 399.400008,131.066646 397.8,135.2 C396.199992,139.333354 393.950015,142.73332 391.05,145.4 C388.149986,148.06668 384.716687,150.033327 380.75,151.3 C376.783313,152.566673 372.46669,153.2 367.8,153.2 L347.6,153.2 L347.6,88.2 Z M365.8,139.4 C368.133345,139.4 370.333323,139.11667 372.4,138.55 C374.466677,137.983331 376.249993,137.000007 377.75,135.6 C379.250008,134.199993 380.433329,132.266679 381.3,129.8 C382.166671,127.333321 382.6,124.200019 382.6,120.4 C382.6,116.599981 382.166671,113.500012 381.3,111.1 C380.433329,108.699988 379.250008,106.83334 377.75,105.5 C376.249993,104.16666 374.466677,103.250002 372.4,102.75 C370.333323,102.249997 368.133345,102 365.8,102 L364.8,102 L364.8,139.4 L365.8,139.4 Z" id="OSOD" fill="#4773AA"></path>
        <circle id="Oval" fill="#4773AA" cx="77" cy="77" r="77"></circle>
        <g id="noun_Check-Mark_5390_000000" transform="translate(6.000000, 14.000000)" fill="#FFFFFF" fill-rule="nonzero">
            <polygon id="Shape" points="52.56675 126 0 73.1025 25.53075 47.40975 53.3115 75.3525 128.21175 0 153 24.94125"></polygon>
        </g>
        <path d="M162,61.64 L176.96,61.64 L176.96,25.56 L163.76,25.56 L163.76,13.9 C167.72002,13.0933293 171.093319,12.1766718 173.88,11.15 C176.666681,10.1233282 179.379987,8.7666751 182.02,7.08 L195.88,7.08 L195.88,61.64 L208.42,61.64 L208.42,76.82 L162,76.82 L162,61.64 Z M240.84,78.14 C236.953314,78.14 233.433349,77.3516745 230.28,75.775 C227.126651,74.1983254 224.395012,71.8700154 222.085,68.79 C219.774988,65.7099846 217.996673,61.8966894 216.75,57.35 C215.503327,52.8033106 214.88,47.5600297 214.88,41.62 C214.88,35.6799703 215.503327,30.4550225 216.75,25.945 C217.996673,21.4349774 219.774988,17.6950149 222.085,14.725 C224.395012,11.7549851 227.126651,9.51834085 230.28,8.015 C233.433349,6.51165915 236.953314,5.76 240.84,5.76 C244.653352,5.76 248.154984,6.51165915 251.345,8.015 C254.535016,9.51834085 257.284988,11.7733183 259.595,14.78 C261.905012,17.7866817 263.683327,21.5266443 264.93,26 C266.176673,30.4733557 266.8,35.6799703 266.8,41.62 C266.8,47.5600297 266.176673,52.8033106 264.93,57.35 C263.683327,61.8966894 261.905012,65.7099846 259.595,68.79 C257.284988,71.8700154 254.535016,74.1983254 251.345,75.775 C248.154984,77.3516745 244.653352,78.14 240.84,78.14 Z M240.84,63.62 C241.940006,63.62 242.984995,63.3450027 243.975,62.795 C244.965005,62.2449972 245.826663,61.1633414 246.56,59.55 C247.293337,57.9366586 247.879998,55.7000143 248.32,52.84 C248.760002,49.9799857 248.98,46.2400231 248.98,41.62 C248.98,36.9999769 248.760002,33.2966806 248.32,30.51 C247.879998,27.7233194 247.293337,25.5600077 246.56,24.02 C245.826663,22.4799923 244.965005,21.4716691 243.975,20.995 C242.984995,20.518331 241.940006,20.28 240.84,20.28 C239.739995,20.28 238.695005,20.518331 237.705,20.995 C236.714995,21.4716691 235.853337,22.4799923 235.12,24.02 C234.386663,25.5600077 233.800002,27.7233194 233.36,30.51 C232.919998,33.2966806 232.7,36.9999769 232.7,41.62 C232.7,46.2400231 232.919998,49.9799857 233.36,52.84 C233.800002,55.7000143 234.386663,57.9366586 235.12,59.55 C235.853337,61.1633414 236.714995,62.2449972 237.705,62.795 C238.695005,63.3450027 239.739995,63.62 240.84,63.62 Z M297.24,78.14 C293.353314,78.14 289.833349,77.3516745 286.68,75.775 C283.526651,74.1983254 280.795012,71.8700154 278.485,68.79 C276.174988,65.7099846 274.396673,61.8966894 273.15,57.35 C271.903327,52.8033106 271.28,47.5600297 271.28,41.62 C271.28,35.6799703 271.903327,30.4550225 273.15,25.945 C274.396673,21.4349774 276.174988,17.6950149 278.485,14.725 C280.795012,11.7549851 283.526651,9.51834085 286.68,8.015 C289.833349,6.51165915 293.353314,5.76 297.24,5.76 C301.053352,5.76 304.554984,6.51165915 307.745,8.015 C310.935016,9.51834085 313.684988,11.7733183 315.995,14.78 C318.305012,17.7866817 320.083327,21.5266443 321.33,26 C322.576673,30.4733557 323.2,35.6799703 323.2,41.62 C323.2,47.5600297 322.576673,52.8033106 321.33,57.35 C320.083327,61.8966894 318.305012,65.7099846 315.995,68.79 C313.684988,71.8700154 310.935016,74.1983254 307.745,75.775 C304.554984,77.3516745 301.053352,78.14 297.24,78.14 Z M297.24,63.62 C298.340006,63.62 299.384995,63.3450027 300.375,62.795 C301.365005,62.2449972 302.226663,61.1633414 302.96,59.55 C303.693337,57.9366586 304.279998,55.7000143 304.72,52.84 C305.160002,49.9799857 305.38,46.2400231 305.38,41.62 C305.38,36.9999769 305.160002,33.2966806 304.72,30.51 C304.279998,27.7233194 303.693337,25.5600077 302.96,24.02 C302.226663,22.4799923 301.365005,21.4716691 300.375,20.995 C299.384995,20.518331 298.340006,20.28 297.24,20.28 C296.139995,20.28 295.095005,20.518331 294.105,20.995 C293.114995,21.4716691 292.253337,22.4799923 291.52,24.02 C290.786663,25.5600077 290.200002,27.7233194 289.76,30.51 C289.319998,33.2966806 289.1,36.9999769 289.1,41.62 C289.1,46.2400231 289.319998,49.9799857 289.76,52.84 C290.200002,55.7000143 290.786663,57.9366586 291.52,59.55 C292.253337,61.1633414 293.114995,62.2449972 294.105,62.795 C295.095005,63.3450027 296.139995,63.62 297.24,63.62 Z M344.84,49.54 C342.199987,49.54 339.743345,49.0266718 337.47,48 C335.196655,46.9733282 333.235008,45.4700099 331.585,43.49 C329.934992,41.5099901 328.651671,39.1083474 327.735,36.285 C326.818329,33.4616525 326.36,30.2533513 326.36,26.66 C326.36,23.0666487 326.818329,19.8766806 327.735,17.09 C328.651671,14.3033194 329.934992,11.938343 331.585,9.995 C333.235008,8.05165695 335.196655,6.5666718 337.47,5.54 C339.743345,4.5133282 342.199987,4 344.84,4 C347.480013,4 349.918322,4.5133282 352.155,5.54 C354.391678,6.5666718 356.334992,8.05165695 357.985,9.995 C359.635008,11.938343 360.936662,14.3033194 361.89,17.09 C362.843338,19.8766806 363.32,23.0666487 363.32,26.66 C363.32,30.2533513 362.843338,33.4616525 361.89,36.285 C360.936662,39.1083474 359.635008,41.5099901 357.985,43.49 C356.334992,45.4700099 354.391678,46.9733282 352.155,48 C349.918322,49.0266718 347.480013,49.54 344.84,49.54 Z M344.84,39.2 C346.306674,39.2 347.589994,38.3200088 348.69,36.56 C349.790006,34.7999912 350.34,31.5000242 350.34,26.66 C350.34,24.2399879 350.193335,22.2416745 349.9,20.665 C349.606665,19.0883254 349.203336,17.8233381 348.69,16.87 C348.176664,15.9166619 347.590003,15.2566685 346.93,14.89 C346.269997,14.5233315 345.573337,14.34 344.84,14.34 C344.106663,14.34 343.410003,14.5233315 342.75,14.89 C342.089997,15.2566685 341.503336,15.9166619 340.99,16.87 C340.476664,17.8233381 340.073335,19.0883254 339.78,20.665 C339.486665,22.2416745 339.34,24.2399879 339.34,26.66 C339.34,31.5000242 339.889995,34.7999912 340.99,36.56 C342.090006,38.3200088 343.373326,39.2 344.84,39.2 Z M347.48,78.14 L385.76,4 L396.32,4 L358.04,78.14 L347.48,78.14 Z M398.74,78.14 C396.099987,78.14 393.643345,77.6266718 391.37,76.6 C389.096655,75.5733282 387.135008,74.0700099 385.485,72.09 C383.834992,70.1099901 382.551671,67.7083474 381.635,64.885 C380.718329,62.0616525 380.26,58.8533513 380.26,55.26 C380.26,51.6666487 380.718329,48.4766806 381.635,45.69 C382.551671,42.9033194 383.834992,40.538343 385.485,38.595 C387.135008,36.6516569 389.096655,35.1666718 391.37,34.14 C393.643345,33.1133282 396.099987,32.6 398.74,32.6 C401.380013,32.6 403.818322,33.1133282 406.055,34.14 C408.291678,35.1666718 410.234992,36.6516569 411.885,38.595 C413.535008,40.538343 414.836662,42.9033194 415.79,45.69 C416.743338,48.4766806 417.22,51.6666487 417.22,55.26 C417.22,58.8533513 416.743338,62.0616525 415.79,64.885 C414.836662,67.7083474 413.535008,70.1099901 411.885,72.09 C410.234992,74.0700099 408.291678,75.5733282 406.055,76.6 C403.818322,77.6266718 401.380013,78.14 398.74,78.14 Z M398.74,67.8 C400.206674,67.8 401.489995,66.9200088 402.59,65.16 C403.690006,63.3999912 404.24,60.1000242 404.24,55.26 C404.24,52.8399879 404.093335,50.8416745 403.8,49.265 C403.506665,47.6883254 403.103336,46.4233381 402.59,45.47 C402.076664,44.5166619 401.490003,43.8566685 400.83,43.49 C400.169997,43.1233315 399.473337,42.94 398.74,42.94 C398.006663,42.94 397.310003,43.1233315 396.65,43.49 C395.989997,43.8566685 395.403336,44.5166619 394.89,45.47 C394.376664,46.4233381 393.973335,47.6883254 393.68,49.265 C393.386665,50.8416745 393.24,52.8399879 393.24,55.26 C393.24,60.1000242 393.789995,63.3999912 394.89,65.16 C395.990006,66.9200088 397.273326,67.8 398.74,67.8 Z" id="100%" fill="#4773AA"></path>
    </g>
</svg>